<svg version="1.1" viewBox="0 0 32 32" xmlns="http://www.w3.org/2000/svg">
    <defs>
        <style id="current-color-scheme" type="text/css">.ColorScheme-Highlight {
        color:#006aff;
      }
      .ColorScheme-HighlightedText {
        color:#ffffff;
      }</style>
        <linearGradient id="linearGradient877" x1="-.91805857" x2="-.91805857" y1="13.054173" y2="39.179272" gradientTransform="matrix(.7 0 0 .72727 30.642641 -4.4939081)" gradientUnits="userSpaceOnUse">
            <stop stop-opacity="0" offset="0"/>
            <stop stop-opacity=".054902" offset="1"/>
        </linearGradient>
    </defs>
    <path class="ColorScheme-Highlight" d="m2 24v1c0 1.662 1.338 3 3 3h22c1.662 0 3-1.338 3-3v-1z" fill="currentColor" stroke-linecap="round" stroke-width="5.55455"/>
    <path class="ColorScheme-Highlight" d="m2 24v1c0 1.662 1.338 3 3 3h22c1.662 0 3-1.338 3-3v-1z" fill-opacity=".87" stroke-linecap="round" stroke-width="5.55455"/>
    <path class="ColorScheme-Highlight" d="m5 5h22c1.662 0 3 1.338 3 3v16c0 1.662-1.338 3-3 3h-22c-1.662 0-3-1.338-3-3v-16c0-1.662 1.338-3 3-3z" fill="currentColor"/>
    <path class="ColorScheme-Highlight" d="m4.9999995 5h22c1.662 0 3 1.338 3 3v16c0 1.662-1.338 3-3 3h-22c-1.662 0-3-1.338-3-3v-16c0-1.662 1.338-3 3-3z" fill="url(#linearGradient877)"/>
    <path d="m2 24c0 1.662 1.338 3 3 3h22c1.662 0 3-1.338 3-3h-28z" fill-opacity=".60000002"/>
</svg>
