<svg version="1.1" viewBox="0 0 32 32" xmlns="http://www.w3.org/2000/svg">
    <rect x="2" y="2" width="28" height="28" rx="2" ry="2" fill="#00ba6b" stroke-width="1.00024"/>
    <g fill="#fff" aria-label="32px">
        <path d="m7.8002186 18.578597c1.315814 0 2.2935594-0.825284 2.2935594-1.935605 0-0.861742-0.510416-1.488163-1.3655294-1.630682v-0.05303c0.6860793-0.208807 1.113636-0.772253 1.113636-1.537878 0-0.961174-0.758996-1.816287-2.0151508-1.816287-1.1732951 0-2.1477266 0.722537-2.1874993 1.789772h0.7954543c0.029829-0.676136 0.6728217-1.073864 1.3787874-1.073864 0.7490528 0 1.2329541 0.454072 1.2329541 1.140152 0 0.715908-0.5601324 1.179923-1.3655298 1.179923h-0.5435604v0.729167h0.5435604c1.0307762 0 1.6041661 0.523674 1.6041661 1.272727 0 0.719223-0.6264202 1.206439-1.4981055 1.206439-0.7855111 0-1.408617-0.404356-1.4583329-1.060606h-0.835227c0.049716 1.067234 0.9910035 1.789772 2.3068174 1.789772z"/>
        <path d="m11.446036 18.485794h4.282196v-0.729166h-3.155302v-0.05303l1.52462-1.630681c1.166667-1.249526 1.511363-1.832859 1.511363-2.585226 0-1.047348-0.848484-1.882575-2.041665-1.882575-1.189868 0-2.094697 0.808711-2.094697 2.001893h0.782197c0-0.772254 0.500473-1.285985 1.285984-1.285985 0.735796 0 1.299242 0.450758 1.299242 1.166667 0 0.62642-0.367897 1.090435-1.153408 1.948863l-2.24053 2.45265z"/>
        <path d="m17.107004 20.394884h0.782197v-2.691287h0.06629c0.172348 0.278409 0.503787 0.888258 1.484848 0.888258 1.272726 0 2.160984-1.020833 2.160984-2.638257 0-1.604166-0.888258-2.624999-2.174242-2.624999-0.994318 0-1.299242 0.609848-1.47159 0.875h-0.0928v-0.808712h-0.755682zm0.768939-4.454544c0-1.140151 0.503788-1.90909 1.458333-1.90909 0.994318 0 1.484848 0.835227 1.484848 1.90909 0 1.087121-0.503788 1.948863-1.484848 1.948863-0.941288 0-1.458333-0.795454-1.458333-1.948863z"/>
        <path d="m23.16569 13.394887h-0.901514l1.617423 2.545453-1.617423 2.545454h0.901514l1.219697-1.975378 1.219696 1.975378h0.901515l-1.643938-2.545454 1.643938-2.545453h-0.901515l-1.219696 2.081438z"/>
    </g>
</svg>
