<?xml version="1.0" encoding="UTF-8" standalone="no"?>
<svg
   xmlns:dc="http://purl.org/dc/elements/1.1/"
   xmlns:cc="http://creativecommons.org/ns#"
   xmlns:rdf="http://www.w3.org/1999/02/22-rdf-syntax-ns#"
   xmlns:svg="http://www.w3.org/2000/svg"
   xmlns="http://www.w3.org/2000/svg"
   xmlns:sodipodi="http://sodipodi.sourceforge.net/DTD/sodipodi-0.dtd"
   xmlns:inkscape="http://www.inkscape.org/namespaces/inkscape"
   width="32"
   height="32"
   version="1.1"
   viewBox="0 0 32 32"
   id="svg40"
   sodipodi:docname="folder.svg"
   inkscape:version="1.0.1 (1.0.1+r73)">
  <sodipodi:namedview
     pagecolor="#ffffff"
     bordercolor="#666666"
     borderopacity="1"
     objecttolerance="10"
     gridtolerance="10"
     guidetolerance="10"
     inkscape:pageopacity="0"
     inkscape:pageshadow="2"
     inkscape:window-width="1366"
     inkscape:window-height="700"
     id="namedview42"
     showgrid="false"
     inkscape:zoom="17.96875"
     inkscape:cx="16"
     inkscape:cy="16"
     inkscape:window-x="0"
     inkscape:window-y="0"
     inkscape:window-maximized="1"
     inkscape:current-layer="svg40" />
  <defs
     id="defs16">
    <style
       id="current-color-scheme"
       type="text/css">.ColorScheme-Highlight {
        color:#006aff;
      }
      .ColorScheme-HighlightedText {
        color:#ffffff;
      }</style>
    <linearGradient
       id="linearGradient1893"
       x2="0"
       y1="43"
       y2="35.797"
       gradientTransform="matrix(.21875 0 0 .27765 2 .061182)"
       gradientUnits="userSpaceOnUse">
      <stop
         stop-opacity=".15686"
         offset="0"
         id="stop3" />
      <stop
         stop-opacity="0"
         offset="1"
         id="stop5" />
    </linearGradient>
    <linearGradient
       id="linearGradient887"
       x1="12"
       x2="12"
       y1="39.413"
       y2="17.414"
       gradientTransform="matrix(.7 0 0 .72727 -6.4 -.66473)"
       gradientUnits="userSpaceOnUse">
      <stop
         stop-opacity=".054902"
         offset="0"
         id="stop8" />
      <stop
         stop-color="#000008"
         stop-opacity="0"
         offset="1"
         id="stop10" />
    </linearGradient>
    <filter
       id="filter883"
       x="-.051818"
       y="-.07125"
       width="1.1036"
       height="1.1425"
       color-interpolation-filters="sRGB">
      <feGaussianBlur
         stdDeviation="0.475"
         id="feGaussianBlur13" />
    </filter>
  </defs>
  <path
     class="ColorScheme-Highlight"
     d="m2 13h28v13.838c0 1.1978-0.97563 2.1622-2.1875 2.1622h-23.625c-1.2119 0-2.1875-0.96432-2.1875-2.1622z"
     fill="currentColor"
     id="path18" />
  <path
     d="m2 13h28v13.838c0 1.1978-0.97563 2.1622-2.1875 2.1622h-23.625c-1.2119 0-2.1875-0.96432-2.1875-2.1622z"
     fill-opacity=".27451"
     stroke-width=".20292"
     id="path20" />
  <metadata
     id="metadata22">
    <rdf:RDF>
      <cc:Work
         rdf:about="">
        <dc:format>image/svg+xml</dc:format>
        <dc:type
           rdf:resource="http://purl.org/dc/dcmitype/StillImage" />
        <dc:title>base_folder</dc:title>
      </cc:Work>
    </rdf:RDF>
  </metadata>
  <!-- Generator: Sketch 49.3 (51167) - http://www.bohemiancoding.com/sketch -->
  <title
     id="title24">base_folder</title>
  <desc
     id="desc26">Created with Sketch.</desc>
  <path
     id="Combined-Shape"
     class="ColorScheme-Highlight"
     d="m16.114 6.7547h11.61c1.2572 0 2.2764 1.0278 2.2764 2.2956v16.654c0 1.2678-1.0192 2.2956-2.2764 2.2956h-23.447c-1.2572 0-2.2764-1.0277-2.2764-2.2956v-19.409c0-1.2678 1.0192-2.2956 2.2764-2.2956h8.878z"
     fill="currentColor" />
  <path
     d="m16.114 6.7547h11.61c1.2572 0 2.2764 1.0278 2.2764 2.2956v16.654c0 1.2678-1.0192 2.2956-2.2764 2.2956h-23.447c-1.2572 0-2.2764-1.0277-2.2764-2.2956v-19.409c0-1.2678 1.0192-2.2956 2.2764-2.2956h8.878z"
     fill-opacity=".15686"
     stroke-width=".2286"
     id="path29" />
  <rect
     x="5"
     y="9.5"
     width="22"
     height="16"
     rx="1.7188"
     fill-opacity=".15686"
     filter="url(#filter883)"
     stroke-width=".17987"
     id="rect31" />
  <rect
     x="5"
     y="9.5"
     width="22"
     height="16"
     rx="1.7187"
     fill="white"
     id="rect33" />
  <path
     id="Rectangle"
     class="ColorScheme-Highlight"
     d="m2 12h28v13.838c0 1.1978-0.97562 2.1622-2.1875 2.1622h-23.625c-1.2119 0-2.1875-0.96432-2.1875-2.1622 0-13.838 0 0-1e-7 -13.838z"
     fill="currentColor" />
  <path
     d="m2 12h28v13.838c0 1.1978-0.97563 2.1622-2.1875 2.1622h-23.625c-1.2119 0-2.1875-0.96432-2.1875-2.1622z"
     fill="url(#linearGradient887)"
     stroke-width=".20292"
     id="path36" />
  <rect
     x="2"
     y="10"
     width="28"
     height="2"
     fill="url(#linearGradient1893)"
     id="rect38" />
</svg>
