<svg version="1.1" viewBox="0 0 32 32" xmlns="http://www.w3.org/2000/svg" xmlns:xlink="http://www.w3.org/1999/xlink">
    <defs>
        <linearGradient id="linearGradient1054" x1="28" x2="28" y1="30" y2="2" gradientUnits="userSpaceOnUse">
            <stop stop-color="#292929" offset="0"/>
            <stop stop-color="#525252" offset="1"/>
        </linearGradient>
        <linearGradient id="linearGradient1062" x1="4.046875" x2="27.953125" y1="9.5467253" y2="9.5467253" gradientUnits="userSpaceOnUse">
            <stop stop-opacity=".05" offset="0"/>
            <stop stop-opacity="0" offset=".55140898"/>
            <stop stop-opacity=".05" offset="1"/>
        </linearGradient>
    </defs>
    <path d="m15.998047 25a9 2.5 0 0 0-1.369141 0.029297h-7.628906v2.470703 0.003906a9 2.5 0 0 0 9 2.496094 9 2.5 0 0 0 9-2.496094 9 2.5 0 0 0 0-0.003906v-2.470703h-7.630859a9 2.5 0 0 0-1.369141-0.029297 9 2.5 0 0 1-0.001953 0z" fill="#292929" stroke-width=".560301"/>
    <path d="m15.998094 25.000003a9 2.5 0 0 0-1.369141 0.0293h-7.6289064v2.4746a9 2.5 0 0 0 9.0000004 2.4961 9 2.5 0 0 0 9-2.496094 9 2.5 0 0 0 0-0.0039v-2.470709h-7.630859a9 2.5 0 0 0-1.369141-0.0293 9 2.5 0 0 1-2e-3 0z" fill-opacity=".27450982" stroke-width=".560301"/>
    <path d="m16 2c-6.0628691 1.382e-4 -11.17302 1.5077082-11.910156 3.5136719h-0.0898438l0.0292969 0.2148437c-0.0189845 0.0903581-0.0287557 0.1809051-0.0292969 0.2714844-2.185e-4 0.2132539 0.0507252 0.4261721 0.1523438 0.6367188l2.8476562 19.863281c0 1.380712 4.029437 2.5 9 2.5s9-1.119288 9-2.5l2.847656-19.865234c0.101308-0.2099028 0.15225-0.4221638 0.152344-0.6347656-4.08e-4 -0.09123-0.010177-0.1824297-0.029297-0.2734375l0.029297-0.2128906h-0.089844c-0.73714-2.0059637-5.847287-3.5135337-11.910156-3.5136719zm-0.050781 2a10 2 0 0 1 0.050781 0 10 2 0 0 1 10 2 10 2 0 0 1-10 2 10 2 0 0 1-10-2 10 2 0 0 1 9.949219-2z" fill="url(#linearGradient1054)" stroke-width=".555039"/>
    <path d="m27.953125 6.351563c-11.302083-29.891927-5.651042-14.945964 0 0zm0 0c-0.546548 2.06481-5.73463 3.648362-11.953125 3.648437-6.2184948-7.5e-5 -11.406577-1.583627-11.953125-3.648437l2.953125 20.148437c0 1.380712 4.029437 2.5 9 2.5s9-1.119288 9-2.5zm-23.90625 0c4.6354167-29.891927 2.3177083-14.945964 0 0z" fill="url(#linearGradient1062)" stroke-width=".555039"/>
    <path d="m16 2a12 4 0 0 0-12 4 12 4 0 0 0 12 4 12 4 0 0 0 12-4 12 4 0 0 0-12-4zm-0.05078 2a10 2 0 0 1 0.05078 0 10 2 0 0 1 10 2 10 2 0 0 1-10 2 10 2 0 0 1-10-2 10 2 0 0 1 9.949219-2z" fill="#fff" fill-opacity=".1" stroke-width=".993301"/>
    <ellipse cx="16" cy="6" rx="10" ry="2" fill="#232323" stroke-width=".641172"/>
</svg>
