<svg version="1.1" viewBox="0 0 16 16" xmlns="http://www.w3.org/2000/svg">
 <defs>
  <style id="current-color-scheme" type="text/css">.ColorScheme-Text {
        color:#232629;
      }</style>
 </defs>
 <g transform="translate(-4.243478 -4.215652)" fill="currentColor">
  <path class="ColorScheme-Text" d="m15.24348 6.215652h1c0.552285 0 1 0.4477152 1 1v1h-2zm-1 0v3h3v6c0 0.552285-0.447715 1-1 1h-6c-0.5522844 0-0.9999997-0.447715-0.9999997-1v-8c0-0.5522848 0.4477153-1 0.9999997-1z"/>
  <path class="ColorScheme-Text" d="m15.24348 17.21565c0 0.552285-0.447715 1-1 1h-6c-0.5522848 0-1-0.447715-1-1v-8c0-0.5522847 0.4477152-1 1-1v8c0 0.552285 0.4477153 1 1 1z"/>
 </g>
</svg>
