<svg version="1.1" viewBox="0 0 16 16" xmlns="http://www.w3.org/2000/svg">
 <defs>
  <style id="current-color-scheme" type="text/css">.ColorScheme-Text {
        color:#232629;
      }</style>
 </defs>
 <path class="ColorScheme-Text" d="m2.896484 3.5c-0.4945834 0-0.8964844 0.4107687-0.8964844 0.9179688v7.164062c0 0.5072 0.401901 0.917969 0.8964844 0.917969h10.20703c0.494583 0 0.896484-0.410769 0.896484-0.917969v-7.164062c0-0.5072001-0.401901-0.9179688-0.896484-0.9179688h-10.20703zm7.580078 1.845703c0.614602 0 1.115235 0.5106523 1.115235 1.136719 0 0.6260664-0.500634 1.136719-1.115235 1.136719-0.6145257 0-1.115234-0.5107783-1.115234-1.136719 0-0.6261923 0.500565-1.136719 1.115234-1.136719zm0 0.6289063c-0.27407 0-0.4980464 0.2281812-0.4980464 0.5078125 0 0.2796315 0.2239764 0.5078125 0.4980464 0.5078125 0.274117 0 0.496094-0.2282276 0.496094-0.5078125 0-0.279678-0.222068-0.5078125-0.496094-0.5078125zm-4.759765 0.7207031h0.0019531c0.1008801 0.00508 0.2006892 0.0499511 0.2695312 0.1210937l0.0742188 0.0761719h0.0097656l1.662109 1.527344 0.6875-0.703125c0.1442449-0.1467329 0.3871217-0.1542518 0.5410156-0.0195313l3.003906 2.699218c0.163867 0.148025 0.180837 0.40363 0.037109 0.570313-0.07484 0.08674-0.186226 0.138672-0.298828 0.138672-0.09428 0-0.188055-0.03551-0.261719-0.101563l-2.724609-2.445312-1.669922 1.703125c-0.1517079 0.154742-0.4107914 0.154742-0.5625 0-0.1550238-0.158125-0.1550236-0.4121889 0-0.5703128l0.6816407-0.6953124-1.472656-1.339844-1.662109 1.542969c-0.1572061 0.1469585-0.4174092 0.1341414-0.5625-0.0273438-0.1479323-0.164645-0.1367022-0.4191644 0.0253907-0.5703125l1.941406-1.800781c0.07429-0.069204 0.1757836-0.1073827 0.2792969-0.1054687z" fill="currentColor"/>
</svg>
