<svg version="1.1" viewBox="0 0 16 16" xmlns="http://www.w3.org/2000/svg">
 <defs>
  <style id="current-color-scheme" type="text/css">.ColorScheme-Text {
        color:#232629;
      }</style>
 </defs>
 <path class="ColorScheme-Text" d="m13.44597 12.74453 0.01323 0.01102c-0.920593 0.484718-1.997307 0.728907-3.230145 0.732568-0.03484 0.0078-0.07109 0.01188-0.108308 0.01188h-5.370234c-2.068888 2.5e-5 -3.750513-1.694461-3.750513-3.77624 0-1.842854 1.321495-3.403805 3.101386-3.71567 0.2169647-1.97879 1.88804-3.508089 3.893451-3.508089 2.004648 0 3.67536 1.528305 3.893233 3.506179 1.785837 0.3072084 3.111931 1.869022 3.111931 3.717487 0 1.140603-0.504575 2.208905-1.384129 2.929851-0.05181 0.04248-0.109608 0.07269-0.169901 0.09101z" fill="currentColor"/>
</svg>
