<svg version="1.1" viewBox="0 0 16 16" xmlns="http://www.w3.org/2000/svg">
 <defs>
  <style id="current-color-scheme" type="text/css">.ColorScheme-Text {
        color:#232629;
      }</style>
 </defs>
 <path id="Shape" class="ColorScheme-Text" d="m5.830703 4.347767v5.732458c-0.3324671-0.1968511-0.7220936-0.3123761-1.140562-0.3123761-1.209258 0-2.190141 0.9475151-2.190141 2.115695 0 1.168688 0.9806207 2.116456 2.190141 2.116456 1.208733 0 2.189092-0.946755 2.189354-2.115949v-5.701561l5.571709-1.547692v3.619813c-0.332729-0.196851-0.722094-0.312376-1.140824-0.312376-1.209519 0-2.190402 0.947262-2.190402 2.114682 0 1.168687 0.9803585 2.116456 2.190402 2.116456 1.139251 0 2.075035-0.842124 2.179129-1.917325l0.010491-5.912599v-1.837398c0-0.2794841-0.232812-0.5060507-0.52-0.5060507-0.04827 0-0.09632 0.00654-0.142742 0.01944l-6.629299 1.841716c-0.2232924 0.062034-0.3772566 0.2606273-0.3772566 0.4866109z" fill="currentColor"/>
</svg>
