<svg version="1.1" viewBox="0 0 16 16" xmlns="http://www.w3.org/2000/svg">
 <defs>
  <style id="current-color-scheme" type="text/css">.ColorScheme-Text {
        color:#232629;
      }</style>
 </defs>
 <path id="Shape" class="ColorScheme-Text" d="m8.003428 2.000019c-0.3394974 0-0.5670025 0.2319269-0.5670025 0.5358589v9.609738l-2.935716-2.853449c-0.2438019-0.2287497-0.6043462-0.2197545-0.8187603-0.011164l-0.00219 0.0022c-0.2414071 0.23429-0.2387237 0.527563 0.00219 0.7546683l3.920855 3.804598c0.2108601 0.210047 0.5839331 0.211484 0.7990577-0.0045l0.030648-0.03126 0.00657-0.0045 3.848612-3.733151 0.0022-0.0067 0.03722-0.03349c0.228243-0.2154103 0.235049-0.5134693-0.0066-0.7479703-0.212757-0.2064858-0.588366-0.205102-0.801247 0l-2.953213 2.864718v-9.609738c-5.196e-4 -0.3125155-0.2221378-0.5358589-0.5626241-0.5358589z" fill="currentColor"/>
</svg>
