<?xml version="1.0" encoding="UTF-8" standalone="no"?>
<svg
   xmlns:dc="http://purl.org/dc/elements/1.1/"
   xmlns:cc="http://creativecommons.org/ns#"
   xmlns:rdf="http://www.w3.org/1999/02/22-rdf-syntax-ns#"
   xmlns:svg="http://www.w3.org/2000/svg"
   xmlns="http://www.w3.org/2000/svg"
   xmlns:sodipodi="http://sodipodi.sourceforge.net/DTD/sodipodi-0.dtd"
   xmlns:inkscape="http://www.inkscape.org/namespaces/inkscape"
   version="1.1"
   viewBox="0 0 16 16"
   id="svg6"
   sodipodi:docname="folder-videos.svg"
   inkscape:version="1.0.1 (1.0.1+r73)">
  <metadata
     id="metadata10">
    <rdf:RDF>
      <cc:Work
         rdf:about="">
        <dc:format>image/svg+xml</dc:format>
        <dc:type
           rdf:resource="http://purl.org/dc/dcmitype/StillImage" />
      </cc:Work>
    </rdf:RDF>
  </metadata>
  <sodipodi:namedview
     pagecolor="#ffffff"
     bordercolor="#666666"
     borderopacity="1"
     objecttolerance="10"
     gridtolerance="10"
     guidetolerance="10"
     inkscape:pageopacity="0"
     inkscape:pageshadow="2"
     inkscape:window-width="1366"
     inkscape:window-height="700"
     id="namedview8"
     showgrid="true"
     showguides="false"
     inkscape:zoom="35.9375"
     inkscape:cx="8"
     inkscape:cy="8"
     inkscape:window-x="0"
     inkscape:window-y="0"
     inkscape:window-maximized="1"
     inkscape:current-layer="svg6"
     inkscape:document-rotation="0">
    <inkscape:grid
       type="xygrid"
       id="grid835" />
  </sodipodi:namedview>
  <defs
     id="defs3">
    <style
       id="current-color-scheme"
       type="text/css">.ColorScheme-Text {
        color:#232629;
      }</style>
  </defs>
  <path
     id="Shape"
     class="ColorScheme-Text"
     d="M 3.2,2 C 2.6016973,2 2,2.5708117 2,3.2 v 9.6 C 2,13.429189 2.6016973,14 3.2,14 h 9.6 C 13.398302,14 14,13.429186 14,12.8 V 3.2 C 14,2.5708117 13.398302,2 12.8,2 Z M 5,3 h 6 V 7.5 H 5 Z M 3,3 H 4 V 5 H 3 Z m 9,0 h 1 V 5 H 12 Z M 3,7 H 4 V 9 H 3 Z m 9,0 h 1 V 9 H 12 Z M 5,8.5 h 6 V 13 H 5 Z M 3,11 h 1 v 2 H 3 Z m 9,0 h 1 v 2 h -1 z"
     fill="currentColor"
     sodipodi:nodetypes="ssssssssscccccccccccccccccccccccccccccccccccccccc"
     style="stroke-width:1.25336" />
</svg>
