<svg version="1.1" viewBox="0 0 16 16" xmlns="http://www.w3.org/2000/svg">
 <defs>
  <style id="current-color-scheme" type="text/css">.ColorScheme-Text {
        color:#232629;
      }</style>
 </defs>
 <path class="ColorScheme-Text" d="m2.896484 3.5c-0.4945834 0-0.8964844 0.4107687-0.8964844 0.9179688v7.164062c0 0.5072 0.401901 0.917969 0.8964844 0.917969h10.20703c0.494583 0 0.896484-0.410769 0.896484-0.917969v-7.164062c0-0.5072001-0.401901-0.9179688-0.896484-0.9179688zm7.580078 1.845703c0.614602 0 1.115235 0.5106523 1.115235 1.136719 0 0.6260664-0.500634 1.136719-1.115235 1.136719-0.6145257 0-1.115234-0.5107783-1.115234-1.136719 0-0.6261923 0.500565-1.136719 1.115234-1.136719zm-4.759765 1.349609h0.00195c0.1008801 0.00508 0.2006892 0.049951 0.2695312 0.1210937l0.074219 0.076172h0.00977l1.662109 1.527344 0.6875-0.703125c0.1442434-0.146733 0.3871202-0.1542519 0.5410141-0.0195314l3.003906 2.699218c0.163867 0.148025 0.180837 0.40363 0.03711 0.570313-0.07484 0.08674-0.186226 0.138672-0.298828 0.138672-0.09428 0-0.188055-0.03551-0.261719-0.101563l-2.72461-2.445312-1.669922 1.703125c-0.1517079 0.154742-0.4107914 0.154742-0.5625 0-0.1550238-0.158125-0.1550236-0.4121892 0-0.5703131l0.6816407-0.6953124-1.472656-1.339844-1.662109 1.542969c-0.1572061 0.1469585-0.4174092 0.1341414-0.5625-0.0273438-0.1479323-0.164645-0.1367022-0.4191644 0.0253907-0.5703125l1.941406-1.800781c0.07429-0.069204 0.1757836-0.1073827 0.2792973-0.1054688z" fill="currentColor"/>
</svg>
