<svg version="1.1" viewBox="0 0 16 16" xmlns="http://www.w3.org/2000/svg">
 <defs>
  <style id="current-color-scheme" type="text/css">.ColorScheme-Text {
        color:#232629;
      }</style>
 </defs>
 <path class="ColorScheme-Text" d="m2.896484 3.5c-0.4945834 0-0.8964844 0.4107687-0.8964844 0.9179688v7.164062c0 0.5072 0.401901 0.917969 0.8964844 0.917969h10.20703c0.494583 0 0.896484-0.410769 0.896484-0.917969v-7.164062c0-0.5072001-0.401901-0.9179688-0.896484-0.9179688zm8.103516 1.5c0.614602 0 1 0.3739333 1 1 0 0.6260664-0.385399 1-1 1-0.614526 0-1-0.3740593-1-1 0-0.6261923 0.385331-1 1-1zm-5.523438 1.5a0.50005 0.50005 0 0 1 0.3769531 0.1464844l1.646484 1.646484 0.646484-0.6464844a0.50005 0.50005 0 0 1 0.707032 0l3 3a0.5 0.5 0 0 1 0 0.707032 0.5 0.5 0 0 1-0.707032 0l-2.646484-2.646485-1.646484 1.646485a0.50005 0.50005 0 0 1-0.7070312-0.7070316l0.6464844-0.6464844-1.292969-1.292969-1.646484 1.646484a0.5 0.5 0 0 1-0.7070312 0 0.5 0.5 0 0 1 0-0.7070312l2-2a0.50005 0.50005 0 0 1 0.3300781-0.1464844z" fill="currentColor"/>
</svg>
