<svg version="1.1" viewBox="0 0 16 16" xmlns="http://www.w3.org/2000/svg">
 <defs>
  <style id="current-color-scheme" type="text/css">.ColorScheme-Text {
        color:#232629;
      }</style>
 </defs>
 <path id="Shape" class="ColorScheme-Text" d="m2.902344 2.5c-0.4985856 0-0.9023438 0.3904638-0.9023438 0.8710938v9.257812c0 0.480631 0.4037582 0.871094 0.9023438 0.871094h10.19531c0.498585 0 0.902344-0.390465 0.902344-0.871094v-9.257812c0-0.48063-0.403759-0.8710938-0.902344-0.8710938h-10.19531zm2.847656 1.378906h4.5v3.759766h-4.5v-3.509766-0.25zm-2.400391 0.0136719h1.300781v2.128906h-1.300781v-1.878906-0.25zm8 0.0742188h1.300782v2.130859h-1.300782v-1.880859-0.25zm-8 3.171875h1.300781v2.128906h-1.300781v-1.878906-0.25zm8 0h1.300782v2.128906h-1.300782v-1.878906-0.25zm-5.599609 1.222656h4.5v3.759766h-4.5v-3.509766-0.25zm-2.400391 1.824219h1.300781v2.128906h-1.300781v-1.878906-0.25zm8 0.074219h1.300782v2.128906h-1.300782v-1.878906-0.25z" fill="currentColor"/>
</svg>
