<svg version="1.1" viewBox="0 0 32 32" xmlns="http://www.w3.org/2000/svg" xmlns:xlink="http://www.w3.org/1999/xlink">
    <defs>
        <linearGradient id="linearGradient1380-6">
            <stop stop-color="#494949" offset="0"/>
            <stop stop-color="#9d9d9d" offset="1"/>
        </linearGradient>
        <radialGradient id="radialGradient1157" cx="16" cy="16" r="13" gradientTransform="matrix(.21875 0 0 .27765 -30.198139 -4.1058801)" gradientUnits="userSpaceOnUse">
            <stop stop-opacity="0" offset="0"/>
            <stop stop-opacity=".00392157" offset=".85000002"/>
            <stop stop-opacity=".15686" offset="1"/>
        </radialGradient>
        <linearGradient id="linearGradient1382" x1="30" x2="30" y1="30" y2="2" gradientUnits="userSpaceOnUse" xlink:href="#linearGradient1380-6"/>
        <linearGradient id="linearGradient1414" x1="-3.7534633" x2="-3.7534633" y1="27.673216" y2="4.549891" gradientUnits="userSpaceOnUse">
            <stop stop-color="#b2b2b2" offset="0"/>
            <stop stop-color="#e5e5e5" offset="1"/>
        </linearGradient>
    </defs>
    <circle cx="16" cy="17" r="14" fill="url(#linearGradient1382)"/>
    <circle cx="16" cy="17" r="14" fill-opacity=".27450982"/>
    <circle cx="16" cy="16" r="14" fill="url(#linearGradient1382)"/>
    <circle cx="16" cy="16" r="13" fill-opacity=".15686275"/>
    <circle cx="16" cy="16" r="13" fill="url(#radialGradient1157)"/>
    <g transform="matrix(.95142025 0 0 .95142026 30.571121 1.6711415)" fill-opacity=".15686275">
        <path transform="matrix(1.0510602 0 0 1.0510602 -32.13209 -.70540993)" d="m15.445312 5-0.365234 2.046875a8.9999993 8.9999996 0 0 0-2.761719 0.7402344l-1.339843-1.5898438c-0.319742 0.1846029-0.639244 0.36813-0.958985 0.5527344l0.707031 1.9570312a8.9999993 8.9999996 0 0 0-2.0195308 2.0214848l-1.9570312-0.707032c-0.1846031 0.319742-0.3700853 0.639242-0.5546875 0.958985l1.5898437 1.339843a8.9999993 8.9999996 0 0 0-0.7382812 2.759766l-2.046875 0.367188v1.107422l2.046875 0.365234a8.9999993 8.9999996 0 0 0 0.7402344 2.761719l-1.5917969 1.339843 0.5546875 0.958985 1.9570312-0.707031a8.9999993 8.9999996 0 0 0 2.0214848 2.019531l-0.708985 1.957031 0.958985 0.554688 1.341796-1.589844a8.9999993 8.9999996 0 0 0 2.759766 0.736328l0.365234 2.050781h1.109376l0.365234-2.048828a8.9999993 8.9999996 0 0 0 2.759766-0.740234l1.341796 1.591797c0.319743-0.184606 0.639241-0.370085 0.958985-0.554688l-0.708985-1.957031a8.9999993 8.9999996 0 0 0 2.021485-2.019531l1.957031 0.707031c0.184603-0.319744 0.370083-0.639242 0.554688-0.958985l-1.591797-1.339843a8.9999993 8.9999996 0 0 0 0.738281-2.761719l2.048828-0.365234v-1.107422l-2.046875-0.367188a8.9999993 8.9999996 0 0 0-0.738281-2.759766l1.589844-1.339843-0.554688-0.958985-1.957031 0.707032a8.9999993 8.9999996 0 0 0-2.019531-2.0214848l0.707031-1.9570312-0.958985-0.5527344-1.339843 1.5898438a8.9999993 8.9999996 0 0 0-2.761719-0.7382813l-0.365234-2.0488281zm-0.445312 4.0722656v2.5410154a4.4999999 4.4999998 0 0 0-3.5 4.386719 4.4999999 4.4999998 0 0 0 0.693359 2.398438l-1.794921 1.796874a6.9999996 6.9999994 0 0 1-1.398438-4.195312 6.9999996 6.9999994 0 0 1 6-6.9277344zm2 0a6.9999996 6.9999994 0 0 1 6 6.9277344 6.9999996 6.9999994 0 0 1-1.392578 4.191406l-1.798828-1.798828a4.4999999 4.4999998 0 0 0 0.691406-2.392578 4.4999999 4.4999998 0 0 0-3.5-4.386719zm-1 4.4277344a2.5 2.5000001 0 0 1 2.5 2.5 2.5 2.5000001 0 0 1-2.5 2.5 2.5 2.5000001 0 0 1-2.5-2.5 2.5 2.5000001 0 0 1 2.5-2.5zm2.396484 6.308594 1.796875 1.796875a6.9999996 6.9999994 0 0 1-4.193359 1.394531 6.9999996 6.9999994 0 0 1-4.1875-1.390625l1.796875-1.796875a4.4999999 4.4999998 0 0 0 2.390625 0.6875 4.4999999 4.4999998 0 0 0 2.396484-0.691406z" fill-opacity=".15686275" stroke-width=".692378"/>
    </g>
    <g transform="matrix(.95142025 0 0 .95142026 30.571121 .6711413)" fill="url(#linearGradient1414)">
        <path transform="matrix(1.0510602 0 0 1.0510602 -32.13209 -.70540993)" d="m15.445312 5-0.365234 2.046875a8.9999993 8.9999996 0 0 0-2.761719 0.7402344l-1.339843-1.5898438c-0.319742 0.1846029-0.639244 0.36813-0.958985 0.5527344l0.707031 1.9570312a8.9999993 8.9999996 0 0 0-2.0195308 2.0214848l-1.9570312-0.707032c-0.1846031 0.319742-0.3700853 0.639242-0.5546875 0.958985l1.5898437 1.339843a8.9999993 8.9999996 0 0 0-0.7382812 2.759766l-2.046875 0.367188v1.107422l2.046875 0.365234a8.9999993 8.9999996 0 0 0 0.7402344 2.761719l-1.5917969 1.339843 0.5546875 0.958985 1.9570312-0.707031a8.9999993 8.9999996 0 0 0 2.0214848 2.019531l-0.708985 1.957031 0.958985 0.554688 1.341796-1.589844a8.9999993 8.9999996 0 0 0 2.759766 0.736328l0.365234 2.050781h1.109376l0.365234-2.048828a8.9999993 8.9999996 0 0 0 2.759766-0.740234l1.341796 1.591797c0.319743-0.184606 0.639241-0.370085 0.958985-0.554688l-0.708985-1.957031a8.9999993 8.9999996 0 0 0 2.021485-2.019531l1.957031 0.707031c0.184603-0.319744 0.370083-0.639242 0.554688-0.958985l-1.591797-1.339843a8.9999993 8.9999996 0 0 0 0.738281-2.761719l2.048828-0.365234v-1.107422l-2.046875-0.367188a8.9999993 8.9999996 0 0 0-0.738281-2.759766l1.589844-1.339843-0.554688-0.958985-1.957031 0.707032a8.9999993 8.9999996 0 0 0-2.019531-2.0214848l0.707031-1.9570312-0.958985-0.5527344-1.339843 1.5898438a8.9999993 8.9999996 0 0 0-2.761719-0.7382813l-0.365234-2.0488281zm-0.445312 4.0722656v2.5410154a4.4999999 4.4999998 0 0 0-3.5 4.386719 4.4999999 4.4999998 0 0 0 0.693359 2.398438l-1.794921 1.796874a6.9999996 6.9999994 0 0 1-1.398438-4.195312 6.9999996 6.9999994 0 0 1 6-6.9277344zm2 0a6.9999996 6.9999994 0 0 1 6 6.9277344 6.9999996 6.9999994 0 0 1-1.392578 4.191406l-1.798828-1.798828a4.4999999 4.4999998 0 0 0 0.691406-2.392578 4.4999999 4.4999998 0 0 0-3.5-4.386719zm-1 4.4277344a2.5 2.5000001 0 0 1 2.5 2.5 2.5 2.5000001 0 0 1-2.5 2.5 2.5 2.5000001 0 0 1-2.5-2.5 2.5 2.5000001 0 0 1 2.5-2.5zm2.396484 6.308594 1.796875 1.796875a6.9999996 6.9999994 0 0 1-4.193359 1.394531 6.9999996 6.9999994 0 0 1-4.1875-1.390625l1.796875-1.796875a4.4999999 4.4999998 0 0 0 2.390625 0.6875 4.4999999 4.4999998 0 0 0 2.396484-0.691406z" fill="url(#linearGradient1414)" stroke-width=".692378"/>
    </g>
</svg>
