<svg version="1.1" viewBox="0 0 64 64" xmlns="http://www.w3.org/2000/svg">
    <g transform="translate(-513.57143,-423.798)">
        <rect x="517.57141" y="427.798" width="56" height="56" rx="2" ry="2" fill="#ff7315" stroke-width="2.00048"/>
        <g fill="#fff" stroke-width="1.99999" aria-label="64px">
            <path d="m528.95979 460.96844c2.74431 0.0332 4.53408-2.03503 4.53408-4.56059 0-2.62499-1.94223-4.50756-4.26893-4.50756-1.39867 0-2.59847 0.68277-3.34089 1.80303h-0.10606c7e-3 -3.33427 1.29261-5.24998 3.39392-5.24998 1.43182 0 2.29356 0.90151 2.59848 2.14772h1.61742c-0.33144-2.13447-1.9356-3.60605-4.2159-3.60605-3.05586 0-4.9318 2.70453-4.9318 7.53027 0 5.01798 2.49242 6.41665 4.71968 6.44316zm0-1.45833c-1.70359 0-2.9498-1.4517-2.94317-3.07574 7e-3 -1.62405 1.3125-3.07575 2.9962-3.07575 1.66382 0 2.89014 1.36553 2.89014 3.04923 0 1.72348-1.27935 3.10226-2.94317 3.10226z"/>
            <path d="m535.77415 457.99876h6.39013v2.78408h1.56439v-2.78408h1.85605v-1.45833h-1.85605v-9.3333h-1.98863l-5.96589 9.43936zm1.77651-1.45833v-0.10606l4.50756-7.13255h0.10606v7.23861z"/>
            <path d="m548.10363 464.601h1.56439v-5.38255h0.13257c0.3447 0.55681 1.00757 1.77651 2.96969 1.77651 2.54544 0 4.32195-2.04166 4.32195-5.2765 0-3.20832-1.77651-5.24998-4.34847-5.24998-1.98863 0-2.59847 1.21969-2.94317 1.74999h-0.1856v-1.61741h-1.51136zm1.53787-8.90905c0-2.2803 1.00757-3.81817 2.91666-3.81817 1.98863 0 2.96968 1.67045 2.96968 3.81817 0 2.17423-1.00757 3.89771-2.96968 3.89771-1.88257 0-2.91666-1.5909-2.91666-3.89771z"/>
            <path d="m560.22096 450.60106h-1.80303l3.23484 5.09089-3.23484 5.09089h1.80303l2.43938-3.95075 2.43939 3.95075h1.80302l-3.28787-5.09089 3.28787-5.09089h-1.80302l-2.43939 4.16286z"/>
        </g>
    </g>
</svg>
