<?xml version="1.0" encoding="UTF-8" standalone="no"?>
<svg
   xmlns:dc="http://purl.org/dc/elements/1.1/"
   xmlns:cc="http://creativecommons.org/ns#"
   xmlns:rdf="http://www.w3.org/1999/02/22-rdf-syntax-ns#"
   xmlns:svg="http://www.w3.org/2000/svg"
   xmlns="http://www.w3.org/2000/svg"
   xmlns:sodipodi="http://sodipodi.sourceforge.net/DTD/sodipodi-0.dtd"
   xmlns:inkscape="http://www.inkscape.org/namespaces/inkscape"
   version="1.1"
   viewBox="0 0 32 32"
   id="svg63"
   sodipodi:docname="system-file-manager.svg"
   inkscape:version="0.92.3 (2405546, 2018-03-11)">
  <metadata
     id="metadata67">
    <rdf:RDF>
      <cc:Work
         rdf:about="">
        <dc:format>image/svg+xml</dc:format>
        <dc:type
           rdf:resource="http://purl.org/dc/dcmitype/StillImage" />
      </cc:Work>
    </rdf:RDF>
  </metadata>
  <sodipodi:namedview
     pagecolor="#ffffff"
     bordercolor="#666666"
     borderopacity="1"
     objecttolerance="10"
     gridtolerance="10"
     guidetolerance="10"
     inkscape:pageopacity="0"
     inkscape:pageshadow="2"
     inkscape:window-width="1366"
     inkscape:window-height="700"
     id="namedview65"
     showgrid="false"
     inkscape:zoom="7.375"
     inkscape:cx="-24.20339"
     inkscape:cy="16"
     inkscape:window-x="0"
     inkscape:window-y="0"
     inkscape:window-maximized="1"
     inkscape:current-layer="svg63" />
  <title
     id="title2">base_folder</title>
  <desc
     id="desc4">Created with Sketch.</desc>
  <defs
     id="defs29">
    <style
       type="text/css"
       id="current-color-scheme">
      .ColorScheme-Highlight {
        color:#006aff;
      }
      .ColorScheme-HighlightText {
        color:#ffffff;
      }
      </style>
    <linearGradient
       id="linearGradient1893"
       x2="0"
       y1="43"
       y2="35.796612"
       gradientTransform="matrix(.20312499 0 0 .27764705 2.6722238 -.60569648)"
       gradientUnits="userSpaceOnUse">
      <stop
         stop-opacity=".15686275"
         offset="0"
         id="stop11" />
      <stop
         stop-opacity="0"
         offset="1"
         id="stop13" />
    </linearGradient>
    <linearGradient
       id="linearGradient887"
       x1="12"
       x2="12"
       y1="39.413284"
       y2="17.414"
       gradientTransform="matrix(.64999998 0 0 .72727275 -5.1277774 -1.3316048)"
       gradientUnits="userSpaceOnUse">
      <stop
         stop-opacity=".05490196"
         offset="0"
         id="stop16" />
      <stop
         stop-color="#000008"
         stop-opacity="0"
         offset="1"
         id="stop18" />
    </linearGradient>
    <linearGradient
       id="linearGradient1085"
       x1="20.011259"
       x2="20.028978"
       y1="27.975254"
       y2="20.02306"
       gradientTransform="matrix(.75000003 0 0 .75 -2.0000001 -1.9999997)"
       gradientUnits="userSpaceOnUse">
      <stop
         stop-opacity=".05490196"
         offset="0"
         id="stop21" />
      <stop
         stop-opacity="0"
         offset="1"
         id="stop23" />
    </linearGradient>
    <filter
       id="filter982"
       x="-.051924399"
       y="-.071050155"
       width="1.1038488"
       height="1.1421003"
       color-interpolation-filters="sRGB">
      <feGaussianBlur
         stdDeviation="0.46345782"
         id="feGaussianBlur26" />
    </filter>
  </defs>
  <path
     class="ColorScheme-Highlight"
     d="m 2.672,12.333 h 26 v 13.837838 c 0,1.197839 -0.905938,2.162162 -2.03125,2.162162 H 4.70325 C 3.577938,28.333 2.672,27.368677 2.672,26.170838 Z"
     id="path6"
     style="fill:currentColor"
     inkscape:connector-curvature="0" />
  <path
     d="m2.672 12.333h26v13.837838c0 1.197839-0.905938 2.162162-2.03125 2.162162h-21.9375c-1.125312 0-2.03125-0.964323-2.03125-2.162162v-13.837838z"
     fill-opacity=".27450982"
     stroke-width=".19553845"
     id="path8" />
  <path
     id="Combined-Shape"
     class="ColorScheme-Highlight"
     d="m 15.777913,7.8582767 h 10.780488 c 1.16743,0 2.113821,0.9421248 2.113821,2.1042949 V 25.228847 c 0,1.162174 -0.946391,2.104275 -2.113821,2.104275 H 4.786043 c -1.1674309,0 -2.1138209,-0.942101 -2.1138209,-2.104275 V 7.4374176 c 0,-1.162171 0.94639,-2.1042959 2.1138209,-2.1042959 h 8.243901 z"
     inkscape:connector-curvature="0"
     style="fill:currentColor" />
  <path
     d="m15.777913 7.8582767h10.780488c1.16743 0 2.113821 0.9421248 2.113821 2.1042949v15.266275c0 1.162174-0.946391 2.104275-2.113821 2.104275h-21.772358c-1.1674314 0-2.1138209-0.942101-2.1138209-2.104275v-17.791429c0-1.162171 0.9463895-2.1042959 2.1138209-2.1042959h8.2439008z"
     fill-opacity=".15686275"
     stroke-width=".2109053"
     id="path32" />
  <rect
     transform="matrix(.99921434 -.03963208 .03950864 .99921923 0 0)"
     x="4.8290277"
     y="10.139355"
     width="20.973665"
     height="14.962804"
     rx="1.6385676"
     fill-opacity=".15686275"
     filter="url(#filter982)"
     stroke-width=".16983581"
     id="rect34" />
  <rect
     transform="matrix(0.99921434,-0.03963208,0.03950864,0.99921923,0,0)"
     x="4.8290277"
     y="10.139355"
     width="20.973665"
     height="14.962804"
     rx="1.6385676"
     id="rect36"
     class="ColorScheme-HighlightText"
     style="fill:currentColor" />
  <g
     id="g43">
    <path
       id="Rectangle"
       class="ColorScheme-Highlight"
       d="M 2.6722223,11.333122 H 28.672222 V 25.17096 c 0,1.197839 -0.905938,2.162162 -2.03125,2.162162 H 4.7034723 c -1.1253122,0 -2.0312498,-0.964323 -2.0312498,-2.162162 z"
       inkscape:connector-curvature="0"
       style="color:#006aff;fill:currentColor" />
    <rect
       x="2.672224"
       y="9.3331223"
       width="26"
       height="2"
       id="rect39"
       style="fill:url(#linearGradient1893)" />
    <path
       d="M 2.6722223,11.333122 H 28.672222 V 25.17096 c 0,1.197839 -0.905938,2.162162 -2.03125,2.162162 H 4.7034723 c -1.1253125,0 -2.0312501,-0.964323 -2.0312501,-2.162162 z"
       id="path41"
       inkscape:connector-curvature="0"
       style="fill:url(#linearGradient887);stroke-width:0.19553845" />
  </g>
  <rect
     x="17.5"
     y="16"
     width="1"
     height="7"
     rx=".5"
     ry=".56875038"
     fill-opacity=".15686275"
     id="rect45" />
  <rect
     x="17.5"
     y="15.000332"
     width="1"
     height="7"
     rx="0.5"
     ry="0.56875038"
     id="rect47"
     class="ColorScheme-HighlightText"
     style="fill:currentColor" />
  <rect
     x="13.5"
     y="16"
     width="1"
     height="10"
     rx=".5"
     ry=".56250095"
     fill-opacity=".15686275"
     id="rect49" />
  <rect
     x="13.5"
     y="15"
     width="1"
     height="10"
     rx="0.5"
     ry="0.56250095"
     id="rect51"
     class="ColorScheme-HighlightText"
     style="fill:currentColor" />
  <circle
     cx="16"
     cy="17"
     r="3"
     fill-opacity=".15686275"
     id="circle53" />
  <g
     id="g61">
    <circle
       cx="16"
       cy="16"
       r="3"
       id="circle55"
       style="fill:currentColor"
       class="ColorScheme-HighlightText" />
    <circle
       cx="16"
       cy="16"
       r="3"
       id="circle57"
       style="fill:url(#linearGradient1085)" />
    <circle
       class="ColorScheme-Highlight"
       cx="16"
       cy="16"
       r="1"
       id="circle59"
       style="color:#006aff;fill:currentColor" />
  </g>
</svg>
