<svg version="1.1" viewBox="0 0 48 48" xmlns="http://www.w3.org/2000/svg">
    <defs>
        <style id="current-color-scheme" type="text/css">.ColorScheme-Highlight {
    color:#006aff;
    }
    .ColorScheme-HighlightedText {
    color:#ffffff;
    }</style>
        <linearGradient id="linearGradient851" x1="40" x2="40" y1="44" y2="4" gradientUnits="userSpaceOnUse">
            <stop stop-color="#fff" stop-opacity=".94901961" offset="0"/>
            <stop stop-color="#fff" offset="1"/>
        </linearGradient>
    </defs>
    <g stroke-width="1.42892">
        <rect class="ColorScheme-Highlight" x="8" y="4" width="32" height="41" rx="2.8571429" ry="2.8571429" fill="currentColor"/>
        <path d="m 8,41.142578 v 1 C 8,43.725435 9.2745646,45 10.857422,45 H 37.142578 C 38.725435,45 40,43.725435 40,42.142578 v -1 C 40,42.725435 38.725435,44 37.142578,44 H 10.857422 C 9.2745646,44 8,42.725435 8,41.142578 Z" fill="#fff" fill-opacity=".95"/>
        <rect x="8" y="4" width="32" height="40" rx="2.8571429" ry="2.8571429" fill="url(#linearGradient851)"/>
        <path d="m 8,41.142578 v 1 C 8,43.725435 9.274565,45 10.857422,45 H 37.142578 C 38.725435,45 40,43.725435 40,42.142578 v -1 C 40,42.725435 38.725435,44 37.142578,44 H 10.857422 C 9.274565,44 8,42.725435 8,41.142578 Z" fill-opacity=".16"/>
    </g>
    <rect x="14" y="11" width="20" height="1.9999999" rx="1" ry=".99999994"/>
    <rect x="14" y="17" width="20" height="1.9999999" rx="1" ry=".99999994"/>
    <rect x="14" y="23" width="20" height="1.9999999" rx="1" ry=".99999994"/>
    <rect x="14" y="29" width="20" height="1.9999999" rx="1" ry=".99999994"/>
    <rect x="14" y="35" width="20" height="1.9999999" rx="1" ry=".99999994"/>
</svg>
