<svg version="1.1" viewBox="0 0 48 48" xmlns="http://www.w3.org/2000/svg">
    <defs>
        <style id="current-color-scheme" type="text/css">.ColorScheme-Highlight {
    color:#006aff;
    }
    .ColorScheme-HighlightedText {
    color:#ffffff;
    }</style>
        <linearGradient id="linearGradient879" x1="40" x2="40" y1="44" y2="4" gradientUnits="userSpaceOnUse">
            <stop stop-color="#222" offset="0"/>
            <stop stop-color="#242424" offset="1"/>
        </linearGradient>
    </defs>
    <rect x="8" y="5" width="32" height="40" rx="3" ry="3" stroke-width="1.42892"/>
    <rect x="8" y="4" width="32" height="40" rx="3" ry="3" fill="url(#linearGradient879)" stroke-width="1.42892"/>
    <rect x="11" y="8" width="26" height="5" rx="2" ry="2" fill="#5fbcd3" stroke-linecap="round" stroke-linejoin="round" stroke-opacity=".5"/>
    <g fill-opacity=".16" stroke-linecap="round" stroke-linejoin="round" stroke-opacity=".5">
        <path d="m13 8c-1.108 0-2 0.892-2 2v1c0-1.108 0.892-2 2-2h22c1.108 0 2 0.892 2 2v-1c0-1.108-0.892-2-2-2z"/>
        <g stroke-width=".999997">
            <rect x="11" y="17" width="6" height="6" rx="1.9999999" ry="2"/>
            <rect x="21" y="17" width="6" height="6" rx="1.9999999" ry="2"/>
            <rect x="31" y="17" width="6" height="6" rx="1.9999999" ry="2"/>
            <rect x="11" y="26" width="6" height="6" rx="1.9999999" ry="2"/>
            <rect x="21" y="26" width="6" height="6" rx="1.9999999" ry="2"/>
            <rect x="10.999996" y="35" width="6" height="6" rx="1.9999999" ry="2"/>
            <rect x="20.999996" y="35" width="6" height="6" rx="1.9999999" ry="2"/>
            <rect x="30.999996" y="35" width="6" height="6" rx="1.9999999" ry="2"/>
        </g>
    </g>
    <rect x="21" y="25" width="6" height="6" rx="2" ry="2" fill="#323232" stroke-linecap="round" stroke-linejoin="round" stroke-opacity=".5"/>
    <rect class="ColorScheme-Highlight" x="31" y="25" width="6" height="15" rx="2" ry="2" fill="currentColor" stroke-width=".999995"/>
    <g fill="#323232" stroke-linecap="round" stroke-linejoin="round" stroke-opacity=".5">
        <rect x="10.999996" y="34" width="6" height="6" rx="2" ry="2"/>
        <rect x="21" y="34" width="6" height="6" rx="2" ry="2"/>
        <rect x="11" y="25" width="6" height="6" rx="2" ry="2"/>
        <rect x="11" y="16" width="6" height="6" rx="1.9999999" ry="2" stroke-width=".999997"/>
        <rect x="31" y="16" width="6" height="6" rx="2" ry="2"/>
        <rect x="21" y="16" width="6" height="6" rx="2" ry="2"/>
    </g>
</svg>
