<svg version="1.1" viewBox="0 0 48 48" xmlns="http://www.w3.org/2000/svg" xmlns:xlink="http://www.w3.org/1999/xlink">
    <defs>
        <style id="current-color-scheme" type="text/css">.ColorScheme-Highlight {
    color:#006aff;
    }
    .ColorScheme-HighlightedText {
    color:#ffffff;
    }</style>
        <linearGradient id="linearGradient877" x1="8" x2="8" y1="4" y2="44" gradientTransform="matrix(1 0 0 .97560976 0 1.097561)" gradientUnits="userSpaceOnUse">
            <stop stop-color="#f1f1f1" offset="0"/>
            <stop stop-color="#dedede" offset="1"/>
        </linearGradient>
        <linearGradient id="linearGradient967" x1="8" x2="8" y1="41" y2="44" gradientTransform="matrix(.21875 0 0 .27765 29 17.061182)" gradientUnits="userSpaceOnUse">
            <stop stop-opacity=".15686" offset="0"/>
            <stop stop-opacity="0" offset="1"/>
        </linearGradient>
    </defs>
    <g stroke-width="1.42892">
        <rect x="8" y="5" width="32" height="40" rx="2.8571429" ry="2.8571429" fill="url(#linearGradient877)" stroke-width="1.42892"/>
        <path d="m 8,41.142578 v 1 C 8,43.725435 9.274565,45 10.857422,45 H 37.142578 C 38.725435,45 40,43.725435 40,42.142578 v -1 C 40,42.725435 38.725435,44 37.142578,44 H 10.857422 C 9.274565,44 8,42.725435 8,41.142578 Z" fill-opacity=".16"/>
        <rect x="14" y="13" width="20" height="1.9999999" rx="1" ry=".99999994"/>
        <rect x="14" y="20" width="20" height="1.9999999" rx="1" ry=".99999994"/>
        <rect x="14" y="27" width="20" height="1.9999999" rx="1" ry=".99999994"/>
        <rect x="14" y="34" width="20" height="1.9999999" rx="1" ry=".99999994"/>
        <rect class="ColorScheme-Highlight" x="8" y="5" width="32" height="37" rx="2.8571429" ry="2.8571429" fill="currentColor" opacity=".6" stroke-width="1.42892"/>
        <path d="m 8,39.142578 v 2 C 8,42.725435 9.2745646,44 10.857422,44 H 37.142578 C 38.725435,44 40,42.725435 40,41.142578 v -2 C 40,40.725435 38.725435,42 37.142578,42 H 10.857422 C 9.2745646,42 8,40.725435 8,39.142578 Z" fill="url(#linearGradient967)" opacity=".6" stroke-width="1.42892"/>
        <g fill="#323232">
            <rect x="12" y="4" width="1" height="3" rx=".5" ry=".5"/>
            <rect x="14" y="4" width="1" height="3" rx=".5" ry=".5"/>
            <rect x="19" y="4" width="1" height="3" rx=".5" ry=".5"/>
            <rect x="21" y="4" width="1" height="3" rx=".5" ry=".5"/>
            <rect x="26" y="4" width="1" height="3" rx=".5" ry=".5"/>
            <rect x="28" y="4" width="1" height="3" rx=".5" ry=".5"/>
            <rect x="33" y="4" width="1" height="3" rx=".5" ry=".5"/>
            <rect x="35" y="4" width="1" height="3" rx=".5" ry=".5"/>
        </g>
    </g>
</svg>
