<svg version="1.1" viewBox="0 0 48 48" xmlns="http://www.w3.org/2000/svg" xmlns:xlink="http://www.w3.org/1999/xlink">
    <defs>
        <linearGradient id="linearGradient869" x1="13.989908" x2="14.05561" y1="36.049496" y2="15.98124" gradientUnits="userSpaceOnUse">
            <stop stop-color="#c7c7c7" offset="0"/>
            <stop stop-color="#e5e5e5" offset="1"/>
        </linearGradient>
        <linearGradient id="linearGradient877" x1="3.8981826" x2="4.0793672" y1="39.490166" y2="12.678652" gradientTransform="translate(0 -.5)" gradientUnits="userSpaceOnUse">
            <stop stop-color="#8f8f8f" offset="0"/>
            <stop stop-color="#b2b2b2" offset="1"/>
        </linearGradient>
        <linearGradient id="linearGradient894" x1="18" x2="18" y1="12.5" y2="10.511594" gradientTransform="translate(0 -.5)" gradientUnits="userSpaceOnUse">
            <stop stop-opacity=".16" offset="0"/>
            <stop stop-opacity="0" offset="1"/>
        </linearGradient>
        <radialGradient id="radialGradient990" cx="24" cy="26" r="8" gradientUnits="userSpaceOnUse">
            <stop stop-opacity=".01384415" offset="0"/>
            <stop stop-color="#010101" stop-opacity="0" offset=".69999999"/>
            <stop stop-opacity=".16" offset="1"/>
        </radialGradient>
    </defs>
    <path d="m7 12h11l2-4h8l2 4h11c1.662 0 3 1.338 3 3v22c0 1.662-1.338 3-3 3h-34c-1.662 0-3-1.338-3-3v-22c0-1.662 1.3448255-2.84953 3-3z" fill="url(#linearGradient877)" stroke-width="1.42892"/>
    <circle cx="24" cy="26.999628" r="10" fill-opacity=".16" stroke-linecap="round" stroke-linejoin="round" stroke-opacity=".5" stroke-width=".999993"/>
    <g stroke-linecap="round" stroke-linejoin="round" stroke-opacity=".5">
        <circle cx="24" cy="26" r="10" fill="url(#linearGradient869)" stroke-width=".999993"/>
        <circle cx="24" cy="26" r="8" fill="#1a1a1a" stroke-width=".999996"/>
        <circle cx="24" cy="26" r="2.5" fill="#666" stroke-width=".999995"/>
        <circle cx="24" cy="26" r=".5" fill="#1a1a1a" stroke-width=".999995"/>
    </g>
    <g fill="#fff" stroke-linecap="round" stroke-linejoin="round" stroke-opacity=".5">
        <circle transform="scale(-1,1)" cx="-27.5" cy="22.5" r="1.5"/>
        <circle transform="scale(-1,1)" cx="-20.5" cy="29.5" r=".5"/>
        <path d="m24 18.000001a8 8 0 0 0-1.794922 0.205078 8 8 0 0 0-0.205078 1.794922 8 8 0 0 0 8 8 8 8 0 0 0 1.794922-0.205078 8 8 0 0 0 0.205078-1.794922 8 8 0 0 0-8-8z" fill-opacity=".32" stroke-width=".999996"/>
    </g>
    <g stroke-linecap="round" stroke-linejoin="round" stroke-opacity=".5">
        <circle cx="24" cy="26" r="8" fill="url(#radialGradient990)" stroke-width=".999996"/>
        <circle cx="39" cy="17" r="2" fill="#e1e1e1"/>
        <path d="m20 8h8l1.999999 4h-11.999999z" fill="url(#linearGradient894)"/>
    </g>
</svg>
