<svg version="1.1" viewBox="0 0 48 48" xmlns="http://www.w3.org/2000/svg">
    <defs>
        <linearGradient id="linearGradient933" x1="44" x2="44" y1="32" y2="4" gradientUnits="userSpaceOnUse">
            <stop stop-color="#1f1f1f" offset="0"/>
            <stop stop-color="#323232" stop-opacity=".99524122" offset="1"/>
        </linearGradient>
        <linearGradient id="linearGradient941" x1="32" x2="32" y1="16" y2="44" gradientUnits="userSpaceOnUse">
            <stop stop-color="#f1f1f1" offset="0"/>
            <stop stop-color="#dedede" offset="1"/>
        </linearGradient>
    </defs>
    <g stroke-width="1.42892">
        <rect x="15.999998" y="5" width="28" height="28" rx="3" ry="3"/>
        <rect x="16" y="4" width="28" height="28" rx="3" ry="3" fill="url(#linearGradient933)"/>
        <rect x="4" y="17" width="28" height="28" rx="3" ry="3" fill="#a8a8a8"/>
    </g>
    <g transform="matrix(1.0749252,0,0,1.0446992,-4.3226812,-1.5810896)" fill="#fff" stroke-width=".943655" aria-label="ӓ">
        <path d="m33.939376 15.424228c0.696965 0 1.212113-0.575754 1.212113-1.212114 0-0.696965-0.515148-1.212114-1.212113-1.212114-0.63636 0-1.212114 0.515149-1.212114 1.212114 0 0.63636 0.575754 1.212114 1.212114 1.212114zm4.363609 0c0.696965 0 1.212113-0.575754 1.212113-1.212114 0-0.696965-0.515148-1.212114-1.212113-1.212114-0.63636 0-1.212114 0.515149-1.212114 1.212114 0 0.63636 0.575754 1.212114 1.212114 1.212114zm-3.333313 13.848398c2.030291 0 3.09089-1.090902 3.454524-1.848473h0.09091v1.575748h1.787867v-7.666619c0-3.696947-2.818164-4.121187-4.303003-4.121187-1.757565 0-3.757553 0.606057-4.666638 2.727256l1.696959 0.606057c0.393937-0.84848 1.32575-1.757565 3.030285-1.757565 1.643929 0 2.45453 0.871207 2.45453 2.363622v0.06061c0 0.863631-0.878783 0.787873-2.999982 1.060599-2.159078 0.280297-4.515124 0.757567-4.515124 3.424217 0 2.272713 1.757565 3.575735 3.969672 3.575735zm0.272726-1.60605c-1.424234 0-2.45453-0.63636-2.45453-1.878776 0-1.363628 1.242416-1.787868 2.636347-1.969685 0.757571-0.09091 2.787861-0.303029 3.09089-0.666663v1.636354c0 1.454536-1.151508 2.87877-3.272707 2.87877z" fill="#fff" stroke-width=".943655"/>
    </g>
    <rect x="4" y="16" width="28" height="28" rx="3" ry="3" fill="url(#linearGradient941)" stroke-width="1.42892"/>
    <g transform="matrix(.97633291 0 0 1.0017873 -.57399139 -.04289535)" stroke-width="1.01115" aria-label="é">
        <path d="m22.333326 27.515145h1.575755l2.363633-3.515146h-2.090906zm1.090907 13.454524c2.363633 0 4.090903-1.181816 4.636356-2.939389l-1.72727-0.484848c-0.454544 1.212119-1.507573 1.818179-2.909086 1.818179-2.098481 0-3.545449-1.356058-3.628782-3.848479h8.446956v-0.757574c0-4.333327-2.575753-5.818173-4.999992-5.818173-3.15151 0-5.242416 2.484845-5.242416 6.060597s2.060603 5.969687 5.424234 5.969687zm-0.181818-10.424226c1.939391 0 3.181813 1.454543 3.181813 3.424237h-6.628777c0.121212-1.810603 1.409089-3.424237 3.446964-3.424237z" stroke-width="1.01115"/>
    </g>
</svg>
