<svg version="1.1" viewBox="0 0 48 48" xmlns="http://www.w3.org/2000/svg" xmlns:xlink="http://www.w3.org/1999/xlink">
    <defs>
        <linearGradient id="linearGradient1048" x1="35" x2="35" y1="16" y2="4" gradientUnits="userSpaceOnUse">
            <stop stop-color="#f2f2f2" offset="0"/>
            <stop stop-color="#fff" offset="1"/>
        </linearGradient>
        <linearGradient id="linearGradient1087" x1="8" x2="8" y1="4" y2="44" gradientUnits="userSpaceOnUse">
            <stop stop-color="#d75a4a" offset="0"/>
            <stop stop-color="#c65344" offset="1"/>
        </linearGradient>
        <linearGradient id="linearGradient1095" x1="8" x2="8" y1="4" y2="44" gradientUnits="userSpaceOnUse">
            <stop stop-color="#c03a2b" offset="0"/>
            <stop stop-color="#b13528" offset="1"/>
        </linearGradient>
    </defs>
    <g>
        <path d="m8 5v40h29c1.662 0 3-1.338 3-3v-34c0-1.662-1.338-3-3-3h-26z" fill="#a8a8a8" stroke-width="1.42892"/>
        <path d="m8 4v3 34 3h3 11 15c1.662 0 3-1.338 3-3v-34c0-1.662-1.338-3-3-3h-15-11-3z" fill="url(#linearGradient1095)" stroke-width="1.42892"/>
        <rect x="8" y="4" width="5" height="40" fill="url(#linearGradient1087)" stroke-linecap="round" stroke-linejoin="round" stroke-opacity=".5" stroke-width=".999996"/>
    </g>
    <path d="m29 5v12l3-3 3 3v-12z" fill-opacity=".16" stroke-linecap="round" stroke-linejoin="round" stroke-opacity=".5"/>
    <path d="m29 4v12l3-3 3 3v-12z" fill="url(#linearGradient1048)" stroke-linecap="round" stroke-linejoin="round" stroke-opacity=".5"/>
    <g transform="matrix(1.0440687 0 0 1.03125 -2.7339241 -.74999897)" fill="#fff" stroke-width=".963726" aria-label="A-Z">
        <path d="m22.034097 26.90909 0.585228-1.647727h2.352272l0.585228 1.647727h0.738636l-2.136364-5.818182h-0.727272l-2.136364 5.818182zm1.738637-4.897727h0.04545l0.931819 2.625h-1.909091z"/>
        <path d="m29.61364 23.687499h-2.545454v0.625h2.545454z"/>
        <path d="m30.693176 26.90909h4.011364v-0.625h-3.170455l3.136364-4.681818v-0.511364h-4.011364v0.625h3.170455l-3.136364 4.681818z"/>
    </g>
</svg>
