<?xml version="1.0" encoding="UTF-8" standalone="no"?>
<svg
   xmlns:dc="http://purl.org/dc/elements/1.1/"
   xmlns:cc="http://creativecommons.org/ns#"
   xmlns:rdf="http://www.w3.org/1999/02/22-rdf-syntax-ns#"
   xmlns:svg="http://www.w3.org/2000/svg"
   xmlns="http://www.w3.org/2000/svg"
   xmlns:sodipodi="http://sodipodi.sourceforge.net/DTD/sodipodi-0.dtd"
   xmlns:inkscape="http://www.inkscape.org/namespaces/inkscape"
   version="1.1"
   viewBox="0 0 48 48"
   id="svg19"
   sodipodi:docname="access.svg"
   inkscape:version="1.0.1 (1.0.1+r73)">
  <metadata
     id="metadata23">
    <rdf:RDF>
      <cc:Work
         rdf:about="">
        <dc:format>image/svg+xml</dc:format>
        <dc:type
           rdf:resource="http://purl.org/dc/dcmitype/StillImage" />
      </cc:Work>
    </rdf:RDF>
  </metadata>
  <sodipodi:namedview
     pagecolor="#ffffff"
     bordercolor="#666666"
     borderopacity="1"
     objecttolerance="10"
     gridtolerance="10"
     guidetolerance="10"
     inkscape:pageopacity="0"
     inkscape:pageshadow="2"
     inkscape:window-width="1366"
     inkscape:window-height="700"
     id="namedview21"
     showgrid="false"
     inkscape:zoom="11.3125"
     inkscape:cx="24"
     inkscape:cy="24"
     inkscape:window-x="0"
     inkscape:window-y="0"
     inkscape:window-maximized="1"
     inkscape:current-layer="svg19" />
  <defs
     id="defs7">
    <linearGradient
       id="linearGradient853"
       x1="44"
       x2="44"
       y1="4"
       y2="44"
       gradientUnits="userSpaceOnUse">
      <stop
         stop-color="#356fdd"
         offset="0"
         id="stop2" />
      <stop
         stop-color="#0d47b5"
         offset="1"
         id="stop4" />
    </linearGradient>
  </defs>
  <g
     stroke-width="4"
     id="g15">
    <circle
       cx="24"
       cy="25"
       r="20"
       fill="#0d47b5"
       id="circle9" />
    <circle
       cx="24"
       cy="25"
       r="20"
       fill-opacity=".156863"
       id="circle11" />
    <circle
       cx="24"
       cy="24"
       r="20"
       fill="url(#linearGradient853)"
       id="circle13" />
  </g>
  <path
     d="m23.949219 11.999905a3 3.0000001 0 0 0-2.949219 3 3 3.0000001 0 0 0 3 3 3 3.0000001 0 0 0 3-3 3 3.0000001 0 0 0-3-3 3 3.0000001 0 0 0-0.05078 0zm-9.960938 6.001953c-0.481068 0.02629-0.781377 0.291516-0.90039 0.507813-0.284722 0.782901 0.166263 0.869619 0.796875 1.109375l7.115234 2.277343v6.15625l-2.345703 6.357422c-0.334709 0.720276-0.0549 1.237189 0.195312 1.433594 0.702153 0.395316 0.857949-0.01785 1.185547-0.574219l3.910156-7.169922h0.109376l3.904296 7.169922c0.328874 0.556367 0.484578 0.969535 1.189454 0.574219 0.251176-0.196405 0.533264-0.713318 0.197265-1.433594l-2.345703-6.332031v-6.181641l7.115234-2.277343c0.630611-0.239756 1.081597-0.326474 0.796875-1.109375-0.158696-0.288394-0.640632-0.662595-1.441406-0.44336l-6.470703 0.933594h-6l-6.470703-0.933594c-0.200194-0.05481-0.38066-0.07322-0.541016-0.06445z"
     fill="#fff"
     id="path17" />
</svg>
