<svg version="1.1" viewBox="0 0 48 48" xmlns="http://www.w3.org/2000/svg">
    <defs>
        <style id="current-color-scheme" type="text/css">.ColorScheme-Highlight {
    color:#006aff;
    }
    .ColorScheme-HighlightedText {
    color:#ffffff;
    }</style>
        <linearGradient id="linearGradient929" x1="-7.4188228" x2="-7.4188228" y1="45.41404" y2="5.4140382" gradientTransform="translate(15.418823,-1.414039)" gradientUnits="userSpaceOnUse">
            <stop stop-opacity=".054902" offset="0"/>
            <stop stop-opacity="0" offset="1"/>
        </linearGradient>
    </defs>
    <path d="m8 5v40h29c1.662 0 3-1.338 3-3v-34c0-1.662-1.338-3-3-3h-26z" fill="#a8a8a8" stroke-width="1.42892"/>
    <path class="ColorScheme-Highlight" d="m8 4v40h29c1.662 0 3-1.338 3-3v-34c0-1.662-1.338-3-3-3h-26z" fill="currentColor" stroke-width="1.42892"/>
    <rect x="8" y="4" width="5" height="40" fill="#fff" fill-opacity=".32" stroke-linecap="round" stroke-linejoin="round" stroke-opacity=".5" stroke-width=".999996"/>
    <path d="m8 4v39.999999h29c1.662 0 3-1.338 3-3v-34c0-1.661999-1.338-2.999999-3-2.999999h-25.999999z" fill="url(#linearGradient929)" stroke-width="1.42892"/>
    <path d="M 26.5,18 A 4.2857142,4.2857143 0 0 0 22.214285,22.285715 4.2857142,4.2857143 0 0 0 26.5,26.57143 4.2857142,4.2857143 0 0 0 30.785715,22.285715 4.2857142,4.2857143 0 0 0 26.5,18 Z m -3.559152,8.57143 A 6.0625877,5.141423 0 0 0 20.5,30 h 12 A 6.0625877,5.141423 0 0 0 30.055804,26.571428 5.1428569,4.4069341 0 0 1 26.5,27.796874 a 5.1428569,4.4069341 0 0 1 -3.555804,-1.225446 6.0625877,5.141423 0 0 0 -0.0035,0 z" fill="#fff"/>
</svg>
