<svg version="1.1" viewBox="0 0 48 48" xmlns="http://www.w3.org/2000/svg">
    <defs>
        <style id="current-color-scheme" type="text/css">.ColorScheme-Highlight {
    color:#006aff;
    }
    .ColorScheme-HighlightedText {
    color:#ffffff;
    }</style>
        <linearGradient id="linearGradient929" x1="-7.4188228" x2="-7.4188228" y1="45.41404" y2="5.4140382" gradientTransform="translate(15.418823,-1.414039)" gradientUnits="userSpaceOnUse">
            <stop stop-opacity=".054902" offset="0"/>
            <stop stop-opacity="0" offset="1"/>
        </linearGradient>
    </defs>
    <path d="m8 5v40h29c1.662 0 3-1.338 3-3v-34c0-1.662-1.338-3-3-3h-26z" fill="#a8a8a8" stroke-width="1.42892"/>
    <path class="ColorScheme-Highlight" d="m8 4v40h29c1.662 0 3-1.338 3-3v-34c0-1.662-1.338-3-3-3h-26z" fill="currentColor" stroke-width="1.42892"/>
    <rect x="8" y="4" width="5" height="40" fill="#fff" fill-opacity=".32" stroke-linecap="round" stroke-linejoin="round" stroke-opacity=".5" stroke-width=".999996"/>
    <path d="m8 4v39.999999h29c1.662 0 3-1.338 3-3v-34c0-1.661999-1.338-2.999999-3-2.999999h-25.999999z" fill="url(#linearGradient929)" stroke-width="1.42892"/>
    <path d="m26.5 18a4.5 4.5 0 0 0-4.5 4.5 4.5 4.5 0 0 0 4.5 4.5 4.5 4.5 0 0 0 4.5-4.5 4.5 4.5 0 0 0-4.5-4.5zm-3.5 8.740234a5.1389746 6.5 0 0 0-1.5 3.259766h10a5.1389746 6.5 0 0 0-1.5-3.257812 5.5 5.5 0 0 1-3.5 1.257812 5.5 5.5 0 0 1-3.5-1.259766z" fill="#fffafa"/>
</svg>
