<svg version="1.1" viewBox="0 0 48 48" xmlns="http://www.w3.org/2000/svg" xmlns:xlink="http://www.w3.org/1999/xlink">
    <defs>
        <linearGradient id="linearGradient890">
            <stop stop-opacity="0" offset="0"/>
            <stop stop-opacity=".05" offset="1"/>
        </linearGradient>
        <style id="current-color-scheme" type="text/css">.ColorScheme-Highlight {
    color:#006aff;
    }
    .ColorScheme-HighlightedText {
    color:#ffffff;
    }</style>id="defs18"
        <linearGradient id="linearGradient892" x1="30" x2="40" y1="16" y2="36" gradientUnits="userSpaceOnUse" xlink:href="#linearGradient890"/>
        <linearGradient id="linearGradient892-7" x1="30" x2="40" y1="16" y2="36" gradientTransform="matrix(.8 0 0 .35 -16 23.4)" gradientUnits="userSpaceOnUse" xlink:href="#linearGradient890"/>
        <linearGradient id="linearGradient953" x1="43" x2="43" y1="13" y2="9" gradientUnits="userSpaceOnUse">
            <stop stop-opacity=".14" offset="0"/>
            <stop stop-opacity="0" offset="1"/>
        </linearGradient>
    </defs>
    <path d="m5 14v24c0 1.108 0.892 2 2 2h34c1.108 0 2-0.892 2-2v-24z" fill="#a8a8a8" stroke-linecap="round" stroke-linejoin="round"/>
    <path class="ColorScheme-Highlight" d="m7 9c-1.108 0-2 0.892-2 2v2h38v-2c0-1.108-0.892-2-2-2h-34z" fill="currentColor" opacity=".4"/>
    <path d="m5 13v24c0 1.108 0.892 2 2 2h34c1.108 0 2-0.892 2-2v-24z" fill="#dedede" stroke-linecap="round" stroke-linejoin="round"/>
    <rect class="ColorScheme-Highlight" x="30" y="16" width="10" height="20" fill="currentColor"/>
    <g stroke-linecap="round" stroke-linejoin="round">
        <rect x="8" y="16" width="20" height="1"/>
        <rect x="8" y="19" width="19" height="1"/>
        <rect x="8" y="22" width="20" height="1"/>
        <rect x="8" y="25" width="15" height="1"/>
    </g>
    <rect class="ColorScheme-Highlight" x="8" y="29" width="8" height="7" fill="currentColor"/>
    <g fill="#000e22" stroke-linecap="round" stroke-linejoin="round">
        <rect x="18" y="29" width="10" height="1"/>
        <rect x="18" y="32" width="8" height="1"/>
        <rect x="18" y="35" width="9" height="1"/>
    </g>
    <g>
        <rect class="ColorScheme-Highlight" x="30" y="16" width="10" height="20" color="#006aff" fill="url(#linearGradient892)"/>
        <rect class="ColorScheme-Highlight" x="8" y="29" width="8" height="7" color="#006aff" fill="url(#linearGradient892-7)" stroke-width=".999999"/>
        <path class="ColorScheme-Highlight" d="m7 9c-1.108 0-2 0.892-2 2v2h38v-2c0-1.108-0.892-2-2-2z" color="#006aff" fill="url(#linearGradient953)" opacity=".4"/>
    </g>
</svg>
