<svg version="1.1" viewBox="0 0 48 48" xmlns="http://www.w3.org/2000/svg">
    <defs>
        <linearGradient id="linearGradient868" x1="4.0390906" x2="3.9937305" y1="44.054234" y2="3.9220827" gradientUnits="userSpaceOnUse">
            <stop stop-color="#1f1f1f" offset="0"/>
            <stop stop-color="#323232" offset="1"/>
        </linearGradient>
    </defs>
    <g stroke-linecap="round" stroke-linejoin="round">
        <circle cx="24" cy="25" r="20"/>
        <circle cx="24" cy="24" r="20" fill="url(#linearGradient868)"/>
        <circle cx="24" cy="24" r="8" fill="#e63f77" stroke-linecap="round" stroke-linejoin="round"/>
    </g>
    <g fill="#fff">
        <path d="m28 20.000001-6 1v2l6-1.000001z"/>
        <path d="m22.000001 21.000001v5.5h0.999999v-5.5z"/>
        <path d="m27 21.000002v4.5h1v-4.5z"/>
        <circle cx="21.5" cy="26.5" r="1.5" stroke-linecap="round" stroke-linejoin="round" stroke-width=".999998"/>
        <circle cx="26.5" cy="25.5" r="1.5" stroke-linecap="round" stroke-linejoin="round"/>
    </g>
    <path d="m28.587891 8.6992188a0.5 0.5 0 0 0-0.488282 0.5 0.5 0.5 0 0 0 0.41211 0.4921874c4.481759 1.4100058 8.038435 4.8706128 9.607422 9.2792968a0.5 0.5 0 0 0 0.470703 0.330078 0.5 0.5 0 0 0 0.5-0.5 0.5 0.5 0 0 0-0.00586-0.072265l0.00586-0.001954c-0.002524-0.00721-0.004769-0.01451-0.007813-0.021484l0.007813-0.001953c-1.665257-4.757689-5.499798-8.498717-10.330078-10.003906l-0.007813 0.0253906a0.5 0.5 0 0 0-0.152344-0.0253906 0.5 0.5 0 0 0-0.011718 0zm-19.177735 19.976562a0.5 0.5 0 0 0-0.5 0.5 0.5 0.5 0 0 0 0.0058594 0.072266l-0.0058594 0.001953c0.0025444 0.007213 0.0047753 0.014512 0.0078126 0.021484l-0.0078126 0.001954c1.6652568 4.757688 5.4997978 8.498717 10.330078 10.003906l0.007813-0.025391a0.5 0.5 0 0 0 0.152344 0.025391 0.5 0.5 0 0 0 0.011718 0 0.5 0.5 0 0 0 0.488282-0.5 0.5 0.5 0 0 0-0.41211-0.492188c-4.481759-1.410006-8.038435-4.870613-9.6074216-9.279297a0.5 0.5 0 0 0-0.4707032-0.330078z" fill="#fff" fill-opacity=".40000001" style="font-feature-settings:normal;font-variant-alternates:normal;font-variant-caps:normal;font-variant-east-asian:normal;font-variant-ligatures:normal;font-variant-numeric:normal;font-variant-position:normal;font-variation-settings:normal;inline-size:0;isolation:auto;mix-blend-mode:normal;shape-margin:0;shape-padding:0;text-decoration-color:#000000;text-decoration-line:none;text-decoration-style:solid;text-indent:0;text-orientation:mixed;text-transform:none;white-space:normal"/>
</svg>
