<svg version="1.1" viewBox="0 0 48 48" xmlns="http://www.w3.org/2000/svg" xmlns:xlink="http://www.w3.org/1999/xlink">
    <defs>
        <style id="current-color-scheme" type="text/css">.ColorScheme-Highlight {
    color:#006aff;
    }
    .ColorScheme-HighlightedText {
    color:#ffffff;
    }</style>
        <linearGradient id="linearGradient905" x1="28" x2="29" y1="28" y2="29" gradientUnits="userSpaceOnUse">
            <stop stop-opacity=".16" offset="0"/>
            <stop stop-opacity="0" offset="1"/>
        </linearGradient>
        <linearGradient id="linearGradient1095" x1="32" x2="32" y1="4" y2="32" gradientTransform="translate(41,-11)" gradientUnits="userSpaceOnUse">
            <stop stop-color="#f1f1f1" offset="0"/>
            <stop stop-color="#dedede" offset="1"/>
        </linearGradient>
        <linearGradient id="linearGradient1108" x1="27" x2="44" y1="27" y2="44" gradientTransform="translate(-16,1.5)" gradientUnits="userSpaceOnUse">
            <stop stop-color="#bdbdbd" offset="0"/>
            <stop stop-color="#999" offset="1"/>
        </linearGradient>
        <radialGradient id="radialGradient990" cx="24" cy="26" r="8" gradientTransform="matrix(1.375,0,0,1.375,-14.999998,-17.75)" gradientUnits="userSpaceOnUse">
            <stop stop-opacity=".01384415" offset="0"/>
            <stop stop-color="#010101" stop-opacity="0" offset=".69999999"/>
            <stop stop-opacity=".16" offset="1"/>
        </radialGradient>
    </defs>
    <g transform="translate(48,1)">
        <path d="m-30 4c-7.731986 0-14 6.268014-14 14s6.268014 14 14 14c3.022057-5.58e-4 5.962805-0.97898 8.382812-2.789062 1.073203-0.802499 2.025628-1.754923 2.828126-2.828126 1.810082-2.420007 2.788504-5.360755 2.789062-8.382812 0-7.731986-6.268014-14-14-14zm0 3c6.075132 0 11 4.924868 11 11s-4.924868 11-11 11-11-4.924868-11-11 4.924868-11 11-11z" fill="#a2a2a2"/>
        <path d="m-18.788874 26.382812c-2.828126 2.828126-1.828128 2.828126 0 0zm0 0-2.828314 1.828126 1.88e-4 1 14.203126 14.203124c0.781014 0.780847 2.04711 0.780847 2.828124 0 0.780847-0.781014 0.780847-2.04711 0-2.828124zm-2.828126 2.828126c2.828126-2.828126 2.828126-2.828126 0 0z" fill="#717171"/>
        <path class="ColorScheme-Highlight" d="m-17 28-3 2v1l5 5v-1l3-2z" fill="currentColor"/>
        <path d="m-17 28-3 2v1l5 5v-1l3-2z" fill-opacity=".27"/>
    </g>
    <path d="m29.211126 26.382812c-2.828126 2.828126-1.828128 2.828126 0 0zm0 0c-0.802499 1.073203-1.754923 2.025626-2.828126 2.828126l14.203126 14.203124c0.781014 0.780847 2.04711 0.780847 2.828124 0 0.780847-0.781014 0.780847-2.04711 0-2.828124zm-2.828126 2.828126c2.828126-2.828126 2.828126-2.828126 0 0z" fill="url(#linearGradient1108)"/>
    <path d="m18 4c-7.731986 0-14 6.268014-14 14s6.268014 14 14 14c3.022057-5.58e-4 5.962805-0.97898 8.382812-2.789062 1.073203-0.802499 2.025628-1.754923 2.828126-2.828126 1.810082-2.420007 2.788504-5.360755 2.789062-8.382812 0-7.731986-6.268014-14-14-14zm0 3c6.075132 0 11 4.924868 11 11s-4.924868 11-11 11-11-4.924868-11-11 4.924868-11 11-11z" fill="url(#linearGradient1095)"/>
    <path class="ColorScheme-Highlight" d="m31 28-3 3 5 5 3-3z" fill="currentColor"/>
    <path d="m29.210938 26.382812c-0.802498 1.073203-1.754923 2.025628-2.828126 2.828126l14.203126 14.203124c0.781014 0.780847 2.04711 0.780847 2.828124 0 0.780847-0.781014 0.780847-2.04711 0-2.828124z" fill="url(#linearGradient905)"/>
    <g transform="matrix(1.375,0,0,1.375,-15,-17.750001)" fill="#fff" stroke-linecap="round" stroke-linejoin="round" stroke-opacity=".5">
        <circle transform="scale(-1,1)" cx="-26.90909" cy="23.09091" r="1.4545455" stroke-width=".727273"/>
        <circle transform="scale(-1,1)" cx="-20.363636" cy="29.636364" r=".72727275" stroke-width=".727273"/>
        <path d="m24 18.000001a8 8 0 0 0-1.794922 0.205078 8 8 0 0 0-0.205078 1.794922 8 8 0 0 0 8 8 8 8 0 0 0 1.794922-0.205078 8 8 0 0 0 0.205078-1.794922 8 8 0 0 0-8-8z" fill-opacity=".32" stroke-width=".727269"/>
    </g>
    <circle cx="18" cy="18" r="11" fill="url(#radialGradient990)"/>
</svg>
