<svg version="1.1" viewBox="0 0 48 48" xmlns="http://www.w3.org/2000/svg" xmlns:xlink="http://www.w3.org/1999/xlink">
    <defs>
        <linearGradient id="linearGradient896" x1="10" x2="10" y1="4" y2="44" gradientTransform="matrix(.81353623 0 0 1.2292016 22.142164 0)" gradientUnits="userSpaceOnUse">
            <stop stop-color="#36a8e0" offset="0"/>
            <stop stop-color="#2d8dbc" offset="1"/>
        </linearGradient>
    </defs>
    <g>
        <path d="m23.999996 5a13.999999 14 0 0 0-13.964844 13h-0.03516v14h0.03516a13.999999 14 0 0 0 13.964844 13 13.999999 14 0 0 0 13.964844-13h0.03516v-14h-0.03516a13.999999 14 0 0 0-13.964844-13z" fill="#216789"/>
        <path d="M 24,4 A 13.999999,14 0 0 0 10.035156,17 H 10 v 13 1 h 0.03516 A 13.999999,14 0 0 0 24,44 13.999999,14 0 0 0 37.964844,31 H 38 V 30 17 H 37.96484 A 13.999999,14 0 0 0 24,4 Z" fill="url(#linearGradient896)"/>
        <path d="m23.507969 11.000483a1.0001964 1.0000719 0 0 0-0.968843 0.999972v9.683322l-3.853887-3.628804a1.0000964 0.99997188 0 0 0-0.687566-0.271478 1.0000964 0.99997188 0 0 0-0.726633 0.314444 1.0000964 0.99997188 0 0 0 0.04297 1.412071l4.766084 4.490107-4.766085 4.490108a1.0000964 0.99997188 0 0 0-0.04297 1.41207 1.0000964 0.99997188 0 0 0 1.414199 0.04297l3.853887-3.628804v9.68332a1.0001964 1.0000719 0 0 0 1.664223 0.748026l6.46156-5.740074a1.0001964 1.0000719 0 0 0 0.03125-1.464801l-5.7193-5.542815 5.719301-5.542813a1.0001964 1.0000719 0 0 0-0.03125-1.464802l-6.46156-5.740073a1.0001964 1.0000719 0 0 0-0.69538-0.251946zm1.03135 3.226471 3.992572 3.544823-3.992572 3.865126zm0 12.136378 3.992572 3.865126-3.992572 3.544823z" color="#000000" color-rendering="auto" dominant-baseline="auto" fill="#fff" image-rendering="auto" shape-rendering="auto" solid-color="#000000" stop-color="#000000" style="font-feature-settings:normal;font-variant-alternates:normal;font-variant-caps:normal;font-variant-east-asian:normal;font-variant-ligatures:normal;font-variant-numeric:normal;font-variant-position:normal;font-variation-settings:normal;inline-size:0;isolation:auto;mix-blend-mode:normal;shape-margin:0;shape-padding:0;text-decoration-color:#000000;text-decoration-line:none;text-decoration-style:solid;text-indent:0;text-orientation:mixed;text-transform:none;white-space:normal"/>
    </g>
</svg>
