<svg version="1.1" viewBox="0 0 48 48" xmlns="http://www.w3.org/2000/svg" xmlns:xlink="http://www.w3.org/1999/xlink">
    <defs>
        <style id="current-color-scheme" type="text/css">.ColorScheme-Highlight {
    color:#006aff;
    }
    .ColorScheme-HighlightedText {
    color:#ffffff;
    }</style>
        <linearGradient id="linearGradient1042" x1="32" x2="32" y1="16" y2="44" gradientTransform="translate(48,-5)" gradientUnits="userSpaceOnUse">
            <stop stop-color="#e7e7e7" offset="0"/>
            <stop stop-color="#dcdcdc" offset="1"/>
        </linearGradient>
        <linearGradient id="linearGradient1000" x1="36" x2="36" y1="8" y2="14" gradientTransform="translate(0,-1)" gradientUnits="userSpaceOnUse" xlink:href="#linearGradient1042"/>
        <linearGradient id="linearGradient1008" x1="10" x2="10" y1="8" y2="14" gradientTransform="translate(0,-1)" gradientUnits="userSpaceOnUse" xlink:href="#linearGradient1042"/>
        <linearGradient id="linearGradient1031" x1="4" x2="4" y1="14" y2="41" gradientTransform="translate(48,-5)" gradientUnits="userSpaceOnUse">
            <stop stop-color="#f1f1f1" offset="0"/>
            <stop stop-color="#dedede" offset="1"/>
        </linearGradient>
    </defs>
    <path d="m4 15v24c0 1.662 1.338 3 3 3h34c1.662 0 3-1.338 3-3v-24z" fill="#a8a8a8" stroke-width="1.42892"/>
    <path d="m4 14v24c0 1.662 1.338 3 3 3h34c1.662 0 3-1.338 3-3v-24z" fill="url(#linearGradient1031)" stroke-width="1.42892"/>
    <path class="ColorScheme-Highlight" d="m7 9c-1.662 0-3 1.338-3 3v3h40v-3c0-1.662-1.338-3-3-3z" fill="currentColor"/>
    <g fill-opacity=".22" stroke-linecap="round" stroke-linejoin="round" stroke-width="2">
        <rect x="15" y="18" width="4" height="4" opacity=".99989"/>
        <rect x="22" y="18" width="4" height="4" opacity=".99989"/>
        <rect x="29" y="18" width="4" height="4" opacity=".99989"/>
    </g>
    <rect class="ColorScheme-Highlight" x="36" y="18" width="4" height="4" fill="currentColor"/>
    <g fill-opacity=".22" stroke-linecap="round" stroke-linejoin="round" stroke-width="2">
        <rect x="8" y="26" width="4" height="4" opacity=".99989"/>
        <rect x="15" y="26" width="4" height="4" opacity=".99989"/>
        <rect x="22" y="26" width="4" height="4" opacity=".99989"/>
        <rect x="29" y="26" width="4" height="4" opacity=".99989"/>
    </g>
    <rect class="ColorScheme-Highlight" x="36" y="26" width="4" height="4" fill="currentColor"/>
    <g stroke-linecap="round" stroke-linejoin="round" stroke-width="2">
        <g fill-opacity=".22">
            <rect x="8" y="34" width="4" height="4" opacity=".99989"/>
            <rect x="15" y="34" width="4" height="4" opacity=".99989"/>
            <rect x="22" y="34" width="4" height="4" opacity=".99989"/>
            <rect x="29" y="34" width="4" height="4" opacity=".99989"/>
        </g>
        <rect x="36" y="8" width="2" height="6" rx="1" ry="1" fill-opacity=".16" opacity=".99989"/>
    </g>
    <g stroke-linecap="round" stroke-linejoin="round" stroke-width="2">
        <rect x="36" y="7" width="2" height="6" rx="1" ry="1" fill="url(#linearGradient1000)" opacity=".99989"/>
        <rect x="10" y="8" width="2" height="6" rx="1" ry="1" fill-opacity=".16" opacity=".99989"/>
        <rect x="10" y="7" width="2" height="6" rx="1" ry="1" fill="url(#linearGradient1008)" opacity=".99989"/>
    </g>
</svg>
