<svg version="1.1" viewBox="0 0 48 48" xmlns="http://www.w3.org/2000/svg" xmlns:xlink="http://www.w3.org/1999/xlink">
    <defs>
        <linearGradient id="linearGradient867" x1="3.9979174" x2="3.9869204" y1="3.9851723" y2="43.880569" gradientUnits="userSpaceOnUse">
            <stop stop-color="#00abec" offset="0"/>
            <stop stop-color="#008fc6" stop-opacity=".99215686" offset="1"/>
        </linearGradient>
    </defs>
    <g>
        <circle cx="24" cy="25" r="20" fill="#006891"/>
        <circle cx="24" cy="24" r="20" fill="url(#linearGradient867)"/>
        <g transform="matrix(1.0262391,0,0,1.0095602,2.9695767,21.218749)" fill="#fff" stroke-width=".982448" aria-label="?">
            <path d="m18.742713 7.2691186h2.386364v-0.1193182c0.03977-2.4659091 0.676136-3.5397727 2.426136-4.6335227 1.75-1.0639205 2.784091-2.5951705 2.784091-4.7926137 0-3.1022727-2.267045-5.3693182-5.767045-5.3693182-3.221591 0-5.776989 1.9886364-5.926137 5.3693182h2.505682c0.149148-2.3465909 1.789773-3.3011363 3.420455-3.3011363 1.869318 0 3.380682 1.2329545 3.380682 3.1818181 0 1.580966-0.90483 2.7144887-2.068182 3.4204546-1.948864 1.1832386-3.112216 2.3366477-3.142046 6.125zm1.272728 5.8863634c0.984375 0 1.789772-0.805398 1.789772-1.789773s-0.805397-1.7897722-1.789772-1.7897722-1.789773 0.8053972-1.789773 1.7897722 0.805398 1.789773 1.789773 1.789773z" fill="#fff" stroke-width=".982448"/>
        </g>
    </g>
</svg>
