<svg version="1.1" viewBox="0 0 48 48" xmlns="http://www.w3.org/2000/svg" xmlns:xlink="http://www.w3.org/1999/xlink">
    <defs>
        <linearGradient id="linearGradient1406" x1="30" x2="30" y1="30" y2="2" gradientTransform="matrix(1.4285714 0 0 1.4285714 1.1428576 .71428434)" gradientUnits="userSpaceOnUse" xlink:href="#linearGradient1380-6"/>
        <linearGradient id="linearGradient1380-6">
            <stop stop-color="#494949" offset="0"/>
            <stop stop-color="#9d9d9d" offset="1"/>
        </linearGradient>
        <radialGradient id="radialGradient1157" cx="16" cy="16" r="13" gradientTransform="matrix(1.4615384 0 0 1.4615383 .6153855 .6153835)" gradientUnits="userSpaceOnUse">
            <stop stop-opacity="0" offset="0"/>
            <stop stop-opacity=".00392157" offset=".78947359"/>
            <stop stop-opacity=".15686" offset="1"/>
        </radialGradient>
        <linearGradient id="linearGradient928" x1="30" x2="30" y1="30" y2="2" gradientTransform="matrix(1.4285714,0,0,1.4285714,1.1428581,1.1428564)" gradientUnits="userSpaceOnUse" xlink:href="#linearGradient1380-6"/>
        <linearGradient id="linearGradient1182" x1="23.998049" x2="23.998049" y1="40.504356" y2="7.506474" gradientTransform="matrix(1.0509358,0,0,1.0509358,-6.6858426,-5.0013011)" gradientUnits="userSpaceOnUse">
            <stop stop-color="#b2b2b2" offset="0"/>
            <stop stop-color="#e5e5e5" offset="1"/>
        </linearGradient>
    </defs>
    <g stroke-width="1.42857">
        <circle cx="24" cy="25" r="20" fill="url(#linearGradient1406)"/>
        <circle cx="24" cy="25" r="20" fill-opacity=".27451"/>
        <circle cx="24" cy="24" r="20" fill="url(#linearGradient928)"/>
    </g>
    <circle cx="24" cy="24" r="19" fill-opacity=".156863"/>
    <circle cx="24" cy="24" r="19" fill="url(#radialGradient1157)"/>
    <g transform="matrix(.95142025 0 0 .95142026 6.3658395 4.7592267)" stroke-width="1.1319">
        <path d="m17.483629 3.9317781-0.449522 2.7053388c-0.919465 0.094312-1.827997 0.2750568-2.713549 0.5398364l-1.451194-2.327659-1.941768 0.8046227 0.617835 2.6724974c-0.812085 0.4386088-1.5810979 0.9526581-2.2968696 1.5353512l-2.2311862-1.5948771-1.4881409 1.4860883 1.5969296 2.2311862c-0.5835124 0.716337-1.0982536 1.486044-1.5374036 2.298923l-2.6724974-0.617835-0.8046228 1.941768 2.3276592 1.453247c-0.2645275 0.884217-0.4452695 1.791363-0.5398363 2.709444l-2.7073918 0.451573v2.101872l2.7094442 0.451575c0.09444 0.918773 0.2751829 1.826611 0.5398364 2.711496l-2.3297117 1.4553 0.8046228 1.941767 2.6745498-0.619887c0.4379571 0.812002 0.9513174 1.581012 1.5332987 2.29687l-1.5948771 2.233238 1.4860884 1.48609 2.2352912-1.594878c0.7158572 0.58198 1.4848671 1.095341 2.2968691 1.533298l-0.619887 2.676603 1.941768 0.802569 1.453248-2.32971c0.884217 0.264526 1.791362 0.445269 2.709444 0.539836l0.451573 2.709444h2.101872l0.451573-2.709444c0.918707-0.09377 1.826545-0.273826 2.711498-0.537784l1.453247 2.327658 1.941769-0.802569-0.617836-2.67455c0.811292-0.438068 1.57961-0.951425 2.294816-1.5333l2.233239 1.594877 1.486089-1.486088-1.594877-2.233239c0.583512-0.716335 1.098254-1.486042 1.537404-2.298921l2.672497 0.619887 0.804624-1.941767-2.32766-1.453248c0.264527-0.884217 0.44527-1.791363 0.539837-2.709444l2.705338-0.451573v-2.101873l-2.705338-0.451574c-0.09364-0.919398-0.2737-1.827929-0.537785-2.713548l2.325608-1.453247-0.804624-1.941768-2.670444 0.617835c-0.43861-0.812085-0.952659-1.581098-1.535351-2.29687l1.592825-2.2311856-1.48609-1.4860895-2.231186 1.5928247c-0.716337-0.5835123-1.486043-1.0982536-2.298922-1.5374036l0.617836-2.670445-1.941769-0.8046227-1.451195 2.327659c-0.884817-0.2653484-1.792657-0.4467791-2.711495-0.5418888l-0.453628-2.7032864zm-0.523414 5.8889357v4.2653212c-3.375394 0.7405-5.780392 3.730521-5.780148 7.186184 1.96e-4 1.404827 0.40263 2.780226 1.159725 3.963588l-3.0173362 3.017336c-1.5221652-2.008984-2.3460333-4.460407-2.3461322-6.980924 4.006e-4 -5.775112 4.2627244-10.66399 9.9838914-11.451505zm3.152806 0c5.721167 0.7875152 9.983491 5.6763932 9.983891 11.451505-7.9e-5 2.524036-0.826227 4.97869-2.35229 6.989135l-3.017335-3.017336c0.760769-1.185053 1.165418-2.563564 1.165882-3.971799 2.44e-4 -3.455663-2.404755-6.445685-5.780148-7.186184zm-1.640034 7.2477622c0.02121-1.61e-4 0.04242-1.61e-4 0.06363 0 2.321663 0 4.203744 1.882079 4.203744 4.203743 0 2.321663-1.882081 4.203744-4.203744 4.203744s-4.203744-1.88208-4.203744-4.203744c-2.62e-4 -2.297039 1.843338-4.168974 4.140114-4.203743zm-3.904063 10.396464c1.1841 0.759293 2.561061 1.163193 3.967694 1.163829 1.403226-3.66e-4 2.777077-0.402051 3.959483-1.157671l3.017335 3.017335c-2.008124 1.520584-4.457942 2.343678-6.976818 2.34408-2.522158 2.06e-4 -4.975184-0.824438-6.985029-2.348185z" fill-opacity=".156863"/>
        <path d="m17.483629 2.8807176-0.449522 2.7053389c-0.919465 0.0943123-1.827997 0.2750567-2.713549 0.5398364l-1.451194-2.3276591-1.941768 0.8046228 0.617835 2.6724973c-0.812085 0.4386088-1.5810981 0.9526581-2.2968698 1.5353511l-2.2311862-1.5948771-1.4881409 1.4860884 1.5969296 2.2311857c-0.5835123 0.716337-1.0982535 1.486044-1.5374035 2.298923l-2.6724975-0.617835-0.8046228 1.941768 2.3276592 1.453247c-0.2645275 0.884217-0.4452695 1.791363-0.5398363 2.709444l-2.7073918 0.451574v2.101872l2.7094442 0.451574c0.09444 0.918773 0.2751829 1.826612 0.5398364 2.711496l-2.3297117 1.4553 0.8046228 1.941768 2.6745499-0.619887c0.437957 0.812002 0.9513173 1.581012 1.5332986 2.296869l-1.5948771 2.233238 1.4860884 1.48609 2.2352912-1.594878c0.7158573 0.581981 1.4848673 1.095342 2.2968693 1.533299l-0.619887 2.676602 1.941768 0.80257 1.453247-2.329711c0.884217 0.264527 1.791363 0.445269 2.709444 0.539836l0.451574 2.709444h2.101872l0.451573-2.709444c0.918707-0.09377 1.826545-0.273825 2.711497-0.537783l1.453248 2.327658 1.941768-0.80257-0.617835-2.67455c0.811292-0.438068 1.57961-0.951425 2.294816-1.533299l2.233239 1.594877 1.486089-1.486088-1.594877-2.233239c0.583512-0.716336 1.098254-1.486043 1.537404-2.298921l2.672497 0.619887 0.804623-1.941768-2.327659-1.453247c0.264527-0.884217 0.445269-1.791363 0.539836-2.709444l2.705339-0.451574v-2.101872l-2.705339-0.451574c-0.09364-0.919399-0.273699-1.82793-0.537784-2.713549l2.325607-1.453247-0.804623-1.941768-2.670445 0.617835c-0.438609-0.812085-0.952658-1.581098-1.535351-2.29687l1.592825-2.2311851-1.486089-1.4860896-2.231186 1.5928247c-0.716337-0.5835122-1.486043-1.0982535-2.298922-1.5374035l0.617835-2.6704449-1.941768-0.8046228-1.451195 2.3276591c-0.884817-0.2653485-1.792657-0.4467791-2.711496-0.5418888l-0.453627-2.7032865zm-0.523415 5.8889357v4.2653207c-3.375393 0.7405-5.780391 3.730521-5.780147 7.186185 1.96e-4 1.404827 0.40263 2.780225 1.159724 3.963588l-3.0173353 3.017335c-1.5221653-2.008984-2.3460334-4.460406-2.3461323-6.980923 4.006e-4 -5.775113 4.2627246-10.66399 9.9838906-11.451506zm3.152807 0c5.721167 0.787515 9.98349 5.6763927 9.983891 11.451506-7.9e-5 2.524036-0.826227 4.978689-2.35229 6.989134l-3.017335-3.017335c0.760769-1.185054 1.165418-2.563565 1.165882-3.971799 2.44e-4 -3.455664-2.404755-6.445686-5.780148-7.186185zm-1.640034 7.2477617c0.02121-1.61e-4 0.04242-1.61e-4 0.06363 0 2.321663 0 4.203743 1.88208 4.203743 4.203744 0 2.321663-1.88208 4.203743-4.203743 4.203743-2.321663 1e-6 -4.203744-1.882079-4.203744-4.203743-2.63e-4 -2.29704 1.843337-4.168975 4.140113-4.203744zm-3.904063 10.396465c1.184099 0.759293 2.561061 1.163192 3.967694 1.163829 1.403226-3.67e-4 2.777076-0.402052 3.959482-1.157671l3.017336 3.017335c-2.008124 1.520584-4.457942 2.343677-6.976818 2.34408-2.522158 2.06e-4 -4.975184-0.824438-6.985029-2.348185z" fill="url(#linearGradient1182)"/>
    </g>
</svg>
