<svg version="1.1" viewBox="0 0 48 48" xmlns="http://www.w3.org/2000/svg" xmlns:xlink="http://www.w3.org/1999/xlink">
    <defs>
        <linearGradient id="linearGradient894" x1="8" x2="8" y1="38" y2="44" gradientTransform="translate(40,-5)" gradientUnits="userSpaceOnUse">
            <stop stop-color="#f1f1f1" offset="0"/>
            <stop stop-color="#dedede" offset="1"/>
        </linearGradient>
        <linearGradient id="linearGradient914" x1="23" x2="23" y1="38" y2="4" gradientTransform="matrix(1 0 0 .95 0 2.2)" gradientUnits="userSpaceOnUse">
            <stop stop-color="#a8a8a8" offset="0"/>
            <stop stop-color="#ccc" offset="1"/>
        </linearGradient>
        <linearGradient id="linearGradient931" x1="24" x2="24.000004" y1="24" y2="51.5" gradientTransform="matrix(.8 0 0 .8 6.7999971 -15.2)" gradientUnits="userSpaceOnUse">
            <stop stop-color="#0074ff" offset="0"/>
            <stop stop-color="#006aff" offset="1"/>
        </linearGradient>
        <linearGradient id="linearGradient17435-3-2" x1="3395.8594" x2="3364.8254" y1="1534.8274" y2="1389.7089" gradientTransform="matrix(.15801368 0 0 -.1534592 -662.18102 427.97875)" gradientUnits="userSpaceOnUse" xlink:href="#linearGradient5126-9"/>
        <linearGradient id="linearGradient5126-9">
            <stop stop-opacity=".07843138" offset="0"/>
            <stop stop-opacity="0" offset="1"/>
        </linearGradient>
        <linearGradient id="linearGradient17458-1" x1="1664.6449" x2="1536.4282" y1="3954.7705" y2="3932.3328" gradientTransform="matrix(.15801368 0 0 -.15345921 -676.63831 399.27875)" gradientUnits="userSpaceOnUse">
            <stop stop-opacity=".12254902" offset="0"/>
            <stop stop-opacity="0" offset="1"/>
        </linearGradient>
        <linearGradient id="linearGradient17419-2-6" x1="4552.5771" x2="4462.8257" y1="2938.6541" y2="2999.5566" gradientTransform="matrix(.15801368 0 0 -.15345921 -916.92712 410.27031)" gradientUnits="userSpaceOnUse" xlink:href="#linearGradient5126-9"/>
        <linearGradient id="linearGradient17521-2" x1="4730.3306" x2="4768.7744" y1="1641.3304" y2="1593.2493" gradientTransform="matrix(.15801368 0 0 -.15345921 -661.65135 427.97871)" gradientUnits="userSpaceOnUse" xlink:href="#linearGradient5126-9"/>
        <linearGradient id="linearGradient17531-6" x1="4328.1982" x2="4417.9497" y1="1339.1514" y2="1323.1244" gradientTransform="matrix(.15801368 0 0 -.15345921 -661.65135 428.36779)" gradientUnits="userSpaceOnUse" xlink:href="#linearGradient5126-9"/>
        <linearGradient id="linearGradient5010-0" x1="5709.9092" x2="5721.6445" y1="3656.1304" y2="3747.1934" gradientTransform="matrix(.15801368 0 0 -.15345921 -661.65135 427.97871)" gradientUnits="userSpaceOnUse" xlink:href="#linearGradient5126-9"/>
        <linearGradient id="linearGradient5057-0" x1="3550.0103" x2="3457.928" y1="166.40623" y2="68.058289" gradientTransform="matrix(.15801368 0 0 -.15345921 -660.14091 327.89011)" gradientUnits="userSpaceOnUse" xlink:href="#linearGradient5126-9"/>
    </defs>
    <path d="m8 39v3c0 1.662 1.338 3 3 3h26c1.662 0 3-1.338 3-3v-3h-29z" fill="#a8a8a8" stroke-linecap="round" stroke-linejoin="round" stroke-width="2"/>
    <rect x="8.000001" y="6" width="31.999998" height="38" rx="3" ry="3" fill="url(#linearGradient914)" stroke-width="1.42892"/>
    <g stroke-linecap="round" stroke-linejoin="round" stroke-width="2">
        <path d="m8 38v3c0 1.662 1.338 3 3 3h26c1.662 0 3-1.338 3-3v-3h-32z" fill="url(#linearGradient894)"/>
        <circle cx="36" cy="41" r="1" fill="#77b81a"/>
        <path d="m 34,5 a 8,8 0 0 0 -8,8 8,8 0 0 0 0.933594,3.75 L 34,27 41.066406,16.75 A 8,8 0 0 0 42,13 8,8 0 0 0 34,5 Z" fill-opacity=".16"/>
        <path d="m 34,4 a 8,8 0 0 0 -8,8 8,8 0 0 0 0.933594,3.75 L 34,26 41.066406,15.75 A 8,8 0 0 0 42,12 8,8 0 0 0 34,4 Z" fill="url(#linearGradient931)"/>
    </g>
    <g transform="matrix(.01058201 0 0 .01071564 34.117725 12.468714)" fill-rule="evenodd" stroke-width="2">
        <g>
            <path d="m-328.23452 153.60753 335.72868 135.1346 327.5136 28.37696c-185.63783-195.10037 0 0-185.63783-195.10037l-127.10708 100.45482z" fill="#e5e5e5"/>
            <path d="m-328.23452 153.60756 202.9347 138.51915 106.52754 84.07899 29.89244-85.95264 13.64722-79.39643z" fill="#f6f6f6" opacity=".99989"/>
            <path d="m-328.76411 153.60759 174.2357 200.69541 135.75612 21.9027 41.03546-153.34298z" fill="url(#linearGradient17435-3-2)"/>
            <path d="m-243.65806 376.2057 118.35824-84.07899 106.52754 84.07899" fill="#eaeaea"/>
            <path d="m-203.10263-323.58244-234.81112-0.12326 24.31202 116.0885 85.36721 361.22473 226.91181-330.55717z" fill="#fcfcfc"/>
            <path d="m-437.91375-323.7057-45.71126 132.11726 70.02328-16.02876z" fill="#fcfcfc"/>
        </g>
        <path d="m-101.32264-176.94964 123.58576 399.42325-350.49764-68.86605 226.91188-330.5572" fill="#333"/>
        <g>
            <path d="m22.263175 222.47364 358.60166-391.55286-482.18747-7.87042-226.91188 330.55723z" fill="#ececec"/>
            <path d="m-328.76431 153.60756 350.49776 68.86608 439.64154-324.65437-563.22743-74.76891-226.91188 330.5572" fill="#f1f1f1"/>
            <path d="m-437.91375-323.7057-45.71126 132.11726 70.02328-16.02876z" fill="url(#linearGradient17458-1)"/>
            <path d="m-160.07662-296.97336-263.37981 1.9676 95.22191 448.61329 226.91181-330.55717z" fill="url(#linearGradient17419-2-6)"/>
            <path d="m21.733455 222.47367 25.16913 20.99179 131.08264-80.00003-25.74964-37.27279z" fill="url(#linearGradient17521-2)"/>
            <path d="m22.263175 222.86272-11.14302 67.39034 19.7535 8.85421 16.02893-55.25273z" fill="url(#linearGradient17531-6)"/>
            <path d="m-101.85243-176.94964 482.71726 7.87044-46.18388 49.65978z" fill="url(#linearGradient5010-0)"/>
            <path d="m-243.65806 376.2057 118.35824-84.07898 106.52754 84.07898" fill="url(#linearGradient5057-0)"/>
        </g>
    </g>
</svg>
