<svg version="1.1" viewBox="0 0 48 48" xmlns="http://www.w3.org/2000/svg" xmlns:xlink="http://www.w3.org/1999/xlink">
    <defs>
        <linearGradient id="linearGradient917" x1="44" x2="40" y1="14" y2="42" gradientTransform="translate(40.665522,-1.6213313)" gradientUnits="userSpaceOnUse">
            <stop stop-color="#b2b2b2" offset="0"/>
            <stop stop-color="#8f8f8f" offset="1"/>
        </linearGradient>
        <linearGradient id="linearGradient1138" x1="-1.5020471" x2="-1.4929255" y1="28.569153" y2="11.485515" gradientTransform="matrix(1 0 0 .94161754 5.4545465 -.33236313)" gradientUnits="userSpaceOnUse">
            <stop stop-opacity=".054902" offset="0"/>
            <stop stop-opacity="0" offset="1"/>
        </linearGradient>
        <style id="current-color-scheme" type="text/css">.ColorScheme-Highlight {
    color:#006aff;
    }
    .ColorScheme-HighlightedText {
    color:#ffffff;
    }</style>
        <linearGradient id="linearGradient955" x1="3.9999998" x2="3.9999998" y1="32" y2="5.0000019" gradientUnits="userSpaceOnUse">
            <stop stop-opacity=".77999997" offset="0"/>
            <stop stop-opacity=".69999999" offset="1"/>
        </linearGradient>
    </defs>
    <path d="m14.184556 11.029818 27.144681 3.916647c1.61123 0.232482 2.72707 1.758774 2.501881 3.422182l-2.980838 22.018637c-0.225188 1.663408-1.703605 2.815382-3.314836 2.582901l-27.144681-3.916649c-1.6112308-0.232481-2.7270693-1.758774-2.5018808-3.422182l2.9808378-22.018637c0.225188-1.663408 1.703605-2.81538 3.314836-2.582899z" fill="#686868"/>
    <path d="m14.324556 10.029818 27.144681 3.916647c1.61123 0.232482 2.72707 1.758774 2.501881 3.422182l-2.980838 22.018636c-0.225188 1.663408-1.703605 2.815382-3.314836 2.582901l-27.144681-3.916649c-1.6112307-0.232481-2.7270695-1.758774-2.5018808-3.422182l2.9808378-22.018636c0.225188-1.663408 1.703605-2.81538 3.314836-2.582899z" fill="url(#linearGradient917)"/>
    <g fill="#fff">
        <rect transform="matrix(.98896412 .1481552 -.13634393 .99066156 0 0)" x="15.423779" y="11.687138" width="28.278727" height="2.1037784" rx=".99988204" ry=".99989903"/>
        <rect transform="matrix(.98896911 .1481219 -.13637469 .99065733 0 0)" x="15.350862" y="17.75522" width="28.291138" height="2.1042376" rx=".9998821" ry=".99989909"/>
        <rect transform="matrix(.98896412 .1481552 -.13634393 .99066156 0 0)" x="15.37575" y="23.807438" width="28.278727" height="2.1037784" rx=".99988204" ry=".99989903"/>
        <rect transform="rotate(8.567974)" x="15.809431" y="29.844826" width="14.13542" height="2.0934775" rx=".99988192" ry=".99989903"/>
        <rect transform="rotate(8.5679781)" x="36.740734" y="29.830547" width="7.3474102" height="2.0942533" rx=".99988192" ry=".87599421"/>
        <rect transform="rotate(8.5679781)" x="31.77146" y="29.836149" width="2.9267259" height="2.0866942" rx=".99988192" ry=".87599421"/>
    </g>
    <rect class="ColorScheme-Highlight" x="4" y="6" width="34" height="26.999998" rx="3" ry="2.9999998" fill="currentColor"/>
    <rect x="4" y="6" width="34" height="27" rx="3" ry="3" fill-opacity=".97000003"/>
    <rect class="ColorScheme-Highlight" x="3.9999998" y="5.0000019" width="34" height="26.999998" rx="3" ry="2.9999998" fill="currentColor"/>
    <rect class="ColorScheme-Highlight" x="4.0000019" y="5.0000019" width="34" height="26.999998" rx="3" ry="2.9999998" fill="url(#linearGradient955)"/>
    <path class="ColorScheme-Highlight" d="m20.664062 10.503465c-0.372208 0.02286-0.723358 0.162384-0.992187 0.391728-0.374758 0.319714-0.648767 0.75839-0.894531 1.270816-0.491529 1.024853-0.856234 2.371834-1.22461 3.718653-0.368375 1.346824-0.740299 2.692104-1.185546 3.639573-0.222624 0.473734-0.465641 0.84465-0.695313 1.061159s-0.402878 0.283746-0.632813 0.266669a0.50005 0.47085585 0 0 0-0.039062-0.001839c-0.194826 2.39e-4 -0.311-0.04638-0.443359-0.154484-0.13236-0.108097-0.268988-0.295645-0.392579-0.553569-0.247175-0.515846-0.427878-1.289174-0.609374-2.09473-0.1815-0.805558-0.365327-1.64446-0.707032-2.350366-0.341705-0.705907-0.915562-1.330718-1.785156-1.434496a0.50005 0.47085585 0 0 0-0.04297-0.0037c-1.1009968-0.03939-1.9187439 0.531119-2.3925779 1.289208-0.4738339 0.758087-0.706484 1.697948-0.9179687 2.628068-0.2114847 0.930121-0.3984875 1.852509-0.6835938 2.521403-0.2851062 0.668893-0.5939861 1.019298-1.1074218 1.099779a0.50005 0.47085585 0 0 0-0.00586 0.0019c-0.7349902 0.122893-1.2637244 0.038796-1.7421859-0.410158-0.0582148-0.054625-0.1131046-0.139055-0.1699219-0.207819v1.259782c0.6325796 0.343665 1.3705018 0.404388 2.0859375 0.285061h0.00195c0.9436892-0.150823 1.5219261-0.871816 1.8652344-1.677257 0.3441003-0.8073 0.5268914-1.763362 0.734375-2.675885 0.2074836-0.912524 0.4443377-1.778252 0.8007812-2.348527 0.3502078-0.560299 0.7253699-0.83273 1.4609379-0.81656 0.440276 0.05836 0.720483 0.327702 0.988281 0.880928 0.271058 0.559961 0.459637 1.350292 0.640625 2.153583 0.180988 0.803289 0.352525 1.617295 0.673828 2.287835 0.160652 0.335271 0.361461 0.641286 0.650391 0.87725 0.282838 0.230988 0.663866 0.371371 1.074218 0.377015 0.539007 0.03425 1.036123-0.189944 1.402344-0.535178 0.370259-0.349039 0.651583-0.810769 0.902344-1.344379 0.501523-1.06722 0.871863-2.438054 1.240234-3.784862 0.368372-1.346804 0.735941-2.669288 1.166016-3.566008 0.215037-0.44836 0.449953-0.784012 0.65625-0.960008 0.206297-0.175997 0.331387-0.215484 0.552734-0.171037a0.50005 0.47085585 0 0 0 0.109375 0.01104c0.148408-0.0019 0.320922 0.08187 0.560547 0.417475 0.239626 0.3356 0.483362 0.880039 0.705078 1.552198 0.443434 1.344317 0.810817 3.197245 1.181641 5.066711 0.370824 1.869467 0.746316 3.757431 1.238281 5.230392 0.245983 0.73648 0.518253 1.369542 0.863282 1.863004 0.345027 0.493463 0.803128 0.883587 1.40039 0.934262a0.50005 0.47085585 0 0 0 0.04883 0.0019c0.527862-0.0032 0.9621-0.331835 1.230469-0.7338 0.268369-0.401964 0.443675-0.903536 0.591797-1.48599 0.296243-1.164907 0.464328-2.658278 0.675781-4.15268 0.211453-1.494404 0.467324-2.986993 0.888672-4.084634 0.210674-0.548821 0.463397-0.994541 0.742187-1.292886 0.268703-0.287549 0.547634-0.429716 0.892579-0.476325 0.67531 0.05026 1.010708 0.307992 1.314453 0.783455 0.313656 0.490977 0.52741 1.211842 0.777344 1.962317 0.249932 0.750473 0.538975 1.540419 1.134765 2.160937 0.59115 0.615689 1.50671 1.00128 2.748047 0.943458v-0.93794a0.5 0.47080877 0 0 0-0.02734 0c-1.032275 0.0537-1.56627-0.206971-1.978515-0.636327-0.412246-0.429357-0.68275-1.087626-0.923829-1.811511-0.241078-0.723884-0.449232-1.503043-0.873046-2.166456-0.423815-0.663412-1.14412-1.201448-2.169922-1.254264a0.50005 0.47085585 0 0 0-0.08594 0.0037c-0.625816 0.0688-1.158956 0.375766-1.560547 0.805524-0.40159 0.429758-0.69249 0.978421-0.929687 1.596337-0.474394 1.23583-0.725871 2.771962-0.939453 4.281416-0.213583 1.509455-0.38767 2.99324-0.658203 4.057048-0.135267 0.531904-0.299555 0.957038-0.464844 1.204608-0.155218 0.232487-0.248738 0.267749-0.369141 0.274026-0.175485-0.02352-0.383326-0.140741-0.630859-0.494765-0.257561-0.368367-0.513288-0.936418-0.744141-1.627601-0.461705-1.382361-0.836369-3.251393-1.207031-5.120046-0.370662-1.868651-0.737299-3.737489-1.210938-5.173378-0.236819-0.717945-0.496517-1.326904-0.832031-1.796798-0.324325-0.454223-0.78902-0.790351-1.353515-0.807363-0.126483-0.01953-0.252884-0.02417-0.376954-0.01655z" fill="currentColor" stroke-width=".999995"/>
    <path d="m20.664062 10.503465c-0.372208 0.02286-0.723358 0.162383-0.992187 0.391728-0.374758 0.319713-0.648767 0.758389-0.894531 1.270815-0.491529 1.024853-0.856234 2.371834-1.22461 3.718653-0.368375 1.346824-0.740299 2.692104-1.185546 3.639573-0.222624 0.473735-0.465641 0.844651-0.695313 1.06116s-0.402878 0.283746-0.632813 0.266669a0.50005 0.47085585 0 0 0-0.039062-0.001884c-0.194826 2.39e-4 -0.311-0.04638-0.443359-0.154483-0.13236-0.108097-0.268988-0.295646-0.392579-0.553569-0.247175-0.515847-0.427878-1.289175-0.609374-2.094732-0.1815-0.805557-0.365327-1.644459-0.707032-2.350366-0.341705-0.705906-0.915562-1.330717-1.785156-1.434495a0.50005 0.47085585 0 0 0-0.04297-0.0037c-1.1009969-0.03935-1.9187439 0.531153-2.3925779 1.289242-0.4738339 0.758088-0.706484 1.697949-0.9179687 2.628069-0.2114848 0.93012-0.3984875 1.85251-0.6835938 2.521403-0.2851062 0.668893-0.5939861 1.019298-1.1074218 1.099779a0.50005 0.47085585 0 0 0-0.00586 0.0019c-0.7349902 0.122903-1.2637244 0.038805-1.7421859-0.410148-0.058215-0.054623-0.1131047-0.139055-0.1699219-0.207819v1.259782c0.6325796 0.343665 1.3705018 0.404388 2.0859375 0.285061h0.00195c0.9436923-0.150823 1.5219292-0.871816 1.8652375-1.677257 0.3441003-0.8073 0.5268914-1.763363 0.734375-2.675886 0.2074835-0.912524 0.4443377-1.778252 0.8007812-2.348527 0.3502078-0.560299 0.7253698-0.83273 1.4609378-0.81656 0.440276 0.05836 0.720483 0.327702 0.988281 0.880928 0.271058 0.559961 0.459637 1.350292 0.640625 2.153583 0.180988 0.803289 0.352525 1.617295 0.673828 2.287836 0.160652 0.335271 0.361461 0.641286 0.650391 0.87725 0.282838 0.230988 0.663866 0.371371 1.074218 0.377015 0.539007 0.03425 1.036123-0.189944 1.402344-0.535178 0.370259-0.349039 0.651583-0.810769 0.902344-1.34438 0.501523-1.06722 0.871863-2.438054 1.240234-3.784862 0.368372-1.346804 0.735941-2.669288 1.166016-3.566008 0.215037-0.44836 0.449953-0.784011 0.65625-0.960008s0.331387-0.215484 0.552734-0.171037a0.50005 0.47085585 0 0 0 0.109375 0.01104c0.148408-0.0019 0.320922 0.08187 0.560547 0.417475 0.239626 0.3356 0.483362 0.880039 0.705078 1.552198 0.443434 1.344317 0.810817 3.197245 1.181641 5.066711 0.370824 1.869468 0.746316 3.757432 1.238281 5.230393 0.245983 0.73648 0.518253 1.369542 0.863282 1.863004 0.345027 0.493463 0.803128 0.883587 1.40039 0.934262a0.50005 0.47085585 0 0 0 0.04883 0.0019c0.527862-0.0032 0.9621-0.331835 1.230469-0.7338 0.268369-0.401964 0.443675-0.903536 0.591797-1.48599 0.296243-1.164907 0.464328-2.658278 0.675781-4.15268 0.211453-1.494405 0.467324-2.986994 0.888672-4.084635 0.210674-0.548821 0.463397-0.994541 0.742187-1.292885 0.268703-0.28755 0.547634-0.429717 0.892579-0.476326 0.67531 0.05026 1.010708 0.307992 1.314453 0.783455 0.313656 0.490977 0.52741 1.211842 0.777344 1.962317 0.249932 0.750473 0.538975 1.540419 1.134765 2.160937 0.59115 0.615689 1.50671 1.001281 2.748047 0.943459v-0.937941a0.5 0.47080877 0 0 0-0.02734 0c-1.032275 0.0537-1.56627-0.206971-1.978515-0.636327-0.412252-0.429401-0.682756-1.08767-0.923835-1.811555-0.241078-0.723884-0.449232-1.503043-0.873046-2.166456-0.423815-0.663412-1.14412-1.201448-2.169922-1.254264a0.50005 0.47085585 0 0 0-0.08594 0.0037c-0.625816 0.0688-1.158956 0.375766-1.560547 0.805524-0.40159 0.429758-0.69249 0.978421-0.929687 1.596337-0.474394 1.235829-0.725871 2.771962-0.939453 4.281417-0.213583 1.509455-0.38767 2.99324-0.658203 4.057048-0.135267 0.531903-0.299555 0.957038-0.464844 1.204608-0.155218 0.232486-0.248738 0.267749-0.369141 0.274026-0.175485-0.02347-0.383326-0.140693-0.630859-0.494718-0.257559-0.36836-0.513286-0.936412-0.744139-1.627595-0.461705-1.382408-0.836369-3.251441-1.207031-5.120094-0.370662-1.868652-0.737299-3.737489-1.210938-5.173379-0.236819-0.717945-0.496517-1.326904-0.832031-1.796797-0.324325-0.454224-0.78902-0.790351-1.353515-0.807364-0.126483-0.01953-0.252884-0.02417-0.376954-0.01655z" fill="url(#linearGradient1138)" stroke-width=".999995"/>
</svg>
