<svg version="1.1" viewBox="0 0 64 64" xmlns="http://www.w3.org/2000/svg" xmlns:xlink="http://www.w3.org/1999/xlink">
    <defs>
        <style id="current-color-scheme" type="text/css">.ColorScheme-Highlight {
        color:#006aff;
      }
      .ColorScheme-HighlightedText {
        color:#ffffff;
      }</style>
        <linearGradient id="linearGradient1893-6" x2="0" y1="43" y2="35.79661" gradientTransform="matrix(.453125 0 0 .5552941 3 -.8776383)" gradientUnits="userSpaceOnUse">
            <stop stop-opacity=".1568628" offset="0"/>
            <stop stop-opacity="0" offset="1"/>
        </linearGradient>
        <linearGradient id="linearGradient887-2" x1="12" x2="12" y1="39.41328" y2="17.414" gradientTransform="matrix(1.45,0,0,1.545454,-14.4,-3.912799)" gradientUnits="userSpaceOnUse">
            <stop stop-opacity=".05490196" offset="0"/>
            <stop stop-color="#000008" stop-opacity="0" offset="1"/>
        </linearGradient>
        <filter id="filter881" x="-.051169982" y="-.064402731" width="1.10234" height="1.1288055" color-interpolation-filters="sRGB">
            <feGaussianBlur stdDeviation="0.97209333"/>
        </filter>
        <linearGradient id="linearGradient1085-2" x1="20.011" x2="20.028999" y1="27.975" y2="20.023001" gradientTransform="matrix(1.25,0,0,1.25,1.999994,4.4999916)" gradientUnits="userSpaceOnUse">
            <stop stop-opacity=".054902" offset="0"/>
            <stop stop-opacity="0" offset="1"/>
        </linearGradient>
    </defs>
    <g transform="translate(5e-7 -.500002)">
        <path class="ColorScheme-Highlight" d="m3 24h58v29.40541c0 2.545406-2.020939 4.594594-4.53125 4.594594h-48.9375c-2.510312 0-4.53125-2.049188-4.53125-4.594594z" fill="currentColor"/>
        <path d="M 3,24 H 61 V 53.405406 C 61,55.950812 58.979061,58 56.46875,58 H 7.53125 C 5.020938,58 3,55.950812 3,53.405406 Z" fill-opacity=".27451" stroke-width=".425735"/>
        <path class="ColorScheme-Highlight" d="M 32.23577,12.738988 H 56.284551 C 58.88882,12.738988 61,14.880181 61,17.521477 V 52.217558 C 61,54.858861 58.88882,57 56.284551,57 H 7.7154466 C 5.1111776,57 3,54.858861 3,52.217558 V 11.782491 C 3,9.1411937 5.1111776,7 7.7154466,7 H 26.105688 Z" fill="currentColor"/>
        <path d="M 32.23577,12.738988 H 56.284551 C 58.88882,12.738988 61,14.880181 61,17.521477 V 52.217558 C 61,54.858861 58.88882,57 56.284551,57 H 7.7154466 C 5.1111765,57 3,54.858861 3,52.217558 V 11.782491 C 3,9.1411937 5.1111765,7 7.7154466,7 H 26.105688 Z" fill-opacity=".156863" stroke-width=".474885"/>
        <rect transform="rotate(-3.5151507,59.820857,35.874096)" x="10" y="18.020411" width="44" height="34" rx="3.4375" fill-opacity=".156863" filter="url(#filter881)" stroke-width=".37081"/>
        <rect transform="rotate(-3.5219755)" x="7.696034" y="21.417709" width="44" height="34" rx="3.4375" fill="#fff"/>
        <path class="ColorScheme-Highlight" d="m3 23h58v29.40541c0 2.545405-2.020939 4.594594-4.531251 4.594594h-48.9375c-2.510312 0-4.53125-2.049189-4.53125-4.594594z" fill="currentColor"/>
        <path d="m3 22.99975h58v29.40541c0 2.545406-2.02094 4.594594-4.531251 4.594594h-48.9375c-2.510312 0-4.53125-2.049188-4.53125-4.594594z" fill="url(#linearGradient887-2)" stroke-width=".425735"/>
        <rect x="3" y="19" width="58" height="4" fill="url(#linearGradient1893-6)"/>
        <rect x="35" y="34.500004" width="1" height="14" rx=".5" ry=".5" fill-opacity=".156863" stroke-width="1.18322"/>
        <rect x="35" y="33.500004" width="1" height="14" rx=".5" ry=".5" fill="#fff" stroke-width="1.18322"/>
        <rect x="28" y="34.500004" width="1" height="18" rx=".5" ry=".5" fill-opacity=".156863" stroke-width="1.13389"/>
        <rect x="28" y="33.500004" width="1" height="18" rx=".5" ry=".5" fill="#fff" stroke-width="1.13389"/>
        <circle cx="32" cy="35.500004" r="5" fill-opacity=".15686" stroke-width="1.25"/>
        <circle cx="32" cy="34.500004" r="5" fill="#fff" stroke-width="1.25"/>
        <circle cx="32" cy="34.500004" r="5" fill="url(#linearGradient1085-2)" stroke-width="1.24999"/>
        <circle class="ColorScheme-Highlight" cx="32" cy="34.500004" r="2.5" color="#006aff" fill="currentColor" stroke-width="1.66666"/>
    </g>
</svg>
