<svg width="64" height="64" version="1.1" viewBox="0 0 64 64.000002" xmlns="http://www.w3.org/2000/svg" xmlns:xlink="http://www.w3.org/1999/xlink">
    <defs>
        <linearGradient id="linearGradient874">
            <stop stop-color="#3125af" offset="0"/>
            <stop stop-color="#5ba6ee" offset=".36666667"/>
            <stop stop-color="#afe859" offset="1"/>
        </linearGradient>
        <linearGradient id="linearGradient876" x1="2" x2="62" y1="998.36218" y2="1043.3622" gradientTransform="matrix(.96666667 0 0 .97777778 1.0666662 22.185901)" gradientUnits="userSpaceOnUse" xlink:href="#linearGradient874"/>
        <linearGradient id="linearGradient910" x1="60" x2="60" y1="1041.3622" y2="1000.3622" gradientTransform="matrix(.96428567 0 0 .97560976 1.1428571 24.399146)" gradientUnits="userSpaceOnUse">
            <stop offset="0"/>
            <stop stop-color="#1a1a1a" offset="1"/>
        </linearGradient>
        <linearGradient id="linearGradient876-9" x1="2" x2="62" y1="998.36218" y2="1043.3622" gradientTransform="matrix(.96666667 0 0 .97777778 1.0666661 -966.17633)" gradientUnits="userSpaceOnUse" xlink:href="#linearGradient874"/>
    </defs>
    <g transform="translate(0,-988.3622)">
        <g transform="translate(0,1)" stroke-width="1.01544">
            <path transform="translate(0,988.3622)" d="m3 44v6c0 2.216 1.784 4 4 4h50c2.216 0 4-1.784 4-4v-6z" fill="url(#linearGradient876-9)"/>
            <path d="m3 1032.3622v6c0 2.216 1.784 4 4 4h50c2.216 0 4-1.784 4-4v-6z" fill-opacity=".156863"/>
        </g>
        <g>
            <rect x="3" y="998.36218" width="58" height="44" rx="4" ry="4" fill="url(#linearGradient876)" stroke-width="1.01544"/>
            <rect x="5" y="1000.3622" width="54" height="40" rx="3" ry="3" fill="url(#linearGradient910)" stroke-width="1.10004"/>
            <path d="m10 1005.8153v-1.453l7.999999 3.3373v1.3253l-7.999999 3.3373v-1.461l6.433301-2.531z" fill="#fff"/>
            <path d="m28.000001 1011.3622v1h-8v-1z" fill="#fff"/>
        </g>
    </g>
</svg>
