<svg width="64" height="64" version="1.1" viewBox="0 0 64 63.999999" xmlns="http://www.w3.org/2000/svg">
    <defs>
        <style id="current-color-scheme" type="text/css">.ColorScheme-Highlight {
        color:#006aff;
      }
      .ColorScheme-HighlightText {
        color:#ffffff;
      }</style>
        <linearGradient id="linearGradient866" x1="4" x2="4" y1="10.23" y2="7.4896002" gradientTransform="matrix(1.4499897,0,0,3.1379848,-2.7986735,-14.880345)" gradientUnits="userSpaceOnUse">
            <stop stop-opacity=".15686" offset="0"/>
            <stop stop-opacity="0" offset="1"/>
        </linearGradient>
        <linearGradient id="linearGradient890" x1="4" x2="4" y1="41" y2="10.903" gradientTransform="matrix(1.45,0,0,1.4598459,-51.010999,-47.551297)" gradientUnits="userSpaceOnUse">
            <stop stop-opacity=".054902" offset="0"/>
            <stop stop-color="#000008" stop-opacity="0" offset="1"/>
        </linearGradient>
    </defs>
    <path id="Combined-Shape" class="ColorScheme-Highlight" d="m32.235523 12.73937h24.048782c2.604269 0 4.715449 2.141193 4.715449 4.782488v34.696081c0 2.641303-2.11118 4.782443-4.715449 4.782443h-48.569104c-2.604269 0-4.715447-2.14114-4.715447-4.782443v-40.435065c0-2.641299 2.111178-4.782492 4.715447-4.782492h18.39024z" fill="currentColor"/>
    <path d="m32.235523 12.73937h24.048782c2.604269 0 4.715449 2.141193 4.715449 4.782488v34.696081c0 2.641303-2.11118 4.782443-4.715449 4.782443h-48.569106c-2.60427 0-4.715446-2.14114-4.715446-4.782443v-40.435065c0-2.641299 2.111176-4.782492 4.715446-4.782492h18.390242z" fill-opacity=".156863" stroke-width=".474885"/>
    <path d="m7.5068155 7h18.639616c6.146092 5.767024-0.03965 0.04004 6.146092 5.767024l28.707723 11.829638c-4.505531 4.539709-2.00948 4.539709-4.505531 4.539709h-48.988936c-2.496053 0-4.505532-2.024742-4.505532-4.539709v-13.056952c0-2.51511 2.009479-4.53971 4.505532-4.53971z" fill="url(#linearGradient866)" stroke-width="2.07141"/>
    <path class="ColorScheme-Highlight" d="m2.9997535 24.571826h57.999998v28.91241c0 2.502624-2.020947 4.51759-4.53125 4.51759h-48.9375c-2.510364 0-4.531249-2.014801-4.531249-4.51759z" fill="currentColor" stroke-width="2.08036"/>
    <path d="m2.9997535 24.571826h57.999998v28.91241c0 2.502624-2.020947 4.51759-4.53125 4.51759h-48.9375c-2.510364 0-4.531249-2.014801-4.531249-4.51759z" fill-opacity=".27451" stroke-width=".422149"/>
    <g transform="matrix(1,0,0,1.0073579,48.210752,44.609236)">
        <rect class="ColorScheme-Highlight" x="-45.210999" y="-31.634645" width="58" height="43.936718" ry="4.8286939" fill="currentColor" stroke-width="2.0705"/>
        <rect x="-45.210999" y="-31.634645" width="58" height="43.936718" ry="4.8286939" fill="url(#linearGradient890)" stroke-width="2.0705"/>
        <rect x="-1.1889962" y="-6.3088164" width="6.7284141" height="12.117838" rx=".99735141" fill-opacity=".15686" stroke-width="2.06389"/>
    </g>
    <g transform="matrix(2.0714285,0,0,2.0714285,-1.1431035,-1.253399)">
        <rect class="ColorScheme-Highlight" x="23.826" y="23.042" width="2.0999999" height="1.3889" rx=".44235" fill="currentColor"/>
        <g fill="#fff">
            <rect x="23.252001" y="18.107" width="3.2481999" height="5.8927999" rx=".48148"/>
            <rect class="ColorScheme-HighlightText" x="23" y="8.0001001" width="2.0304999" height="1.5006" rx=".43926999"/>
            <rect x="24.384001" y="9.6372004" width="2.0304999" height="1.5006" rx=".43926999"/>
            <rect x="23" y="11.233" width="2.0304999" height="1.5006" rx=".43926999"/>
            <rect x="24.384001" y="12.87" width="2.0304999" height="1.5006" rx=".43926999"/>
            <rect x="23" y="14.504" width="2.0304999" height="1.5006" rx=".43926999"/>
            <rect x="24.384001" y="16.141001" width="2.0304999" height="1.5006" rx=".43926999"/>
        </g>
        <rect class="ColorScheme-Highlight" x="23.826" y="22.042" width="2.0999999" height="1.3889" rx=".44235" fill="currentColor"/>
    </g>
    <path d="m49.126323 44.404484h2.517407c0.507625 0 0.916297 0.442 0.916297 0.991014v0.863082l-4.35-0.02461v-0.838455c0-0.549033 0.408672-0.991013 0.916296-0.991013z" fill-opacity=".15686" stroke-width="2.07143"/>
</svg>
