<svg version="1.1" viewBox="0 0 48 48" xmlns="http://www.w3.org/2000/svg" xmlns:xlink="http://www.w3.org/1999/xlink">
    <defs>
        <radialGradient id="radialGradient1157" cx="16" cy="16" r="13" gradientTransform="matrix(1.4615384 0 0 1.4615383 .6153855 .6153835)" gradientUnits="userSpaceOnUse">
            <stop stop-opacity="0" offset="0"/>
            <stop stop-opacity=".00392157" offset=".78947359"/>
            <stop stop-opacity=".31999999" offset="1"/>
        </radialGradient>
        <linearGradient id="linearGradient928" x1="30" x2="1.9999994" y1="30" y2="2.0000005" gradientTransform="matrix(1.4285714,0,0,1.4285714,1.1428581,1.1428564)" gradientUnits="userSpaceOnUse">
            <stop stop-color="#9e9e9e" offset="0"/>
            <stop stop-color="#d1d1d1" offset=".31999999"/>
            <stop stop-color="#d1d1d1" offset=".5"/>
            <stop stop-color="#d1d1d1" offset=".67856085"/>
            <stop stop-color="#9e9e9e" offset="1"/>
        </linearGradient>
        <linearGradient id="linearGradient1112" x1="31.423828" x2="16.576172" y1="39.326172" y2="8.6738281" gradientTransform="matrix(1.0509358,0,0,1.0509358,-6.6858426,-5.0013011)" gradientUnits="userSpaceOnUse">
            <stop stop-color="#a3a3a3" offset="0"/>
            <stop stop-color="#dbdbdb" offset=".5"/>
            <stop stop-color="#dbdbdb" offset=".69999999"/>
            <stop stop-color="#a3a3a3" offset="1"/>
        </linearGradient>
        <linearGradient id="linearGradient928-1" x1="30" x2="30" y1="30" y2="2" gradientTransform="matrix(1.3571428,0,0,1.3571428,2.2857152,2.285713)" gradientUnits="userSpaceOnUse">
            <stop stop-color="#494949" offset="0"/>
            <stop stop-color="#9d9d9d" offset="1"/>
        </linearGradient>
        <linearGradient id="linearGradient1677" x1="30" x2="30" y1="18" y2="30" gradientUnits="userSpaceOnUse">
            <stop stop-opacity=".08" offset="0"/>
            <stop stop-opacity="0" offset="1"/>
        </linearGradient>
    </defs>
    <g stroke-width="1.42857">
        <circle cx="24" cy="25" r="20" fill="#9e9e9e"/>
        <circle cx="24" cy="25" r="20" fill-opacity=".27451"/>
        <circle cx="24" cy="24" r="20" fill="url(#linearGradient928)"/>
    </g>
    <circle cx="24" cy="24" r="19" fill="url(#linearGradient928-1)" stroke-width="1.42857"/>
    <circle cx="24" cy="24" r="19" fill-opacity=".156863"/>
    <circle cx="24" cy="24" r="19" fill="url(#radialGradient1157)"/>
    <path d="m23 8-0.779297 3.113281a14 14 0 0 0-1.886719 0.376953l-1.910156-2.5800778-1.847656 0.7636719 0.470703 3.1738279a14 14 0 0 0-1.607422 1.076172l-2.753906-1.652344-1.414063 1.414063 1.650391 2.753906a14 14 0 0 0-1.068359 1.599609l-3.173829-0.474609-0.765625 1.847656 2.578126 1.91211a14 14 0 0 0-0.378907 1.896484l-3.113281 0.779297v2l3.113281 0.779297a14 14 0 0 0 0.376953 1.886719l-2.580078 1.910156 0.763672 1.847656 3.173828-0.470703a14 14 0 0 0 1.076172 1.607422l-1.652344 2.753906 1.414063 1.414063 2.753906-1.650391a14 14 0 0 0 1.599609 1.068359l-0.474609 3.173828 1.847656 0.765626 1.91211-2.578126a14 14 0 0 0 1.896484 0.378907l0.779297 3.113281h2l0.779297-3.113281a14 14 0 0 0 1.886719-0.376953l1.910156 2.580078 1.847656-0.763672-0.470703-3.173828a14 14 0 0 0 1.607422-1.076172l2.753906 1.652344 1.414063-1.414063-1.650391-2.753906a14 14 0 0 0 1.068359-1.599609l3.173828 0.474609 0.765626-1.847656-2.578126-1.91211a14 14 0 0 0 0.378907-1.896484l3.113281-0.779297v-2l-3.113281-0.779297a14 14 0 0 0-0.376953-1.886719l2.580078-1.910156-0.763672-1.847656-3.173828 0.470703a14 14 0 0 0-1.076172-1.607422l1.652344-2.753906-1.414063-1.414063-2.753906 1.650391a14 14 0 0 0-1.599609-1.068359l0.474609-3.1738285-1.847656-0.765625-1.91211 2.5781255a14 14 0 0 0-1.896484-0.378907l-0.779297-3.113281zm1 6a11 11 0 0 1 4.148438 0.8125l-2.542969 4.40625a6 6 0 0 0-1.605469-0.21875 6 6 0 0 0-5.796875 4.449219h-5.09375a11 11 0 0 1 10.890625-9.449219zm6.746094 2.3125a11 11 0 0 1 4.253906 8.6875 11 11 0 0 1-4.251953 8.6875l-2.544922-4.40625a6 6 0 0 0 1.796875-4.28125 6 6 0 0 0-1.796875-4.28125zm-6.796875 5.6875a3 3 0 0 1 0.05078 0 3 3 0 0 1 3 2.949219 3 3 0 0 1 0 0.05078 3 3 0 0 1-3 3 3 3 0 0 1-3-3 3 3 0 0 1 2.949219-3zm-10.853516 4.449219h5.082031a6 6 0 0 0 5.822266 4.550781 6 6 0 0 0 1.605469-0.21875l2.544922 4.40625a11 11 0 0 1-4.150391 0.8125 11 11 0 0 1-10.904297-9.550781z" fill-opacity=".31999999" style="paint-order:fill markers stroke"/>
    <path d="m23 7-0.779297 3.113281a14 14 0 0 0-1.886719 0.376953l-1.910156-2.5800778-1.847656 0.7636719 0.470703 3.1738279a14 14 0 0 0-1.607422 1.076172l-2.753906-1.652344-1.414063 1.414063 1.650391 2.753906a14 14 0 0 0-1.068359 1.599609l-3.1738285-0.474609-0.765625 1.847656 2.5781255 1.91211a14 14 0 0 0-0.378907 1.896484l-3.113281 0.779297v2l3.113281 0.779297a14 14 0 0 0 0.376953 1.886719l-2.5800778 1.910156 0.7636719 1.847656 3.1738279-0.470703a14 14 0 0 0 1.076172 1.607422l-1.652344 2.753906 1.414063 1.414063 2.753906-1.650391a14 14 0 0 0 1.599609 1.068359l-0.474609 3.173828 1.847656 0.765626 1.91211-2.578126a14 14 0 0 0 1.896484 0.378907l0.779297 3.113281h2l0.779297-3.113281a14 14 0 0 0 1.886719-0.376953l1.910156 2.580078 1.847656-0.763672-0.470703-3.173828a14 14 0 0 0 1.607422-1.076172l2.753906 1.652344 1.414063-1.414063-1.650391-2.753906a14 14 0 0 0 1.068359-1.599609l3.173828 0.474609 0.765626-1.847656-2.578126-1.91211a14 14 0 0 0 0.378907-1.896484l3.113281-0.779297v-2l-3.113281-0.779297a14 14 0 0 0-0.376953-1.886719l2.580078-1.910156-0.763672-1.847656-3.173828 0.470703a14 14 0 0 0-1.076172-1.607422l1.652344-2.753906-1.414063-1.414063-2.753906 1.650391a14 14 0 0 0-1.599609-1.068359l0.474609-3.1738285-1.847656-0.765625-1.91211 2.5781255a14 14 0 0 0-1.896484-0.378907l-0.779297-3.113281h-2zm1 6a11 11 0 0 1 4.148438 0.8125l-2.542969 4.40625a6 6 0 0 0-1.605469-0.21875 6 6 0 0 0-5.796875 4.449219h-5.09375a11 11 0 0 1 10.890625-9.449219zm6.746094 2.3125a11 11 0 0 1 4.253906 8.6875 11 11 0 0 1-4.251953 8.6875l-2.544922-4.40625a6 6 0 0 0 1.796875-4.28125 6 6 0 0 0-1.796875-4.28125l2.542969-4.40625zm-6.796875 5.6875a3 3 0 0 1 0.050781 0 3 3 0 0 1 3 2.949219 3 3 0 0 1 0 0.050781 3 3 0 0 1-3 3 3 3 0 0 1-3-3 3 3 0 0 1 2.949219-3zm-10.853516 4.449219h5.082031a6 6 0 0 0 5.822266 4.550781 6 6 0 0 0 1.605469-0.21875l2.544922 4.40625a11 11 0 0 1-4.150391 0.8125 11 11 0 0 1-10.904297-9.550781z" fill="url(#linearGradient1112)" style="paint-order:normal"/>
    <g shape-rendering="auto">
        <path d="m24 18c-3.313708 0-6 2.686292-6 6 0 3.313709 2.686292 6 6 6 3.313709 0 6-2.686291 6-6 0-3.313708-2.686291-6-6-6zm-0.05078 3c0.01693-1.43e-4 0.03385-1.43e-4 0.05078 0 1.656854 0 3 1.343146 3 3s-1.343146 3-3 3-3-1.343146-3-3c-2.34e-4 -1.637224 1.31223-2.972286 2.949219-3z" color="#000000" color-rendering="auto" dominant-baseline="auto" fill="url(#linearGradient1677)" image-rendering="auto" solid-color="#000000" stop-color="#000000" style="font-feature-settings:normal;font-variant-alternates:normal;font-variant-caps:normal;font-variant-east-asian:normal;font-variant-ligatures:normal;font-variant-numeric:normal;font-variant-position:normal;font-variation-settings:normal;inline-size:0;isolation:auto;mix-blend-mode:normal;paint-order:normal;shape-margin:0;shape-padding:0;text-decoration-color:#000000;text-decoration-line:none;text-decoration-style:solid;text-indent:0;text-orientation:mixed;text-transform:none;white-space:normal"/>
        <path d="m24 18c-3.307786 0-6 2.692214-6 6s2.692214 6 6 6 6-2.692214 6-6-2.692214-6-6-6zm0 1c2.767346 0 5 2.232654 5 5s-2.232654 5-5 5-5-2.232654-5-5 2.232654-5 5-5z" color="#000000" color-rendering="auto" dominant-baseline="auto" fill-opacity=".16" image-rendering="auto" solid-color="#000000" stop-color="#000000" style="font-feature-settings:normal;font-variant-alternates:normal;font-variant-caps:normal;font-variant-east-asian:normal;font-variant-ligatures:normal;font-variant-numeric:normal;font-variant-position:normal;font-variation-settings:normal;inline-size:0;isolation:auto;mix-blend-mode:normal;paint-order:normal;shape-margin:0;shape-padding:0;text-decoration-color:#000000;text-decoration-line:none;text-decoration-style:solid;text-indent:0;text-orientation:mixed;text-transform:none;white-space:normal"/>
    </g>
</svg>
