<svg version="1.1" viewBox="0 0 22 22" xmlns="http://www.w3.org/2000/svg">
    <g transform="translate(0,-1030.3622)">
        <rect x="1" y="1031.3622" width="20" height="20" rx="1.4285715" ry="1.4285715" fill="#5e2b6f" stroke-width=".714456"/>
        <g fill="#fff" stroke-width=".714286" aria-label="22px">
            <path d="m3.6041931 1043.1378h3.058709v-0.5208h-2.2537856v-0.038l1.0890141-1.1648c0.8333324-0.8925 1.0795443-1.3091 1.0795443-1.8466 0-0.7481-0.60606-1.3447-1.4583318-1.3447-0.8499045 0-1.4962106 0.5777-1.4962106 1.43h0.5587115c0-0.5516 0.3574807-0.9186 0.9185597-0.9186 0.5255676 0 0.9280294 0.322 0.9280294 0.8333 0 0.4475-0.2627839 0.7789-0.8238628 1.3921l-1.6003772 1.7519z"/>
            <path d="m7.6382693 1043.1378h3.0587087v-0.5208h-2.2537853v-0.038l1.0890141-1.1648c0.8333322-0.8925 1.0795442-1.3091 1.0795442-1.8466 0-0.7481-0.60606-1.3447-1.4583317-1.3447-0.8499044 0-1.4962106 0.5777-1.4962106 1.43h0.5587116c0-0.5516 0.3574806-0.9186 0.9185596-0.9186 0.5255677 0 0.9280291 0.322 0.9280291 0.8333 0 0.4475-0.2627836 0.7789-0.8238625 1.3921l-1.6003772 1.7519z"/>
            <path d="m11.681815 1044.5015h0.558712v-1.9224h0.04735c0.123106 0.1989 0.359848 0.6345 1.060605 0.6345 0.90909 0 1.543559-0.7292 1.543559-1.8845 0-1.1458-0.634469-1.875-1.553028-1.875-0.710227 0-0.92803 0.4356-1.051136 0.625h-0.06629v-0.5776h-0.539772zm0.549242-3.1819c0-0.8144 0.359848-1.3636 1.041666-1.3636 0.710226 0 1.060605 0.5966 1.060605 1.3636 0 0.7766-0.359848 1.3921-1.060605 1.3921-0.672348 0-1.041666-0.5682-1.041666-1.3921z"/>
            <path d="m16.009445 1039.5015h-0.643938l1.155302 1.8181-1.155302 1.8182h0.643938l0.871212-1.411 0.871211 1.411h0.643939l-1.174242-1.8182 1.174242-1.8181h-0.643939l-0.871211 1.4867z"/>
        </g>
    </g>
</svg>
