<svg version="1.1" viewBox="0 0 64 64" xmlns="http://www.w3.org/2000/svg">
    <defs>
        <style id="current-color-scheme" type="text/css">.ColorScheme-Highlight {
        color:#006aff;
      }
      .ColorScheme-HighlightedText {
        color:#ffffff;
      }</style>
        <linearGradient id="linearGradient876" x1="4" x2="4" y1="10" y2="47" gradientTransform="translate(0,1)" gradientUnits="userSpaceOnUse">
            <stop stop-opacity="0" offset="0"/>
            <stop stop-opacity=".054902" offset="1"/>
        </linearGradient>
    </defs>
    <rect class="ColorScheme-Highlight" x="4" y="14" width="56" height="40" rx="3" ry="3" fill="currentColor"/>
    <path d="m4 49v2c0 1.662 1.338 3 3 3h50c1.662 0 3-1.338 3-3v-2z" fill-opacity=".87" stroke-linecap="round" stroke-width="4"/>
    <path class="ColorScheme-Highlight" d="m7 11h50c1.662 0 3 1.338 3 3v36c0 1.662-1.338 3-3 3h-50c-1.662 0-3-1.338-3-3v-36c0-1.662 1.338-3 3-3z" fill="currentColor"/>
    <path class="ColorScheme-Highlight" d="m7 11h50c1.662 0 3 1.338 3 3v36c0 1.662-1.338 3-3 3h-50c-1.662 0-3-1.338-3-3v-36c0-1.662 1.338-3 3-3z" fill="url(#linearGradient876)"/>
    <path d="m4 48v2c0 1.662 1.338 3 3 3h50c1.662 0 3-1.338 3-3v-2z" fill-opacity=".6" stroke-linecap="round" stroke-width="4"/>
</svg>
