<svg version="1.1" viewBox="0 0 64 64" xmlns="http://www.w3.org/2000/svg">
    <defs>
        <style id="current-color-scheme" type="text/css">.ColorScheme-Highlight {
        color:#006aff;
      }
      .ColorScheme-HighlightedText {
        color:#ffffff;
      }</style>
        <linearGradient id="linearGradient1893" x2="0" y1="43" y2="35.79661" gradientTransform="matrix(.453125 0 0 .5552941 3 -.8776383)" gradientUnits="userSpaceOnUse">
            <stop stop-opacity=".1568628" offset="0"/>
            <stop stop-opacity="0" offset="1"/>
        </linearGradient>
        <linearGradient id="linearGradient887" x1="12" x2="12" y1="39.41328" y2="17.414" gradientTransform="matrix(1.45 0 0 1.545454 -14.4 -3.912799)" gradientUnits="userSpaceOnUse">
            <stop stop-opacity=".05490196" offset="0"/>
            <stop stop-color="#000008" stop-opacity="0" offset="1"/>
        </linearGradient>
        <filter id="filter881" x="-.05318182" y="-.06882353" width="1.106364" height="1.137647" color-interpolation-filters="sRGB">
            <feGaussianBlur stdDeviation="0.97499995"/>
        </filter>
    </defs>
    <path class="ColorScheme-Highlight" d="m3 24h58v29.40541c0 2.545406-2.020939 4.594594-4.53125 4.594594h-48.9375c-2.510312 0-4.53125-2.049188-4.53125-4.594594v-29.40541z" fill="currentColor"/>
    <title>base_folder</title>
    <desc>Created with Sketch.</desc>
    <path d="M 3,24 H 61 V 53.405406 C 61,55.950812 58.979061,58 56.46875,58 H 7.53125 C 5.020938,58 3,55.950812 3,53.405406 Z" fill-opacity=".27451" stroke-width=".425735"/>
    <path id="Combined-Shape" class="ColorScheme-Highlight" d="M 32.23577,12.738988 H 56.284551 C 58.88882,12.738988 61,14.880181 61,17.521477 V 52.217558 C 61,54.858861 58.88882,57 56.284551,57 H 7.7154466 C 5.1111776,57 3,54.858861 3,52.217558 V 11.782491 C 3,9.1411937 5.1111776,7 7.7154466,7 H 26.105688 Z" fill="currentColor"/>
    <path d="M 32.23577,12.738988 H 56.284551 C 58.88882,12.738988 61,14.880181 61,17.521477 V 52.217558 C 61,54.858861 58.88882,57 56.284551,57 H 7.7154466 C 5.1111765,57 3,54.858861 3,52.217558 V 11.782491 C 3,9.1411937 5.1111765,7 7.7154466,7 H 26.105688 Z" fill-opacity=".1568628" stroke-width=".474885"/>
    <rect x="10" y="18.02041" width="44" height="34" rx="3.4375" fill-opacity=".1568628" filter="url(#filter881)" stroke-width=".37081"/>
    <rect x="10" y="18.02041" width="44" height="34" rx="3.4375" fill="#fff"/>
    <path id="Rectangle" class="ColorScheme-Highlight" d="m3 23h58v29.40541c0 2.545405-2.020939 4.594594-4.531251 4.594594h-48.9375c-2.510312 0-4.53125-2.049189-4.53125-4.594594v-29.40541z" fill="currentColor"/>
    <path d="m3 22.99975h58v29.40541c0 2.545406-2.02094 4.594594-4.531251 4.594594h-48.9375c-2.510312 0-4.53125-2.049188-4.53125-4.594594v-29.40541z" fill="url(#linearGradient887)" stroke-width=".4257346"/>
    <rect x="3" y="19" width="58" height="4" fill="url(#linearGradient1893)"/>
    <g fill="#fff">
        <path d="m24.681641 44.999752a6 6 0 0 0-2.681641 5h12a6 6 0 0 0-2.683594-5 6 6 0 0 1-3.316406 1 6 6 0 0 1-3.318359-1z"/>
        <circle cx="28" cy="39.999752" r="5"/>
        <path d="m36 30c-2.689772 2.87e-4 -4.897329 2.128448-4.996094 4.816406 1.669595 0.973285 2.829024 2.72648 2.97461 4.753906 0.636552 0.282442 1.325085 0.428798 2.021484 0.429688 2.761424 0 5-2.238576 5-5s-2.238576-5-5-5zm3.316406 10c-0.983117 0.652126-2.136666 0.999957-3.316406 1-0.693836 7.4e-5 -1.382427-0.120199-2.035156-0.355469-0.163726 1.467713-0.880164 2.761254-1.914063 3.720703 0.268532 0.193824 0.516756 0.409685 0.753907 0.634766h9.195312c-4.9e-5 -2.011087-1.00764-3.888403-2.683594-5z"/>
    </g>
    <g stroke-width="0"></g>
</svg>
