<svg version="1.1" viewBox="0 0 64 64" xmlns="http://www.w3.org/2000/svg">
    <defs>
        <style id="current-color-scheme" type="text/css">.ColorScheme-Highlight {
        color:#006aff;
      }
      .ColorScheme-HighlightedText {
        color:#ffffff;
      }</style>
        <linearGradient id="linearGradient1893" x2="0" y1="43" y2="35.79661" gradientTransform="matrix(.453125 0 0 .5552941 3 -.8776383)" gradientUnits="userSpaceOnUse">
            <stop stop-opacity=".1568628" offset="0"/>
            <stop stop-opacity="0" offset="1"/>
        </linearGradient>
        <linearGradient id="linearGradient887" x1="12" x2="12" y1="39.41328" y2="17.414" gradientTransform="matrix(1.45 0 0 1.545454 -14.4 -3.912799)" gradientUnits="userSpaceOnUse">
            <stop stop-opacity=".05490196" offset="0"/>
            <stop stop-color="#000008" stop-opacity="0" offset="1"/>
        </linearGradient>
        <filter id="filter881" x="-.05318182" y="-.06882353" width="1.106364" height="1.137647" color-interpolation-filters="sRGB">
            <feGaussianBlur stdDeviation="0.97499995"/>
        </filter>
    </defs>
    <path class="ColorScheme-Highlight" d="m3 24h58v29.40541c0 2.545406-2.020939 4.594594-4.53125 4.594594h-48.9375c-2.510312 0-4.53125-2.049188-4.53125-4.594594v-29.40541z" fill="currentColor"/>
    <title>base_folder</title>
    <desc>Created with Sketch.</desc>
    <path d="M 3,24 H 61 V 53.405406 C 61,55.950812 58.979061,58 56.46875,58 H 7.53125 C 5.020938,58 3,55.950812 3,53.405406 Z" fill-opacity=".27451" stroke-width=".425735"/>
    <path id="Combined-Shape" class="ColorScheme-Highlight" d="M 32.23577,12.738988 H 56.284551 C 58.88882,12.738988 61,14.880181 61,17.521477 V 52.217558 C 61,54.858861 58.88882,57 56.284551,57 H 7.7154466 C 5.1111776,57 3,54.858861 3,52.217558 V 11.782491 C 3,9.1411937 5.1111776,7 7.7154466,7 H 26.105688 Z" fill="currentColor"/>
    <path d="M 32.23577,12.738988 H 56.284551 C 58.88882,12.738988 61,14.880181 61,17.521477 V 52.217558 C 61,54.858861 58.88882,57 56.284551,57 H 7.7154466 C 5.1111765,57 3,54.858861 3,52.217558 V 11.782491 C 3,9.1411937 5.1111765,7 7.7154466,7 H 26.105688 Z" fill-opacity=".1568628" stroke-width=".474885"/>
    <rect x="10" y="18.02041" width="44" height="34" rx="3.4375" fill-opacity=".1568628" filter="url(#filter881)" stroke-width=".37081"/>
    <rect x="10" y="18.02041" width="44" height="34" rx="3.4375" fill="#fff"/>
    <path id="Rectangle" class="ColorScheme-Highlight" d="m3 23h58v29.40541c0 2.545405-2.020939 4.594594-4.531251 4.594594h-48.9375c-2.510312 0-4.53125-2.049189-4.53125-4.594594v-29.40541z" fill="currentColor"/>
    <path d="m3 22.99975h58v29.40541c0 2.545406-2.02094 4.594594-4.531251 4.594594h-48.9375c-2.510312 0-4.53125-2.049188-4.53125-4.594594v-29.40541z" fill="url(#linearGradient887)" stroke-width=".4257346"/>
    <rect x="3" y="19" width="58" height="4" fill="url(#linearGradient1893)"/>
    <g fill="#fff">
        <circle cx="40" cy="33" r="3"/>
        <circle cx="24" cy="40" r="3"/>
        <circle cx="40" cy="47" r="3"/>
        <path d="m39.980469 32a1 1 0 0 0-0.38086 0.083984l-1.65039 0.720704a1 1 0 0 0-0.513672 1.318359 1 1 0 0 0 1.316406 0.513672l1.648438-0.720703a1 1 0 0 0 0.515625-1.316407 1 1 0 0 0-0.935547-0.599609zm-7.144531 3.126953a1 1 0 0 0-0.382813 0.083985l-1.832031 0.800781a1 1 0 0 0-0.515625 1.316406 1 1 0 0 0 1.316406 0.515625l1.832031-0.800781a1 1 0 0 0 0.515625-1.31836 1 1 0 0 0-0.933593-0.597656zm-7.330079 3.207031a1 1 0 0 0-0.382812 0.082032l-1.513672 0.664062-0.009766 0.003906a1 1 0 0 0-0.060547 0.029297 1 1 0 0 0-0.02539 0.013672 1 1 0 0 0-0.003906 0.001953 1 1 0 0 0-0.058594 0.035156 1 1 0 0 0-0.052734 0.03711 1 1 0 0 0-0.023438 0.017578 1 1 0 0 0-0.019531 0.017578 1 1 0 0 0-0.035157 0.03125 1 1 0 0 0-0.011718 0.011719 1 1 0 0 0-0.056641 0.058594 1 1 0 0 0-0.001953 0.001953 1 1 0 0 0-0.042969 0.052734 1 1 0 0 0-0.029297 0.041016 1 1 0 0 0-0.019531 0.027344 1 1 0 0 0-0.007812 0.013671 1 1 0 0 0-0.041016 0.072266 1 1 0 0 0-0.011719 0.023437 1 1 0 0 0-0.013672 0.029297 1 1 0 0 0-0.003906 0.009766 1 1 0 0 0-0.029297 0.078125 1 1 0 0 0-0.023437 0.082031 1 1 0 0 0-0.013672 0.072266 1 1 0 0 0-0.001953 0.009765 1 1 0 0 0-0.007813 0.072266 1 1 0 0 0-0.003906 0.072266 1 1 0 0 0 0 0.015625 1 1 0 0 0 0.001953 0.03125 1 1 0 0 0 0.003906 0.060547 1 1 0 0 0 0.011719 0.078125 1 1 0 0 0 0 0.003906 1 1 0 0 0 0.017578 0.072265 1 1 0 0 0 0.013672 0.046876 1 1 0 0 0 0.013672 0.041015 1 1 0 0 0 0.021484 0.054688 1 1 0 0 0 0.007813 0.015625 1 1 0 0 0 0.035156 0.070312 1 1 0 0 0 0.009766 0.015625 1 1 0 0 0 0.027343 0.046875 1 1 0 0 0 0.009766 0.013672 1 1 0 0 0 0.050781 0.066406 1 1 0 0 0 0.042969 0.050782 1 1 0 0 0 0.041016 0.042968 1 1 0 0 0 0.029297 0.025391 1 1 0 0 0 0.009765 0.007812 1 1 0 0 0 0.044922 0.03711 1 1 0 0 0 0.013672 0.009765 1 1 0 0 0 0.054688 0.039063 1 1 0 0 0 0.052734 0.03125 1 1 0 0 0 0.029297 0.015625 1 1 0 0 0 0.05664 0.027344 1 1 0 0 0 0.009766 0.003906l1.513672 0.664062a1 1 0 0 0 1.318359-0.515625 1 1 0 0 0-0.169922-1.066406 1 1 0 0 0 0.169922-1.070312 1 1 0 0 0-0.935547-0.597657zm5.507813 3.738282a1 1 0 0 0-0.908203 0.599609 1 1 0 0 0 0.515625 1.316406l1.832031 0.800781a1 1 0 0 0 1.316406-0.513671 1 1 0 0 0-0.515625-1.31836l-1.832031-0.800781a1 1 0 0 0-0.408203-0.083984zm7.330078 3.207031a1 1 0 0 0-0.908203 0.597656 1 1 0 0 0 0.513672 1.318359l1.65039 0.720704a1 1 0 0 0 1.316407-0.515625 1 1 0 0 0-0.515625-1.316407l-1.648438-0.720703a1 1 0 0 0-0.408203-0.083984z" color="#000000" color-rendering="auto" dominant-baseline="auto" image-rendering="auto" shape-rendering="auto" solid-color="#000000" stop-color="#000000" style="font-feature-settings:normal;font-variant-alternates:normal;font-variant-caps:normal;font-variant-east-asian:normal;font-variant-ligatures:normal;font-variant-numeric:normal;font-variant-position:normal;font-variation-settings:normal;inline-size:0;isolation:auto;mix-blend-mode:normal;shape-margin:0;shape-padding:0;text-decoration-color:#000000;text-decoration-line:none;text-decoration-style:solid;text-indent:0;text-orientation:mixed;text-transform:none;white-space:normal"/>
    </g>
</svg>
