<svg version="1.1" viewBox="0 0 64 64" xmlns="http://www.w3.org/2000/svg">
 <defs>
  <style id="current-color-scheme" type="text/css">.ColorScheme-Highlight {
        color:#006aff;
      }
      .ColorScheme-HighlightedText {
        color:#ffffff;
      }</style>
  <linearGradient id="linearGradient1893" x2="0" y1="43" y2="35.79661" gradientTransform="matrix(.453125 0 0 .5552941 3 -.8776383)" gradientUnits="userSpaceOnUse">
   <stop stop-opacity=".1568628" offset="0"/>
   <stop stop-opacity="0" offset="1"/>
  </linearGradient>
  <linearGradient id="linearGradient887" x1="12" x2="12" y1="39.41328" y2="17.414" gradientTransform="matrix(1.45 0 0 1.545454 -14.4 -3.912799)" gradientUnits="userSpaceOnUse">
   <stop stop-opacity=".05490196" offset="0"/>
   <stop stop-color="#000008" stop-opacity="0" offset="1"/>
  </linearGradient>
  <filter id="filter881" x="-.05318182" y="-.06882353" width="1.106364" height="1.137647" color-interpolation-filters="sRGB">
   <feGaussianBlur stdDeviation="0.97499995"/>
  </filter>
 </defs>
 <path class="ColorScheme-Highlight" d="m3 24h58v29.40541c0 2.545406-2.020939 4.594594-4.53125 4.594594h-48.9375c-2.510312 0-4.53125-2.049188-4.53125-4.594594v-29.40541z" fill="currentColor"/>
 <title>base_folder</title>
 <desc>Created with Sketch.</desc>
 <path d="M 3,24 H 61 V 53.405406 C 61,55.950812 58.979061,58 56.46875,58 H 7.53125 C 5.020938,58 3,55.950812 3,53.405406 Z" fill-opacity=".27451" stroke-width=".425735"/>
 <path id="Combined-Shape" class="ColorScheme-Highlight" d="M 32.23577,12.738988 H 56.284551 C 58.88882,12.738988 61,14.880181 61,17.521477 V 52.217558 C 61,54.858861 58.88882,57 56.284551,57 H 7.7154466 C 5.1111776,57 3,54.858861 3,52.217558 V 11.782491 C 3,9.1411937 5.1111776,7 7.7154466,7 H 26.105688 Z" fill="currentColor"/>
 <path d="M 32.23577,12.738988 H 56.284551 C 58.88882,12.738988 61,14.880181 61,17.521477 V 52.217558 C 61,54.858861 58.88882,57 56.284551,57 H 7.7154466 C 5.1111765,57 3,54.858861 3,52.217558 V 11.782491 C 3,9.1411937 5.1111765,7 7.7154466,7 H 26.105688 Z" fill-opacity=".1568628" stroke-width=".474885"/>
 <rect x="10" y="18.02041" width="44" height="34" rx="3.4375" fill-opacity=".1568628" filter="url(#filter881)" stroke-width=".37081"/>
 <rect x="10" y="18.02041" width="44" height="34" rx="3.4375" fill="#fff"/>
 <path id="Rectangle" class="ColorScheme-Highlight" d="m3 23h58v29.40541c0 2.545405-2.020939 4.594594-4.531251 4.594594h-48.9375c-2.510312 0-4.53125-2.049189-4.53125-4.594594v-29.40541z" fill="currentColor"/>
 <path d="m3 22.99975h58v29.40541c0 2.545406-2.02094 4.594594-4.531251 4.594594h-48.9375c-2.510312 0-4.53125-2.049188-4.53125-4.594594v-29.40541z" fill="url(#linearGradient887)" stroke-width=".4257346"/>
 <rect x="3" y="19" width="58" height="4" fill="url(#linearGradient1893)"/>
 <g transform="matrix(.3880597 0 0 .3877553 26.0394 32.8138)" fill="#fff">
  <path d="m43.86-5.967826h-57c-2.761424 0-5 2.238576-5 5v39c0 2.761424 2.238576 5 5 5h57c2.761424 0 5-2.238576 5-5v-39c0-2.761424-2.238576-5-5-5zm-2.955882 3.94c2.209139 0 4 1.790861 4 4v33.12c0 2.209139-1.790861 4-4 4h-51.08824c-2.209139 0-4-1.790861-4-4v-33.12c0-2.209139 1.790861-4 4-4z"/>
  <path id="Shape" d="m29.18353 16.46241c3.433743 0 6.226074-2.776894 6.226074-6.19262s-2.792331-6.19262-6.226074-6.19262c-3.433965 0-6.226073 2.777116-6.226073 6.1936 0 3.414968 2.792554 6.19164 6.226073 6.19164zm0-8.95524c1.529972 0 2.777544 1.240909 2.777544 2.7636 0 1.522185-1.247063 2.76164-2.777544 2.76164-1.530225 0-2.777544-1.240182-2.777544-2.76262s1.247319-2.76262 2.777544-2.76262z"/>
  <path d="m4.134242 12.0883 9.736226 8.727267 0.165356-0.164467 3.680881-3.661104c0.828929-0.822272 2.154125-0.864652 3.031834-0.09748l16.7679 14.68435c0.919065 0.803991 1.008353 2.197389 0.199547 3.11205-0.422974 0.478069-1.027952 0.748251-1.664814 0.748251-0.537828 0-1.057099-0.19373-1.463234-0.548783l-15.20657-13.31596-9.333254 9.282204c-0.866183 0.861529-2.268706 0.861515-3.134926-5e-5 -0.866226-0.861573-0.866226-2.25656 0-3.118132l3.812904-3.792417-8.228158-7.278014-0.163879 0.148098-9.127615 8.248665c-0.898379 0.818922-2.301098 0.75658-3.127645-0.140464-0.827742-0.89834-0.766134-2.294342 0.13754-3.116057l10.84171-9.803146c0.421486-0.382865 0.983809-0.587838 1.56017-0.574818 0.588445 0.02618 1.121123 0.259709 1.516028 0.660012z"/>
 </g>
</svg>
