<svg version="1.1" viewBox="0 0 64 64" xmlns="http://www.w3.org/2000/svg">
    <defs>
        <style id="current-color-scheme" type="text/css">.ColorScheme-Highlight {
        color:#006aff;
      }
      .ColorScheme-HighlightedText {
        color:#ffffff;
      }</style>
        <linearGradient id="linearGradient1893" x2="0" y1="43" y2="35.79661" gradientTransform="matrix(.453125 0 0 .5552941 3 -.8776383)" gradientUnits="userSpaceOnUse">
            <stop stop-opacity=".1568628" offset="0"/>
            <stop stop-opacity="0" offset="1"/>
        </linearGradient>
        <linearGradient id="linearGradient887" x1="12" x2="12" y1="39.41328" y2="17.414" gradientTransform="matrix(1.45 0 0 1.545454 -14.4 -3.912799)" gradientUnits="userSpaceOnUse">
            <stop stop-opacity=".05490196" offset="0"/>
            <stop stop-color="#000008" stop-opacity="0" offset="1"/>
        </linearGradient>
        <filter id="filter881" x="-.05318182" y="-.06882353" width="1.106364" height="1.137647" color-interpolation-filters="sRGB">
            <feGaussianBlur stdDeviation="0.97499995"/>
        </filter>
    </defs>
    <path class="ColorScheme-Highlight" d="m3 24h58v29.40541c0 2.545406-2.020939 4.594594-4.53125 4.594594h-48.9375c-2.510312 0-4.53125-2.049188-4.53125-4.594594v-29.40541z" fill="currentColor"/>
    <title>base_folder</title>
    <desc>Created with Sketch.</desc>
    <path d="M 3,24 H 61 V 53.405406 C 61,55.950812 58.979061,58 56.46875,58 H 7.53125 C 5.020938,58 3,55.950812 3,53.405406 Z" fill-opacity=".27451" stroke-width=".425735"/>
    <path id="Combined-Shape" class="ColorScheme-Highlight" d="M 32.23577,12.738988 H 56.284551 C 58.88882,12.738988 61,14.880181 61,17.521477 V 52.217558 C 61,54.858861 58.88882,57 56.284551,57 H 7.7154466 C 5.1111776,57 3,54.858861 3,52.217558 V 11.782491 C 3,9.1411937 5.1111776,7 7.7154466,7 H 26.105688 Z" fill="currentColor"/>
    <path d="M 32.23577,12.738988 H 56.284551 C 58.88882,12.738988 61,14.880181 61,17.521477 V 52.217558 C 61,54.858861 58.88882,57 56.284551,57 H 7.7154466 C 5.1111765,57 3,54.858861 3,52.217558 V 11.782491 C 3,9.1411937 5.1111765,7 7.7154466,7 H 26.105688 Z" fill-opacity=".1568628" stroke-width=".474885"/>
    <rect x="10" y="18.02041" width="44" height="34" rx="3.4375" fill-opacity=".1568628" filter="url(#filter881)" stroke-width=".37081"/>
    <rect x="10" y="18.02041" width="44" height="34" rx="3.4375" fill="#fff"/>
    <path id="Rectangle" class="ColorScheme-Highlight" d="m3 23h58v29.40541c0 2.545405-2.020939 4.594594-4.531251 4.594594h-48.9375c-2.510312 0-4.53125-2.049189-4.53125-4.594594v-29.40541z" fill="currentColor"/>
    <path d="m3 22.99975h58v29.40541c0 2.545406-2.02094 4.594594-4.531251 4.594594h-48.9375c-2.510312 0-4.53125-2.049188-4.53125-4.594594v-29.40541z" fill="url(#linearGradient887)" stroke-width=".4257346"/>
    <rect x="3" y="19" width="58" height="4" fill="url(#linearGradient1893)"/>
    <g transform="matrix(.40820075 0 0 .43065784 25.207538 31.850958)" fill="#fff">
        <path id="Shape" d="m24.73807 42.14202h-23.5296c-2.29696 0-4.166667-1.856161-4.166667-4.142857v-30.41154c0-2.286695 1.869707-4.142857 4.166667-4.142857h2.9944c0.9002023 0 1.633333 0.7276187 1.633333 1.628571s-0.733131 1.628571-1.633333 1.628571h-2.9944c-0.496931 0-0.9 0.400039-0.9 0.885714v30.41029c0 0.485676 0.403069 0.885714 0.9 0.885714h23.5296c0.496931 0 0.9-0.400038 0.9-0.885714v-2.973143c0-0.900952 0.733131-1.628571 1.633333-1.628571 0.900203 0 1.633334 0.727619 1.633334 1.628571v2.973143c0 2.287696-1.86945 4.144114-4.166667 4.144114z"/>
        <path d="m32.0714 34.39745h-23.5296c-2.29696 0-4.166667-1.856161-4.166667-4.142857v-30.41029c0-2.286696 1.869707-4.142857 4.166667-4.142857h17.23173c0.900203 0 1.633334 0.7276188 1.633334 1.628571 0 0.9005696-0.731491 1.628572-1.632067 1.628572h-17.233c-0.496931 0-0.9 0.4000384-0.9 0.8857142v30.41029c0 0.485676 0.403069 0.885714 0.9 0.885714h23.5296c0.496931 0 0.9-0.400038 0.9-0.885714v-23.92217c0-0.9009523 0.733131-1.628571 1.633333-1.628571 0.900203 0 1.633334 0.7276187 1.633334 1.628571v23.92217c0 2.287581-1.869331 4.142857-4.166667 4.142857z"/>
        <path d="m32.60474 6.703854c0.900203 0 1.633334 0.727619 1.633334 1.628571 0 0.901076-0.731995 1.628572-1.633334 1.628572h-8.8312c-0.900202 0-1.633333-0.727619-1.633333-1.628572v-8.766057c0-0.9009527 0.733131-1.628571 1.633333-1.628571 0.900203 0 1.633334 0.7276187 1.633334 1.628571v7.137486z"/>
        <path d="m34.60474 7.960997c-0.434227 0-0.854393-0.172614-1.167328-0.489542l-8.832608-9.003838c-0.630624-0.6454415-0.616379-1.678499 0.03456-2.308224 0.644986-0.6206399 1.678045-0.6066496 2.302772 0.032861l8.832607 9.003837c0.630624 0.6454412 0.616379 1.678499-0.03473 2.308393-0.308275 0.296495-0.715639 0.456513-1.135268 0.456513z"/>
    </g>
</svg>
