<svg version="1.1" viewBox="0 0 64 64" xmlns="http://www.w3.org/2000/svg">
    <defs>
        <style id="current-color-scheme" type="text/css">.ColorScheme-Highlight {
        color:#006aff;
      }
      .ColorScheme-HighlightedText {
        color:#ffffff;
      }</style>
        <linearGradient id="linearGradient1893" x2="0" y1="43" y2="35.79661" gradientTransform="matrix(.453125 0 0 .5552941 3 -.8776383)" gradientUnits="userSpaceOnUse">
            <stop stop-opacity=".1568628" offset="0"/>
            <stop stop-opacity="0" offset="1"/>
        </linearGradient>
        <linearGradient id="linearGradient887" x1="12" x2="12" y1="39.41328" y2="17.414" gradientTransform="matrix(1.45 0 0 1.545454 -14.4 -3.912799)" gradientUnits="userSpaceOnUse">
            <stop stop-opacity=".05490196" offset="0"/>
            <stop stop-color="#000008" stop-opacity="0" offset="1"/>
        </linearGradient>
        <filter id="filter881" x="-.05318182" y="-.06882353" width="1.106364" height="1.137647" color-interpolation-filters="sRGB">
            <feGaussianBlur stdDeviation="0.97499995"/>
        </filter>
    </defs>
    <path class="ColorScheme-Highlight" d="m3 24h58v29.40541c0 2.545406-2.020939 4.594594-4.53125 4.594594h-48.9375c-2.510312 0-4.53125-2.049188-4.53125-4.594594v-29.40541z" fill="currentColor"/>
    <title>base_folder</title>
    <desc>Created with Sketch.</desc>
    <path d="M 3,24 H 61 V 53.405406 C 61,55.950812 58.979061,58 56.46875,58 H 7.53125 C 5.020938,58 3,55.950812 3,53.405406 Z" fill-opacity=".27451" stroke-width=".425735"/>
    <path id="Combined-Shape" class="ColorScheme-Highlight" d="M 32.23577,12.738988 H 56.284551 C 58.88882,12.738988 61,14.880181 61,17.521477 V 52.217558 C 61,54.858861 58.88882,57 56.284551,57 H 7.7154466 C 5.1111776,57 3,54.858861 3,52.217558 V 11.782491 C 3,9.1411937 5.1111776,7 7.7154466,7 H 26.105688 Z" fill="currentColor"/>
    <path d="M 32.23577,12.738988 H 56.284551 C 58.88882,12.738988 61,14.880181 61,17.521477 V 52.217558 C 61,54.858861 58.88882,57 56.284551,57 H 7.7154466 C 5.1111765,57 3,54.858861 3,52.217558 V 11.782491 C 3,9.1411937 5.1111765,7 7.7154466,7 H 26.105688 Z" fill-opacity=".1568628" stroke-width=".474885"/>
    <rect x="10" y="18.02041" width="44" height="34" rx="3.4375" fill-opacity=".1568628" filter="url(#filter881)" stroke-width=".37081"/>
    <rect x="10" y="18.02041" width="44" height="34" rx="3.4375" fill="#fff"/>
    <path id="Rectangle" class="ColorScheme-Highlight" d="m3 23h58v29.40541c0 2.545405-2.020939 4.594594-4.531251 4.594594h-48.9375c-2.510312 0-4.53125-2.049189-4.53125-4.594594v-29.40541z" fill="currentColor"/>
    <path d="m3 22.99975h58v29.40541c0 2.545406-2.02094 4.594594-4.531251 4.594594h-48.9375c-2.510312 0-4.53125-2.049188-4.53125-4.594594v-29.40541z" fill="url(#linearGradient887)" stroke-width=".4257346"/>
    <rect x="3" y="19" width="58" height="4" fill="url(#linearGradient1893)"/>
    <path d="m32 30c-5.516926 0-10 4.483074-10 10s4.483074 10 10 10 10-4.483074 10-10-4.483074-10-10-10zm-1.117188 1.076172c-1.071979 1.40585-1.894713 2.819419-2.458984 4.238281-1.169522-0.132584-2.392192-0.356799-3.658203-0.65625 1.429319-1.933661 3.608844-3.272015 6.117187-3.582031zm2.234376 0c2.503444 0.309411 4.679898 1.642747 6.109374 3.570312-1.202725 0.247812-2.423584 0.456317-3.673828 0.607422-0.56341-1.39839-1.378927-2.792028-2.435546-4.177734zm-1.117188 0.240234c1.0887 1.364569 1.925477 2.717099 2.498047 4.058594-1.595198 0.143199-3.259114 0.15863-5.007813 0.025391 0.572962-1.349779 1.414243-2.710864 2.509766-4.083985zm7.816406 4.230469c0.668887 1.173142 1.077691 2.510744 1.158203 3.939453h-4.486328c-0.046387-1.09128-0.235201-2.181992-0.583984-3.269531 1.338534-0.169353 2.63918-0.399727 3.912109-0.669922zm-15.636718 0.003906c1.351093 0.33481 2.64614 0.570519 3.894531 0.720703-0.337868 1.069201-0.516899 2.14205-0.5625 3.214844h-4.486328c0.080405-1.426813 0.486977-2.763523 1.154297-3.935547zm10.679687 0.785157c0.356683 1.055393 0.551491 2.104785 0.599609 3.15039h-6.917968c0.047564-1.033563 0.238879-2.070171 0.58789-3.113281 2.015827 0.171408 3.916282 0.139463 5.730469-0.037109zm-11.833984 4.177734h4.488281c0.048445 1.07591 0.230407 2.147906 0.570312 3.214844-1.251456 0.150316-2.549787 0.385031-3.904296 0.720703-0.66732-1.172024-1.073892-2.508734-1.154297-3.935547zm5.515625 0h6.917968c-0.051346 1.047188-0.251273 2.096671-0.609375 3.148437-0.744923-0.072366-1.500291-0.129043-2.27539-0.15039-1.106239-0.030468-2.256262 0.014941-3.4375 0.115234-0.350668-1.039912-0.544933-2.077829-0.595703-3.113281zm7.945312 0h4.488281c-0.080512 1.428709-0.489316 2.766311-1.158203 3.939453-1.275496-0.27079-2.578696-0.500252-3.919922-0.669922 0.350708-1.084986 0.540572-2.175244 0.589844-3.269531zm-3.9375 3.99414c0.657414 0.018201 1.303131 0.058306 1.939453 0.115235-0.573921 1.337235-1.4111 2.679886-2.488281 4.03125-1.083316-1.359061-1.923716-2.709899-2.498047-4.054688 1.043465-0.079084 2.063066-0.119033 3.046875-0.091797zm-4.111328 0.175782c0.570135 1.425131 1.397559 2.840947 2.470703 4.24414-2.519084-0.304033-4.70839-1.64569-6.142578-3.585937 1.27084-0.300593 2.498224-0.525693 3.671875-0.658203zm7.101562 0.060547c1.255041 0.1512 2.48039 0.360659 3.6875 0.609375-1.434354 1.934143-3.620584 3.270777-6.134765 3.574218 1.057874-1.383227 1.878061-2.779011 2.447265-4.183593z" color="#000000" color-rendering="auto" dominant-baseline="auto" fill="#fff" image-rendering="auto" shape-rendering="auto" solid-color="#000000" stop-color="#000000" style="font-feature-settings:normal;font-variant-alternates:normal;font-variant-caps:normal;font-variant-east-asian:normal;font-variant-ligatures:normal;font-variant-numeric:normal;font-variant-position:normal;font-variation-settings:normal;inline-size:0;isolation:auto;mix-blend-mode:normal;shape-margin:0;shape-padding:0;text-decoration-color:#000000;text-decoration-line:none;text-decoration-style:solid;text-indent:0;text-orientation:mixed;text-transform:none;white-space:normal"/>
</svg>
