<svg version="1.1" viewBox="0 0 64 64" xmlns="http://www.w3.org/2000/svg">
    <defs>
        <style id="current-color-scheme" type="text/css">.ColorScheme-Highlight {
        color:#006aff;
      }
      .ColorScheme-HighlightedText {
        color:#ffffff;
      }</style>
        <linearGradient id="linearGradient1893" x2="0" y1="43" y2="35.79661" gradientTransform="matrix(.453125 0 0 .5552941 3 -.8776383)" gradientUnits="userSpaceOnUse">
            <stop stop-opacity=".1568628" offset="0"/>
            <stop stop-opacity="0" offset="1"/>
        </linearGradient>
        <linearGradient id="linearGradient887" x1="12" x2="12" y1="39.41328" y2="17.414" gradientTransform="matrix(1.45 0 0 1.545454 -14.4 -3.912799)" gradientUnits="userSpaceOnUse">
            <stop stop-opacity=".05490196" offset="0"/>
            <stop stop-color="#000008" stop-opacity="0" offset="1"/>
        </linearGradient>
        <filter id="filter881" x="-.05318182" y="-.06882353" width="1.106364" height="1.137647" color-interpolation-filters="sRGB">
            <feGaussianBlur stdDeviation="0.97499995"/>
        </filter>
    </defs>
    <path class="ColorScheme-Highlight" d="m3 24h58v29.40541c0 2.545406-2.020939 4.594594-4.53125 4.594594h-48.9375c-2.510312 0-4.53125-2.049188-4.53125-4.594594v-29.40541z" fill="currentColor"/>
    <title>base_folder</title>
    <desc>Created with Sketch.</desc>
    <path d="M 3,24 H 61 V 53.405406 C 61,55.950812 58.979061,58 56.46875,58 H 7.53125 C 5.020938,58 3,55.950812 3,53.405406 Z" fill-opacity=".27451" stroke-width=".425735"/>
    <path id="Combined-Shape" class="ColorScheme-Highlight" d="M 32.23577,12.738988 H 56.284551 C 58.88882,12.738988 61,14.880181 61,17.521477 V 52.217558 C 61,54.858861 58.88882,57 56.284551,57 H 7.7154466 C 5.1111776,57 3,54.858861 3,52.217558 V 11.782491 C 3,9.1411937 5.1111776,7 7.7154466,7 H 26.105688 Z" fill="currentColor"/>
    <path d="M 32.23577,12.738988 H 56.284551 C 58.88882,12.738988 61,14.880181 61,17.521477 V 52.217558 C 61,54.858861 58.88882,57 56.284551,57 H 7.7154466 C 5.1111765,57 3,54.858861 3,52.217558 V 11.782491 C 3,9.1411937 5.1111765,7 7.7154466,7 H 26.105688 Z" fill-opacity=".1568628" stroke-width=".474885"/>
    <rect x="10" y="18.02041" width="44" height="34" rx="3.4375" fill-opacity=".1568628" filter="url(#filter881)" stroke-width=".37081"/>
    <rect x="10" y="18.02041" width="44" height="34" rx="3.4375" fill="#fff"/>
    <path id="Rectangle" class="ColorScheme-Highlight" d="m3 23h58v29.40541c0 2.545405-2.020939 4.594594-4.531251 4.594594h-48.9375c-2.510312 0-4.53125-2.049189-4.53125-4.594594v-29.40541z" fill="currentColor"/>
    <path d="m3 22.99975h58v29.40541c0 2.545406-2.02094 4.594594-4.531251 4.594594h-48.9375c-2.510312 0-4.53125-2.049188-4.53125-4.594594v-29.40541z" fill="url(#linearGradient887)" stroke-width=".4257346"/>
    <rect x="3" y="19" width="58" height="4" fill="url(#linearGradient1893)"/>
    <path id="Shape" d="m21 42.506877c0 1.659056 0.792904 3.212947 2.175056 4.261594 0.334543 0.253867 0.827744 0.206582 1.099262-0.104785 0.269428-0.308863 0.219513-0.761794-0.112386-1.013562-1.019174-0.773257-1.603502-1.918296-1.603502-3.143176 0-2.155299 1.807648-3.927352 4.113532-4.036292 0.415354-0.01956 0.7396-0.337676 0.7396-0.721597 0.0048-2.384939 2.066608-4.304205 4.596552-4.304205 2.529381 0 4.591133 1.918827 4.597786 4.26265-0.0014 0.425377 0.321517 0.743084 0.735826 0.763838 2.298024 0.115312 4.099846 1.8873 4.099846 4.035673 0 2.232473-1.946096 4.047575-4.335234 4.047638h-8.43893c-0.431322 0-0.779214 0.324474-0.779214 0.722549 0 0.398077 0.347892 0.72255 0.779214 0.72255h8.438929c3.251107-3e-6 5.893663-2.464704 5.893663-5.492739 0-2.680511-2.076637-4.950978-4.873605-5.4046-0.340947-2.878233-2.96692-5.102661-6.11828-5.102661-3.150158 0-5.775561 2.222984-6.117933 5.099884-2.806314 0.446848-4.890176 2.718571-4.890176 5.407241z" fill="#fff" stroke-width=".340763"/>
</svg>
