<svg version="1.1" viewBox="0 0 64 64" xmlns="http://www.w3.org/2000/svg">
    <defs>
        <style id="current-color-scheme" type="text/css">.ColorScheme-Highlight {
        color:#006aff;
      }
      .ColorScheme-HighlightedText {
        color:#ffffff;
      }</style>
        <linearGradient id="linearGradient1893" x2="0" y1="43" y2="35.79661" gradientTransform="matrix(.453125 0 0 .5552941 3 -.8776383)" gradientUnits="userSpaceOnUse">
            <stop stop-opacity=".1568628" offset="0"/>
            <stop stop-opacity="0" offset="1"/>
        </linearGradient>
        <linearGradient id="linearGradient887" x1="12" x2="12" y1="39.41328" y2="17.414" gradientTransform="matrix(1.45,0,0,1.545454,-14.4,-3.912799)" gradientUnits="userSpaceOnUse">
            <stop stop-opacity=".05490196" offset="0"/>
            <stop stop-color="#000008" stop-opacity="0" offset="1"/>
        </linearGradient>
        <filter id="filter881" x="-.05318182" y="-.06882353" width="1.106364" height="1.137647" color-interpolation-filters="sRGB">
            <feGaussianBlur stdDeviation="0.97499995"/>
        </filter>
    </defs>
    <path class="ColorScheme-Highlight" d="m3 24h58v29.40541c0 2.545406-2.020939 4.594594-4.53125 4.594594h-48.9375c-2.510312 0-4.53125-2.049188-4.53125-4.594594v-29.40541z" fill="currentColor"/>
    <title>base_folder</title>
    <desc>Created with Sketch.</desc>
    <path d="M 3,24 H 61 V 53.405406 C 61,55.950812 58.979061,58 56.46875,58 H 7.53125 C 5.020938,58 3,55.950812 3,53.405406 Z" fill-opacity=".27451" stroke-width=".425735"/>
    <path id="Combined-Shape" class="ColorScheme-Highlight" d="M 32.23577,12.738988 H 56.284551 C 58.88882,12.738988 61,14.880181 61,17.521477 V 52.217558 C 61,54.858861 58.88882,57 56.284551,57 H 7.7154466 C 5.1111776,57 3,54.858861 3,52.217558 V 11.782491 C 3,9.1411937 5.1111776,7 7.7154466,7 H 26.105688 Z" fill="currentColor"/>
    <path d="M 32.23577,12.738988 H 56.284551 C 58.88882,12.738988 61,14.880181 61,17.521477 V 52.217558 C 61,54.858861 58.88882,57 56.284551,57 H 7.7154466 C 5.1111765,57 3,54.858861 3,52.217558 V 11.782491 C 3,9.1411937 5.1111765,7 7.7154466,7 H 26.105688 Z" fill-opacity=".1568628" stroke-width=".474885"/>
    <rect x="10" y="18.02041" width="44" height="34" rx="3.4375" fill-opacity=".1568628" filter="url(#filter881)" stroke-width=".37081"/>
    <rect x="10" y="18.02041" width="44" height="34" rx="3.4375" fill="#fff"/>
    <path id="Rectangle" class="ColorScheme-Highlight" d="m3 23h58v29.40541c0 2.545405-2.020939 4.594594-4.531251 4.594594h-48.9375c-2.510312 0-4.53125-2.049189-4.53125-4.594594v-29.40541z" fill="currentColor"/>
    <path d="m3.0000005 22.99975h58v29.40541c0 2.545406-2.02094 4.594594-4.53125 4.594594h-48.9375c-2.510312 0-4.53125-2.049188-4.53125-4.594594z" fill="url(#linearGradient887)" stroke-width=".425735"/>
    <rect x="3" y="19" width="58" height="4" fill="url(#linearGradient1893)"/>
    <g fill="#fff">
        <path d="m30 39v0.267578a2 1.9999998 0 0 1 1 1.732422 2 1.9999998 0 0 1-1 1.730469v0.269531h-3v2h10v-2h-3v-0.269531a2 1.9999998 0 0 1-1-1.730469 2 1.9999998 0 0 1 1-1.732422v-0.267578z" stroke-linecap="round" stroke-width=".715542"/>
        <rect x="25" y="44.999752" width="14" height="5" stroke-linecap="round" stroke-width=".632455"/>
        <path d="m23.500055 32.500055v0.357136c0 2.559887 2.499438 4.64275 5.57132 4.64275h0.428564v-4.999886h-0.428564zm0.94418 0.71427h4.198574v3.498804c-2.247481-0.176878-3.986326-1.625908-4.198574-3.498804z" color="#000000" color-rendering="auto" dominant-baseline="auto" image-rendering="auto" shape-rendering="auto" solid-color="#000000" stop-color="#000000" stroke="#fff" stroke-width="1.00011" style="font-feature-settings:normal;font-variant-alternates:normal;font-variant-caps:normal;font-variant-east-asian:normal;font-variant-ligatures:normal;font-variant-numeric:normal;font-variant-position:normal;font-variation-settings:normal;inline-size:0;isolation:auto;mix-blend-mode:normal;shape-margin:0;shape-padding:0;text-decoration-color:#000000;text-decoration-line:none;text-decoration-style:solid;text-indent:0;text-orientation:mixed;text-transform:none;white-space:normal"/>
        <path d="m27 30v3a5 7 0 0 0 5 7 5 7 0 0 0 5-7v-3z" stroke-linecap="round" stroke-width=".612069"/>
        <path d="m40.499855 32.500055v0.357136c0 2.559887-2.4994 4.64275-5.5713 4.64275h-0.4285v-4.999886h0.4285zm-0.9441 0.71427h-4.1986v3.498804c2.2475-0.176878 3.9863-1.625908 4.1986-3.498804z" color="#000000" color-rendering="auto" dominant-baseline="auto" image-rendering="auto" shape-rendering="auto" solid-color="#000000" stop-color="#000000" stroke="#fff" stroke-width="1.00011" style="font-feature-settings:normal;font-variant-alternates:normal;font-variant-caps:normal;font-variant-east-asian:normal;font-variant-ligatures:normal;font-variant-numeric:normal;font-variant-position:normal;font-variation-settings:normal;inline-size:0;isolation:auto;mix-blend-mode:normal;shape-margin:0;shape-padding:0;text-decoration-color:#000000;text-decoration-line:none;text-decoration-style:solid;text-indent:0;text-orientation:mixed;text-transform:none;white-space:normal"/>
    </g>
</svg>
