<svg width="64" height="64" version="1.1" viewBox="0 0 16.933333 16.933334" xmlns="http://www.w3.org/2000/svg" xmlns:xlink="http://www.w3.org/1999/xlink">
    <defs>
        <style id="current-color-scheme" type="text/css">.ColorScheme-Highlight {
        color:#006aff;
      }
      .ColorScheme-HighlightedText {
        color:#ffffff;
      }</style>
        <linearGradient id="linearGradient1206" x1="55" x2="55" y1="60" y2="4" gradientTransform="matrix(.26458334 0 0 .26458334 0 2.9758328e-6)" gradientUnits="userSpaceOnUse">
            <stop stop-color="#292929" offset="0"/>
            <stop stop-color="#525252" offset="1"/>
        </linearGradient>
        <linearGradient id="linearGradient1206-6" x1="55" x2="8.9492197" y1="60" y2="60" gradientTransform="matrix(.26458334 0 0 .26458334 .01343551 2.9758328e-6)" gradientUnits="userSpaceOnUse">
            <stop stop-opacity=".05" offset="0"/>
            <stop stop-opacity="0" offset=".44859102"/>
            <stop stop-opacity=".05" offset="1"/>
        </linearGradient>
    </defs>
    <rect x="3.9555209" y="14.022917" width="9.0222921" height=".5291667" fill="#292929" stroke-width=".0969132"/>
    <rect x="3.9555209" y="14.022917" width="9.0222921" height=".5291667" fill-opacity=".27451" stroke-width=".0969132"/>
    <path d="m12.977813 14.419795a4.5111461 1.4552079 0 0 1-4.5111464 1.455209 4.5111461 1.4552079 0 0 1-4.511146-1.455209 4.5111461 1.4552079 0 0 1 4.511146-1.455208 4.5111461 1.4552079 0 0 1 4.5111464 1.455208z" fill="#292929" stroke-width=".302647"/>
    <path d="m12.977813 14.419795a4.5111464 1.4552079 0 0 1-4.5111458 1.455209 4.5111464 1.4552079 0 0 1-4.5111466-1.455209 4.5111464 1.4552079 0 0 1 4.5111466-1.455208 4.5111464 1.4552079 0 0 1 4.5111458 1.455208z" fill-opacity=".27451" stroke-width=".302647"/>
    <path d="m8.4346273 1.0583364c-3.3483641 0.00575-6.0534238 0.892502-6.0533774 1.984375-3.41e-5 0.044134 0.00445 0.088255 0.013436 0.1322917h-0.013436c0.6513748 3.7594477 0.8382077 7.3962249 1.5668295 11.1125 0.2114084 0.749252 2.1532956 1.322834 4.4787964 1.322917 0.013404 0 0.026413-4.76e-4 0.039791-5.29e-4 0.013377 5.3e-5 0.026387 5.29e-4 0.039791 5.29e-4 2.3255002-8.3e-5 4.2673882-0.573664 4.4787962-1.322917 0.728622-3.716275 0.915456-7.3530522 1.56683-11.1125h-0.01344c0.0089-0.044036 0.01347-0.088158 0.01344-0.1322917 4.7e-5 -1.0918729-2.705014-1.978625-6.0533777-1.984375h-0.03204zm0.00362 0.2645833h0.056845c3.2036527 0.00462 5.7924497 0.7732467 5.7924117 1.7197917 0 0.9498148-2.606076 1.7197917-5.8208338 1.7197917-3.2147574 0-5.8208334-0.7699769-5.8208334-1.7197917-3.82e-5 -0.9465451 2.588759-1.7151699 5.7924105-1.7197917z" fill="url(#linearGradient1206)" stroke-width=".278395"/>
    <path d="m8.4346274 1.0583364a6.0854168 1.984375 0 0 0-6.0533774 1.984375 6.0854168 1.984375 0 0 0 6.0854169 1.9843751 6.0854168 1.984375 0 0 0 6.0854171-1.9843751 6.0854168 1.984375 0 0 0-6.0854171-1.984375 6.0854168 1.984375 0 0 0-0.032039 0zm0.00362 0.2645833a5.8208332 1.7197917 0 0 1 0.028423 0 5.8208332 1.7197917 0 0 1 5.8208306 1.7197917 5.8208332 1.7197917 0 0 1-5.8208341 1.7197917 5.8208332 1.7197917 0 0 1-5.8208335-1.7197917 5.8208332 1.7197917 0 0 1 5.7924114-1.7197917z" fill="#fff" fill-opacity=".1" stroke-width=".278395"/>
    <ellipse cx="8.4666672" cy="3.0427115" rx="5.8208332" ry="1.7197917" fill="#232323" stroke-width=".27463"/>
    <path d="m2.3946858 3.1750031c0.6513747 3.7594483 0.8382073 7.3962249 1.5668294 11.1125 0.2114082 0.749253 2.1532961 1.322834 4.4787966 1.322917 0.00888 0 0.0176-3.71e-4 0.026355-5.29e-4 0.00876 1.59e-4 0.017476 5.29e-4 0.026355 5.29e-4 2.3255002-8.3e-5 4.2673882-0.573664 4.4787962-1.322917 0.728622-3.716275 0.915455-7.3530516 1.56683-11.1125-0.213563 1.0422776-2.868537 1.8521008-6.0719813 1.8520834-3.2034444 1.74e-5 -5.8584178-0.8098058-6.0719809-1.8520834z" fill="url(#linearGradient1206-6)" stroke-width=".278395"/>
</svg>
