<svg version="1.1" viewBox="0 0 64 64" xmlns="http://www.w3.org/2000/svg">
 <defs>
  <style id="current-color-scheme" type="text/css">.ColorScheme-Highlight {
        color:#006aff;
      }
      .ColorScheme-HighlightedText {
        color:#ffffff;
      }</style>
  <linearGradient id="linearGradient1893" x2="0" y1="43" y2="35.79661" gradientTransform="matrix(.453125 0 0 .5552941 3 -.8776383)" gradientUnits="userSpaceOnUse">
   <stop stop-opacity=".1568628" offset="0"/>
   <stop stop-opacity="0" offset="1"/>
  </linearGradient>
  <linearGradient id="linearGradient887" x1="12" x2="12" y1="39.41328" y2="17.414" gradientTransform="matrix(1.45 0 0 1.545454 -14.4 -3.912799)" gradientUnits="userSpaceOnUse">
   <stop stop-opacity=".05490196" offset="0"/>
   <stop stop-color="#000008" stop-opacity="0" offset="1"/>
  </linearGradient>
  <filter id="filter881" x="-.05318182" y="-.06882353" width="1.106364" height="1.137647" color-interpolation-filters="sRGB">
   <feGaussianBlur stdDeviation="0.97499995"/>
  </filter>
 </defs>
 <path class="ColorScheme-Highlight" d="m3 24h58v29.40541c0 2.545406-2.020939 4.594594-4.53125 4.594594h-48.9375c-2.510312 0-4.53125-2.049188-4.53125-4.594594v-29.40541z" fill="currentColor"/>
 <title>base_folder</title>
 <desc>Created with Sketch.</desc>
 <path d="M 3,24 H 61 V 53.405406 C 61,55.950812 58.979061,58 56.46875,58 H 7.53125 C 5.020938,58 3,55.950812 3,53.405406 Z" fill-opacity=".27451" stroke-width=".425735"/>
 <path id="Combined-Shape" class="ColorScheme-Highlight" d="M 32.23577,12.738988 H 56.284551 C 58.88882,12.738988 61,14.880181 61,17.521477 V 52.217558 C 61,54.858861 58.88882,57 56.284551,57 H 7.7154466 C 5.1111776,57 3,54.858861 3,52.217558 V 11.782491 C 3,9.1411937 5.1111776,7 7.7154466,7 H 26.105688 Z" fill="currentColor"/>
 <path d="M 32.23577,12.738988 H 56.284551 C 58.88882,12.738988 61,14.880181 61,17.521477 V 52.217558 C 61,54.858861 58.88882,57 56.284551,57 H 7.7154466 C 5.1111765,57 3,54.858861 3,52.217558 V 11.782491 C 3,9.1411937 5.1111765,7 7.7154466,7 H 26.105688 Z" fill-opacity=".1568628" stroke-width=".474885"/>
 <rect x="10" y="18.02041" width="44" height="34" rx="3.4375" fill-opacity=".1568628" filter="url(#filter881)" stroke-width=".37081"/>
 <rect x="10" y="18.02041" width="44" height="34" rx="3.4375" fill="#fff"/>
 <path id="Rectangle" class="ColorScheme-Highlight" d="m3 23h58v29.40541c0 2.545405-2.020939 4.594594-4.531251 4.594594h-48.9375c-2.510312 0-4.53125-2.049189-4.53125-4.594594v-29.40541z" fill="currentColor"/>
 <path d="m3 22.99975h58v29.40541c0 2.545406-2.02094 4.594594-4.531251 4.594594h-48.9375c-2.510312 0-4.53125-2.049188-4.53125-4.594594v-29.40541z" fill="url(#linearGradient887)" stroke-width=".4257346"/>
 <rect x="3" y="19" width="58" height="4" fill="url(#linearGradient1893)"/>
 <g id="home-folder" transform="matrix(.4812499 0 0 .4812499 1.99108 1.253328)" fill="none" fill-rule="evenodd">
  <path id="house" d="m71.86719 98.72926h8.681618v-22.04953l-18.19271-13.90052-18.19248 13.9005v22.04954h8.681353v-10.78725c0-3.576201 2.895079-6.509592 6.509766-6.509592h6.002693c3.614687 0 6.509765 2.933391 6.509765 6.509592zm-4.664545-10.78725c0-1.032575-0.826131-1.869639-1.84522-1.869639h-6.002693c-1.019088 0-1.84522 0.837064-1.84522 1.869639v13.57122c0 1.02503-0.835355 1.85598-1.865818 1.85598h-14.27881c-1.030462 0-1.865818-0.83095-1.865818-1.85598v-27.12024l21.15214-16.16192c1.005396-0.768202 2.404343-0.768205 3.409743-9e-6l21.1524 16.16193v27.12024c0 1.02503-0.835357 1.85598-1.865818 1.85598h-14.27907c-1.030462 0-1.865818-0.83095-1.865818-1.85598z" fill="#fff" fill-rule="nonzero" stroke-width=".930446"/>
 </g>
</svg>
