<svg version="1.1" viewBox="0 0 16 16" xmlns="http://www.w3.org/2000/svg">
    <g transform="translate(0,-1036.3622)">
        <rect y="1036.3622" width="16" height="16" rx="1.1428572" ry="1.1428572" fill="#e3bd20" stroke-width=".571565"/>
        <g fill="#fff" stroke-width=".571429" aria-label="16px">
            <path d="m3.8106212 1041.9077h-0.4696967l-0.9696964 0.644v0.4772l0.9469691-0.6288h0.022727v3.3864h0.4696967z"/>
            <path d="m6.2121266 1045.8395c0.7840905 0.01 1.2954538-0.5814 1.2954538-1.303 0-0.75-0.5549239-1.2879-1.2196962-1.2879-0.399621 0-0.7424238 0.1951-0.9545449 0.5152h-0.030303c0.00189-0.9527 0.3693179-1.5 0.9696963-1.5 0.4090907 0 0.6553027 0.2575 0.7424238 0.6136h0.462121c-0.094697-0.6098-0.55303-1.0303-1.2045448-1.0303-0.8731055 0-1.40909 0.7727-1.40909 2.1515 0 1.4337 0.7121208 1.8334 1.348484 1.8409zm0-0.4166c-0.4867421 0-0.8428025-0.4148-0.8409086-0.8788 0.00189-0.464 0.3749998-0.8788 0.8560601-0.8788 0.4753785 0 0.8257571 0.3901 0.8257571 0.8712 0 0.4924-0.3655301 0.8864-0.8409086 0.8864z"/>
            <path d="m8.2575771 1046.8774h0.4469694v-1.5379h0.037879c0.098485 0.1591 0.2878786 0.5076 0.8484843 0.5076 0.7272724 0 1.2348474-0.5833 1.2348474-1.5076 0-0.9166-0.507575-1.5-1.2424231-1.5-0.5681815 0-0.7424238 0.3485-0.8409086 0.5h-0.05303v-0.4621h-0.4318184zm0.4393937-2.5454c0-0.6516 0.2878786-1.091 0.8333328-1.091 0.5681814 0 0.8484844 0.4773 0.8484844 1.091 0 0.6212-0.287879 1.1136-0.8484844 1.1136-0.5378785 0-0.8333328-0.4546-0.8333328-1.1136z"/>
            <path d="m11.719682 1042.8774h-0.515151l0.924242 1.4546-0.924242 1.4545h0.515151l0.696969-1.1288 0.69697 1.1288h0.515151l-0.939394-1.4545 0.939394-1.4546h-0.515151l-0.69697 1.1894z"/>
        </g>
    </g>
</svg>
